<svg xmlns="http://www.w3.org/2000/svg" height="330" width="900" viewBox="0 0 900 330"><path d="M89.103-.13c-2.166 4.504-3.653 5.57-3.653 9.4 0 1.34.289 2.64.813 3.838-1.507-.745-2.822-1.305-4.066-1.356-1.18-.055-2.296.35-3.48 1.497-3.206 3.206-.765 6.453 3.274 6.375-1.436-1.866-.215-3.003 1.301-2.906 1.483.095 2.794 3.29 3.036 5.985a1.556 1.556 0 0 0-1.215 1.518v.122c0 .779.567 1.421 1.312 1.539.228.488 1.211 2.851-.715 3.914-1.614.89-1.597-.697-.76-1.94-2.355-.056-3.777 2.112-1.907 4.25.69.76 1.35 1.029 2.038.997.123 0 .243-.056.368-.056l-.314.943c-.173.522.433.996.987 1.02v12.75a167.809 167.809 0 0 0-23.668 6.591V43.53c.554 0 1.15-.499.976-1.018l-.304-.932c.125 0 .246.055.369.055.688.056 1.347-.25 2.038-1.008 1.87-2.137.438-4.302-1.919-4.25.838 1.245.855 2.83-.759 1.94-1.926-1.062-.932-3.425-.704-3.913a1.554 1.554 0 0 0 1.311-1.54v-.122c0-.745-.517-1.362-1.214-1.518.242-2.696 1.552-5.9 3.036-5.995 1.515-.094 2.737 1.05 1.3 2.917 4.04.077 6.481-3.169 3.275-6.376-2.432-2.344-4.616-1.597-7.546-.15a9.587 9.587 0 0 0 .813-3.838c0-3.83-1.498-4.896-3.664-9.4-2.166 4.504-3.654 5.57-3.654 9.4 0 1.341.29 2.64.813 3.838-1.506-.745-2.81-1.303-4.055-1.355-1.179-.056-2.306.36-3.49 1.507-3.207 3.206-.766 6.442 3.274 6.364-1.437-1.865-.215-3.002 1.3-2.905 1.484.094 2.795 3.299 3.036 5.995a1.557 1.557 0 0 0-1.214 1.518v.106c0 .779.566 1.42 1.312 1.54.227.488 1.21 2.85-.716 3.913-1.613.89-1.586-.686-.748-1.93-2.356-.055-3.789 2.101-1.919 4.24.691.76 1.35 1.04 2.038 1.008.123 0 .244-.056.37-.056l-.305.933c-.173.522.422.995.976 1.019v13.119c-8.097 3.211-15.975 6.952-23.657 11.069v-9.963c.554 0 1.15-.49.976-1.01l-.314-.942c.125 0 .246.055.369.055.687.056 1.347-.239 2.038-.997 1.87-2.138.437-4.302-1.92-4.25.839 1.244.855 2.83-.758 1.94-1.927-1.062-.932-3.425-.705-3.914a1.553 1.553 0 0 0 1.312-1.539v-.122c0-.745-.517-1.362-1.214-1.518.241-2.697 1.552-5.9 3.035-5.995 1.516-.095 2.738 1.039 1.302 2.905 4.039.078 6.48-3.158 3.274-6.364-2.433-2.344-4.616-1.592-7.546-.139a9.636 9.636 0 0 0 .813-3.848c0-3.83-1.487-4.885-3.654-9.39-2.166 4.505-3.664 5.56-3.664 9.39 0 1.34.289 2.65.813 3.848-1.506-.745-2.811-1.303-4.055-1.355-1.18-.055-2.306.35-3.491 1.496-3.206 3.206-.754 6.453 3.285 6.375-1.436-1.865-.225-3.003 1.29-2.906 1.484.095 2.805 3.289 3.047 5.985a1.567 1.567 0 0 0-1.225 1.518v.122c0 .78.566 1.41 1.312 1.529.227.488 1.221 2.862-.705 3.925-1.614.89-1.597-.696-.76-1.941-2.355-.056-3.777 2.113-1.907 4.25.69.76 1.34 1.029 2.027.997.123 0 .243-.055.369-.055l-.304.943c-.174.522.421.985.976 1.009v13.259c-8.107 4.602-15.99 9.57-23.657 14.734v-9.064c.554 0 1.149-.5.976-1.02l-.314-.931c.125 0 .245.055.368.055.688.056 1.347-.25 2.038-1.008 1.87-2.137.448-4.301-1.908-4.25.838 1.245.855 2.831-.759 1.941-1.926-1.062-.943-3.425-.715-3.914a1.563 1.563 0 0 0 1.322-1.54v-.121c0-.746-.527-1.35-1.225-1.507.242-2.697 1.553-5.901 3.036-5.996 1.516-.094 2.737 1.04 1.301 2.906 4.04.078 6.491-3.17 3.285-6.375-2.432-2.345-4.616-1.587-7.546-.14.525-1.197.8-2.506.803-3.848 0-3.83-1.488-4.885-3.654-9.389-2.166 4.504-3.654 5.559-3.654 9.39 0 1.34.29 2.65.813 3.848-1.506-.745-2.822-1.304-4.065-1.355-1.18-.056-2.307.35-3.491 1.496-3.207 3.206-.755 6.453 3.285 6.375-1.437-1.866-.215-3.004 1.3-2.906 1.484.095 2.795 3.289 3.036 5.985A1.557 1.557 0 0 0-3.8 65.887v.122c0 .78.566 1.421 1.312 1.54.228.488 1.211 2.85-.716 3.913-1.613.89-1.596-.696-.759-1.94-2.355-.056-3.778 2.112-1.908 4.25.691.76 1.35 1.04 2.039 1.008.122 0 .243-.056.368-.056l-.314.932c-.174.522.422.995.976 1.02v13.151a761.713 761.713 0 0 0-17.282 12.38c-2.2 1.62-4.21 3.12-6.375 4.728v-8.706c.554 0 1.149-.5.976-1.019l-.304-.932c.125 0 .246.055.369.055.687.056 1.347-.25 2.038-1.009 1.87-2.137.437-4.302-1.92-4.25.839 1.245.855 2.832-.758 1.941-1.927-1.062-.943-3.425-.716-3.914a1.563 1.563 0 0 0 1.323-1.54v-.121a1.54 1.54 0 0 0-1.214-1.507c.241-2.696 1.552-5.9 3.035-5.996 1.516-.094 2.738 1.04 1.301 2.906 4.04.078 6.48-3.169 3.275-6.375-2.433-2.345-4.616-1.587-7.546-.14a9.627 9.627 0 0 0 .813-3.848c0-3.83-1.498-4.884-3.665-9.389-2.166 4.505-3.653 5.559-3.653 9.39 0 1.34.289 2.65.813 3.848-1.506-.746-2.811-1.303-4.055-1.355-1.18-.056-2.306.35-3.491 1.496-3.206 3.206-.765 6.453 3.274 6.375-1.436-1.866-.215-3.003 1.301-2.906 1.484.095 2.794 3.289 3.036 5.985a1.556 1.556 0 0 0-1.214 1.518v.122c0 .78.566 1.422 1.312 1.54.227.488 1.21 2.851-.716 3.913-1.614.89-1.597-.696-.759-1.94-2.356-.056-3.778 2.113-1.908 4.25.69.761 1.35 1.04 2.038 1.008.123 0 .243-.066.369-.066l-.314.943c-.174.522.432.995.986 1.02v13.128c-8.067 6.005-16.08 11.917-23.667 17.293v-8.781c.554 0 1.16-.5.986-1.02l-.314-.932c.125 0 .246.055.368.055.688.056 1.348-.238 2.039-.997 1.87-2.138.437-4.302-1.92-4.25.838 1.244.855 2.83-.758 1.94-1.927-1.062-.932-3.426-.705-3.913a1.553 1.553 0 0 0 1.312-1.54v-.11c0-.746-.517-1.373-1.214-1.53.241-2.695 1.552-5.888 3.035-5.984 1.516-.094 2.738 1.04 1.301 2.906 4.04.078 6.48-3.159 3.275-6.364-2.433-2.346-4.616-1.598-7.546-.15a9.639 9.639 0 0 0 .813-3.849c0-3.83-1.488-4.884-3.654-9.389-2.166 4.505-3.664 5.559-3.664 9.39 0 1.34.289 2.65.813 3.848-1.506-.745-2.811-1.304-4.055-1.355-1.18-.056-2.306.35-3.491 1.496-3.206 3.206-.765 6.453 3.274 6.375-1.436-1.866-.215-3.003 1.301-2.906 1.484.095 2.794 3.29 3.036 5.985a1.557 1.557 0 0 0-1.214 1.518v.122c0 .78.566 1.41 1.311 1.529.228.488 1.222 2.861-.704 3.924-1.614.89-1.597-.696-.76-1.94-2.355-.056-3.788 2.112-1.918 4.25.69.761 1.35 1.029 2.038.997.123 0 .243.001.369-.055l-.304.932c-.174.522.422.996.976 1.02v12.998c-8.177 5.617-16.061 10.62-23.657 14.648v-9.953c.554 0 1.149-.488.976-1.008l-.315-.944c.126 0 .246.056.37.056.687.056 1.346-.239 2.037-.998 1.87-2.137.438-4.301-1.919-4.25.838 1.246.855 2.832-.759 1.941-1.926-1.062-.932-3.425-.704-3.914a1.553 1.553 0 0 0 1.312-1.539v-.122c0-.746-.518-1.362-1.215-1.518.242-2.696 1.553-5.89 3.036-5.985 1.516-.094 2.737 1.04 1.301 2.906 4.04.078 6.491-3.169 3.285-6.375-2.432-2.345-4.627-1.587-7.557-.14a9.635 9.635 0 0 0 .813-3.848c0-3.83-1.487-4.896-3.653-9.4-2.166 4.504-3.654 5.57-3.654 9.4 0 1.34.278 2.65.802 3.849-1.506-.745-2.81-1.315-4.054-1.366-1.18-.056-2.307.36-3.491 1.507-3.207 3.206-.755 6.453 3.285 6.375-1.437-1.866-.215-3.004 1.3-2.906 1.484.095 2.795 3.289 3.036 5.985a1.567 1.567 0 0 0-1.225 1.518v.122c0 .779.566 1.422 1.312 1.54.228.488 1.222 2.851-.705 3.913-1.613.89-1.596-.686-.759-1.93-2.355-.055-3.778 2.103-1.908 4.24.691.761 1.35 1.04 2.038 1.008.123 0 .244 0 .37-.067l-.315.943c-.174.522.421.996.976 1.02v12.933c-4.516 2.118-8.917 3.826-13.217 5.085v-17.803h5.15v-5.974h-10.722c.061-.99.179-1.825.401-2.211 1.037-1.795 2.6-3.577 2.602-5.79a7.765 7.765 0 0 0-7.763-7.762 7.765 7.765 0 0 0-7.762 7.762c.002 2.213 1.565 3.995 2.602 5.79.223.389.34 1.22.401 2.211h-10.722v5.974h5.16v189.95h-5.16v5.973h30.964v-5.974h-5.15v-27.961h13.216v27.961h5.985v-27.961h23.657v27.961h5.973v-27.961h23.668v27.961h5.974v-27.961h23.657v27.961h5.984v-27.961H26.84v27.961h5.974v-27.961h23.668v27.961h5.973v-27.961h23.657v27.961h5.985v-27.961h13.487v33.935h26.942v-33.935h13.487v27.961h5.985v-27.961h23.657v27.961h5.974v-27.961h23.667v27.961h5.974v-27.961h23.657v27.961h5.985v-27.961h23.656v27.961h5.974v-27.961h23.668v27.961h5.974v-27.961h23.657v27.961h5.984v-27.961h13.216v27.961h-5.15v5.974h30.954v-5.974h-5.15V137.797h5.15v-5.974h-10.712c.062-.99.178-1.825.401-2.211 1.037-1.795 2.6-3.577 2.602-5.79a7.765 7.765 0 0 0-7.762-7.762 7.765 7.765 0 0 0-7.763 7.762c.002 2.213 1.566 3.995 2.602 5.79.223.389.34 1.22.401 2.211h-10.722v5.974h5.15V155.6c-4.3-1.259-8.701-2.967-13.217-5.085V137.58c.554 0 1.15-.5.976-1.02l-.314-.943c.126 0 .245.067.369.067.687.055 1.347-.244 2.038-1.008 1.87-2.137.448-4.29-1.908-4.24.838 1.244.854 2.82-.76 1.93-1.926-1.062-.931-3.424-.704-3.914a1.545 1.545 0 0 0 1.301-1.539v-.122c0-.744-.518-1.362-1.214-1.518.241-2.696 1.552-5.888 3.036-5.985 1.515-.094 2.737 1.04 1.3 2.906 4.04.078 6.492-3.169 3.286-6.375-1.185-1.142-2.312-1.556-3.491-1.507-1.244.055-2.55.62-4.055 1.366a9.604 9.604 0 0 0 .802-3.849c0-3.83-1.487-4.896-3.654-9.4-2.166 4.504-3.653 5.57-3.653 9.4a9.623 9.623 0 0 0 .802 3.849c-2.93-1.447-5.114-2.206-7.546.139-3.206 3.206-.754 6.453 3.285 6.375-1.436-1.866-.215-3.003 1.301-2.906 1.484.094 2.794 3.29 3.036 5.985a1.556 1.556 0 0 0-1.214 1.518v.122c0 .78.565 1.421 1.311 1.54.228.488 1.211 2.85-.715 3.913-1.614.89-1.586-.695-.748-1.94-2.356-.056-3.79 2.112-1.92 4.25.692.762 1.351 1.03 2.04.997.122 0 .242.001.368-.056l-.315.944c-.173.521.422.981.976 1.008v9.953c-7.595-4.028-15.48-9.031-23.657-14.647v-13c.554 0 1.15-.5.976-1.019l-.303-.932c.124 0 .245.055.368.055.688.056 1.347-.239 2.038-.997 1.87-2.138.437-4.301-1.919-4.25.838 1.244.855 2.83-.759 1.94-1.926-1.063-.932-3.436-.704-3.924a1.547 1.547 0 0 0 1.312-1.529v-.122c0-.745-.518-1.362-1.215-1.518.242-2.696 1.553-5.888 3.036-5.985 1.516-.094 2.737 1.04 1.301 2.906 4.04.078 6.48-3.169 3.274-6.375-1.185-1.143-2.312-1.544-3.49-1.496-1.245.055-2.55.61-4.056 1.355a9.614 9.614 0 0 0 .813-3.849c0-3.83-1.498-4.884-3.664-9.389-2.166 4.505-3.654 5.559-3.654 9.39a9.64 9.64 0 0 0 .813 3.848c-2.93-1.448-5.113-2.195-7.546.15-3.206 3.205-.764 6.442 3.275 6.364-1.437-1.866-.215-3.003 1.3-2.906 1.484.094 2.795 3.289 3.036 5.984a1.567 1.567 0 0 0-1.214 1.53v.11c0 .78.566 1.42 1.312 1.54.228.488 1.222 2.85-.705 3.914-1.613.89-1.596-.697-.759-1.941-2.356-.056-3.789 2.112-1.919 4.25.691.763 1.35 1.03 2.039.997.122 0 .243.002.368-.055l-.314.932c-.174.522.432.992.987 1.02v8.781c-7.587-5.376-15.601-11.288-23.668-17.292V98.23c.554 0 1.16-.5.987-1.019l-.315-.943c.125 0 .246.066.369.066.688.056 1.347-.25 2.038-1.008 1.87-2.137.448-4.302-1.908-4.25.838 1.244.855 2.83-.759 1.94-1.926-1.062-.943-3.425-.715-3.914a1.554 1.554 0 0 0 1.312-1.539v-.122c0-.745-.519-1.362-1.215-1.518.242-2.696 1.553-5.888 3.036-5.985 1.516-.094 2.737 1.04 1.3 2.906 4.04.078 6.481-3.169 3.275-6.375-1.185-1.142-2.312-1.544-3.49-1.496-1.245.055-2.55.61-4.056 1.355a9.614 9.614 0 0 0 .813-3.849c0-3.83-1.487-4.884-3.653-9.389-2.167 4.505-3.665 5.56-3.665 9.39a9.638 9.638 0 0 0 .813 3.848c-2.93-1.448-5.113-2.206-7.546.139-3.206 3.206-.764 6.453 3.275 6.375-1.437-1.866-.215-3.003 1.3-2.906 1.484.094 2.795 3.3 3.036 5.996a1.543 1.543 0 0 0-1.214 1.507v.122c0 .78.577 1.421 1.323 1.54.227.488 1.21 2.85-.716 3.913-1.613.89-1.596-.696-.759-1.94-2.356-.056-3.789 2.112-1.919 4.25.691.762 1.35 1.04 2.039 1.008.122 0 .243.001.368-.055l-.304.932c-.173.522.422.992.976 1.02v8.705c-2.166-1.608-4.175-3.109-6.375-4.727a761.464 761.464 0 0 0-17.282-12.381v-13.15c.554 0 1.15-.5.976-1.02l-.314-.932c.125 0 .245.056.369.056.687.055 1.347-.25 2.038-1.008 1.87-2.138.448-4.301-1.908-4.25.838 1.244.854 2.83-.76 1.94-1.926-1.063-.942-3.425-.715-3.914a1.554 1.554 0 0 0 1.312-1.539v-.122c0-.745-.518-1.362-1.214-1.518.241-2.696 1.552-5.888 3.036-5.985 1.515-.094 2.737 1.04 1.3 2.906 4.04.078 6.48-3.169 3.275-6.375-1.185-1.142-2.301-1.544-3.48-1.496-1.244.055-2.56.61-4.066 1.355a9.612 9.612 0 0 0 .813-3.849c0-3.83-1.487-4.885-3.654-9.389-2.166 4.504-3.653 5.559-3.653 9.39a9.624 9.624 0 0 0 .802 3.848c-2.93-1.447-5.114-2.205-7.546.139-3.206 3.206-.754 6.453 3.285 6.375-1.436-1.866-.225-3.003 1.29-2.906 1.484.094 2.805 3.3 3.047 5.996-.697.16-1.225.761-1.225 1.507v.122c0 .78.576 1.42 1.322 1.54.228.488 1.212 2.85-.715 3.913-1.614.89-1.597-.696-.76-1.94-2.355-.056-3.777 2.112-1.907 4.25.69.761 1.35 1.04 2.038 1.007.123 0 .243.002.369-.055l-.315.932c-.173.522.422.992.976 1.02v9.063c-7.667-5.164-15.55-10.132-23.657-14.734V57.744c.554 0 1.15-.489.976-1.009l-.314-.943c.125 0 .245.055.368.055.688.056 1.348-.238 2.039-.997 1.87-2.137.448-4.301-1.908-4.25.837 1.245.854 2.831-.76 1.94-1.926-1.062-.931-3.436-.704-3.924a1.543 1.543 0 0 0 1.312-1.529v-.122c0-.745-.53-1.361-1.225-1.518.241-2.696 1.552-5.887 3.035-5.985 1.516-.094 2.738 1.04 1.301 2.906 4.04.078 6.492-3.169 3.285-6.375-1.184-1.142-2.311-1.544-3.49-1.496-1.244.056-2.55.61-4.055 1.355a9.595 9.595 0 0 0 .802-3.848c0-3.83-1.487-4.885-3.654-9.39-2.166 4.505-3.654 5.56-3.654 9.39a9.624 9.624 0 0 0 .803 3.848c-2.93-1.448-5.114-2.2-7.546.139-3.206 3.206-.754 6.442 3.285 6.364-1.436-1.866-.215-3.002 1.3-2.905 1.484.094 2.795 3.298 3.037 5.995a1.551 1.551 0 0 0-1.215 1.518v.122c0 .78.566 1.421 1.312 1.54.228.488 1.222 2.851-.705 3.913-1.613.89-1.596-.696-.758-1.94-2.356-.056-3.79 2.112-1.92 4.25.692.762 1.351 1.03 2.039.997.123 0 .243.001.368-.055l-.314.943c-.173.522.422.981.976 1.008v9.964c-7.682-4.117-15.56-7.858-23.657-11.07V43.518c.554 0 1.15-.5.976-1.02l-.304-.932c.125 0 .246.056.369.056.688.055 1.347-.25 2.038-1.009 1.87-2.138.437-4.29-1.919-4.239.838 1.244.855 2.82-.759 1.93-1.926-1.063-.932-3.425-.705-3.914a1.559 1.559 0 0 0 1.312-1.54v-.105c0-.745-.518-1.362-1.214-1.518.242-2.696 1.552-5.897 3.036-5.995 1.515-.095 2.737 1.04 1.3 2.905 4.04.078 6.481-3.158 3.275-6.364-1.185-1.142-2.312-1.555-3.491-1.507-1.244.055-2.549.61-4.055 1.355a9.563 9.563 0 0 0 .813-3.838c0-3.83-1.498-4.896-3.664-9.4-2.167 4.504-3.654 5.57-3.654 9.4a9.588 9.588 0 0 0 .813 3.838c-2.93-1.447-5.113-2.195-7.546.15-3.206 3.207-.765 6.454 3.275 6.376-1.437-1.867-.215-3.014 1.3-2.917 1.484.095 2.795 3.3 3.036 5.995a1.556 1.556 0 0 0-1.214 1.518v.123c0 .779.566 1.42 1.312 1.539.227.488 1.222 2.851-.705 3.914-1.613.89-1.597-.696-.759-1.94-2.356-.056-3.789 2.112-1.919 4.25.691.761 1.35 1.04 2.038 1.007.123 0 .244.002.369-.055l-.314.932c-.173.521.432.992.986 1.019v10.82a167.807 167.807 0 0 0-23.667-6.591V35.009c.554 0 1.16-.5.986-1.019l-.314-.943c.125 0 .246.056.369.056.688.055 1.347-.239 2.038-.998 1.87-2.137.448-4.301-1.908-4.25.838 1.244.854 2.831-.759 1.941-1.927-1.063-.943-3.425-.716-3.914a1.554 1.554 0 0 0 1.312-1.54v-.121c0-.745-.518-1.362-1.214-1.518.242-2.696 1.552-5.888 3.036-5.985 1.515-.094 2.737 1.04 1.3 2.906 4.04.077 6.481-3.169 3.275-6.375-1.185-1.142-2.312-1.545-3.491-1.497-1.244.056-2.549.611-4.055 1.356a9.561 9.561 0 0 0 .813-3.838c0-3.83-1.487-4.896-3.653-9.4-2.165 4.5-3.665 5.56-3.665 9.389a9.643 9.643 0 0 0 .813 3.849c-2.93-1.448-5.113-2.206-7.546.139-3.206 3.206-.765 6.453 3.274 6.375-1.436-1.867-.214-3.014 1.302-2.917 1.483.094 2.794 3.3 3.035 5.996a1.55 1.55 0 0 0-1.214 1.517v.106c0 .78.577 1.42 1.323 1.54.227.488 1.21 2.85-.716 3.914-1.613.89-1.597-.686-.759-1.93-2.356-.056-3.789 2.101-1.919 4.239.691.763 1.35 1.04 2.038 1.008.123 0 .244 0 .369-.067l-.304.943c-.173.522.422.992.976 1.02v11.698c-4.442-.706-8.924-1.27-13.487-1.561h-26.942c-4.563.294-9.045.855-13.487 1.56V34.992c.554 0 1.149-.5.976-1.02l-.315-.943c.126 0 .246.067.369.067.688.055 1.347-.244 2.038-1.008 1.87-2.138.438-4.292-1.919-4.24.838 1.245.855 2.821-.759 1.93-1.926-1.062-.932-3.425-.704-3.913a1.558 1.558 0 0 0 1.311-1.54v-.106a1.55 1.55 0 0 0-1.214-1.517c.242-2.696 1.552-5.9 3.036-5.996 1.515-.094 2.737 1.05 1.3 2.917 4.04.077 6.492-3.169 3.286-6.375-2.432-2.346-4.627-1.588-7.557-.139a9.631 9.631 0 0 0 .813-3.85c0-3.829-1.488-4.888-3.653-9.388zm16.48 53.374v12.783c-4.562.294-9.044.876-13.487 1.593V54.914c4.446-.754 8.931-1.358 13.487-1.67zm26.942 0c4.555.31 9.04.916 13.487 1.67V67.62c-4.443-.717-8.926-1.297-13.487-1.593V53.244zM86.11 56.052v12.641c-8.077 1.643-15.96 3.895-23.657 6.69V63.045c7.715-2.912 15.597-5.275 23.657-6.993zm65.885 0c8.06 1.718 15.942 4.08 23.657 6.993v12.338c-7.696-2.795-15.58-5.047-23.657-6.69v-12.64zM56.48 65.387v12.305c-8.09 3.248-15.98 7.029-23.667 11.19V76.965c7.711-4.291 15.599-8.22 23.667-11.58zm125.147 0c8.068 3.36 15.956 7.288 23.668 11.58V88.88c-7.688-4.16-15.578-7.94-23.668-11.189V65.387zm-76.044 4.694v12.783c-4.563.294-9.046.866-13.487 1.572V71.72c4.445-.741 8.929-1.331 13.487-1.638zm26.942 0c4.558.306 9.041.897 13.487 1.638v12.717c-4.442-.706-8.924-1.28-13.487-1.572V70.081zM86.11 72.835v12.642c-8.08 1.619-15.968 3.846-23.657 6.602V79.731c7.708-2.873 15.591-5.203 23.657-6.896zm65.885 0c8.066 1.693 15.95 4.023 23.657 6.896v12.348c-7.689-2.756-15.577-4.983-23.657-6.602V72.835zM26.84 80.36v11.85c-8.098 4.638-15.981 9.644-23.657 14.843V95.538c7.71-5.308 15.582-10.435 23.657-15.179zm184.43 0c8.075 4.744 15.946 9.871 23.656 15.18v11.513c-7.675-5.199-15.559-10.205-23.656-14.842V80.36zm-29.642 1.68c8.076 3.322 15.965 7.192 23.668 11.44v11.958c-7.682-4.118-15.57-7.848-23.668-11.059v-12.34zm-125.147 0v12.33c-8.097 3.21-15.986 6.941-23.667 11.059v-11.96c7.702-4.247 15.592-8.105 23.667-11.427zm49.103 8.913v202.85H92.096V92.622c4.446-.754 8.931-1.358 13.487-1.67zm26.942 0c4.555.31 9.04.916 13.487 1.67v201.18h-13.487V90.952zM86.11 93.76v200.042H62.454v-193.05c7.715-2.912 15.597-5.275 23.657-6.992zm65.885 0c8.06 1.717 15.942 4.08 23.657 6.993v193.049h-23.657V93.76zM26.84 96.87v11.861c-8.107 4.603-15.99 9.56-23.657 14.723v-11.523c7.697-5.27 15.575-10.352 23.657-15.06zm184.43 0c8.081 4.708 15.96 9.79 23.656 15.06v11.525c-7.667-5.164-15.55-10.12-23.656-14.723v-11.86zM-2.802 99.71v11.439a772.271 772.271 0 0 0-16.078 11.547c-2.61 1.922-5.014 3.718-7.579 5.627V117.08c3.744-2.813 7.343-5.535 11.178-8.359a809.13 809.13 0 0 1 12.48-9.01zm243.713 0a809.704 809.704 0 0 1 12.49 9.01c3.835 2.824 7.423 5.546 11.167 8.36v11.243c-2.564-1.91-4.968-3.705-7.578-5.627a772.267 772.267 0 0 0-16.079-11.547V99.712zm-184.43 3.384v190.707H32.813V114.674c7.711-4.291 15.599-8.22 23.667-11.58zm125.147 0c8.068 3.36 15.956 7.288 23.668 11.579v179.128h-23.668V103.095zm-184.43 12.977v11.482a765.34 765.34 0 0 0-17.282 12.381c-2.199 1.62-4.209 3.108-6.375 4.716v-11.253c3.352-2.51 6.548-4.914 9.975-7.437 4.498-3.312 9.053-6.628 13.682-9.888zm243.713 0c4.63 3.26 9.184 6.576 13.682 9.888 3.427 2.523 6.623 4.926 9.975 7.437v11.255a1908.585 1908.585 0 0 0-6.375-4.716 765.089 765.089 0 0 0-17.282-12.381v-11.482zM26.84 118.067v175.735H3.182V133.256c7.71-5.307 15.582-10.445 23.657-15.189zm184.43 0c8.075 4.744 15.946 9.881 23.656 15.19v160.545H211.27V118.067zm-243.702 3.48v11.21c-8.052 6.01-16.065 11.937-23.668 17.315v-11.156c7.663-5.372 15.664-11.346 23.668-17.369zm302.974 0c8.003 6.023 16.005 11.997 23.667 17.369v11.156c-7.602-5.378-15.615-11.306-23.667-17.314v-11.21zM-2.803 137.431V293.8H-26.46v-139c3.744-2.814 7.343-5.534 11.178-8.36a820.481 820.481 0 0 1 12.48-9.008zm243.713 0a817.24 817.24 0 0 1 12.49 9.009c3.835 2.825 7.423 5.545 11.167 8.36v139.002H240.91V137.43zm-273.343.433v11.21c-8.067 6.005-16.081 11.917-23.668 17.293V155.2c7.64-5.375 15.647-11.318 23.668-17.336zm302.974 0c8.02 6.018 16.027 11.96 23.667 17.336v11.167c-7.587-5.376-15.6-11.288-23.667-17.293v-11.21zm-332.616 5.16v11.243c-8.134 5.562-16.022 10.518-23.657 14.485v-11.828c7.77-3.78 15.636-8.509 23.657-13.9zm362.257 0c8.021 5.391 15.888 10.12 23.657 13.9v11.828c-7.635-3.967-15.522-8.923-23.657-14.485v-11.243zm-332.615 16.242V293.8h-23.668V176.634c7.663-5.372 15.664-11.346 23.668-17.368zm302.974 0c8.003 6.022 16.005 11.996 23.667 17.368v117.167h-23.667V159.266zm-332.616.077v11.254c-8.177 5.615-16.061 10.608-23.657 14.636V173.45c7.725-3.844 15.597-8.653 23.657-14.106zm362.257 0c8.06 5.453 15.932 10.262 23.657 14.105v11.785c-7.596-4.028-15.48-9.02-23.657-14.636v-11.254zm-391.898.283v12.057c-4.495 2.053-8.891 3.677-13.217 4.89v-12.436c4.384-1.083 8.786-2.647 13.217-4.51zm421.54 0c4.43 1.864 8.832 3.429 13.216 4.511v12.436c-4.325-1.213-8.721-2.837-13.216-4.89v-12.057zm-421.54 16.6v12.001c-4.516 2.117-8.917 3.826-13.217 5.085v-12.436c4.364-1.123 8.769-2.728 13.217-4.651zm421.54 0c4.448 1.923 8.853 3.527 13.216 4.65v12.436c-4.3-1.258-8.701-2.967-13.216-5.085v-12.001zm-391.899 4.52v113.048h-23.657v-99.149c7.77-3.779 15.636-8.507 23.657-13.899zm362.257 0c8.021 5.392 15.888 10.12 23.657 13.9v99.148h-23.657V180.746zm-391.898 16.61v96.438h-13.217v-91.938c4.384-1.082 8.786-2.637 13.217-4.5zm421.54 0c4.43 1.863 8.832 3.418 13.216 4.5v91.938h-13.216v-96.438z" style="line-height:normal;text-indent:0;text-align:start;text-decoration-line:none;text-decoration-style:solid;text-decoration-color:#000;text-transform:none;block-progression:tb;isolation:auto;mix-blend-mode:normal" color="#000" font-weight="400" font-family="sans-serif" white-space="normal" overflow="visible" fill-rule="evenodd"/><path style="line-height:normal;text-indent:0;text-align:start;text-decoration-line:none;text-decoration-style:solid;text-decoration-color:#000;text-transform:none;block-progression:tb;isolation:auto;mix-blend-mode:normal" d="M557.103-.13c-2.166 4.504-3.653 5.57-3.653 9.4 0 1.34.289 2.64.813 3.838-1.507-.745-2.822-1.305-4.066-1.356-1.18-.055-2.296.35-3.48 1.497-3.206 3.206-.765 6.453 3.274 6.375-1.436-1.866-.215-3.003 1.301-2.906 1.483.095 2.794 3.29 3.036 5.985a1.556 1.556 0 0 0-1.215 1.518v.122c0 .779.567 1.421 1.312 1.539.228.488 1.211 2.851-.715 3.914-1.614.89-1.597-.697-.76-1.94-2.355-.056-3.777 2.112-1.907 4.25.69.76 1.35 1.029 2.038.997.123 0 .243-.056.368-.056l-.314.943c-.173.522.433.996.987 1.02v12.75a167.809 167.809 0 0 0-23.668 6.591V43.53c.554 0 1.15-.499.976-1.018l-.304-.932c.125 0 .246.055.369.055.688.056 1.347-.25 2.038-1.008 1.87-2.137.438-4.302-1.919-4.25.838 1.245.855 2.83-.759 1.94-1.926-1.062-.932-3.425-.704-3.913a1.554 1.554 0 0 0 1.311-1.54v-.122c0-.745-.517-1.362-1.214-1.518.242-2.696 1.552-5.9 3.036-5.995 1.515-.094 2.737 1.05 1.3 2.917 4.04.077 6.481-3.169 3.275-6.376-2.432-2.344-4.616-1.597-7.546-.15a9.587 9.587 0 0 0 .813-3.838c0-3.83-1.498-4.896-3.664-9.4-2.166 4.504-3.654 5.57-3.654 9.4 0 1.341.29 2.64.813 3.838-1.506-.745-2.81-1.303-4.055-1.355-1.179-.056-2.306.36-3.49 1.507-3.207 3.206-.766 6.442 3.274 6.364-1.437-1.865-.215-3.002 1.3-2.905 1.484.094 2.795 3.299 3.036 5.995a1.557 1.557 0 0 0-1.214 1.518v.106c0 .779.566 1.42 1.312 1.54.227.488 1.21 2.85-.716 3.913-1.613.89-1.586-.686-.748-1.93-2.356-.055-3.789 2.101-1.919 4.24.691.76 1.35 1.04 2.038 1.008.123 0 .244-.056.37-.056l-.305.933c-.173.522.422.995.976 1.019v13.119c-8.097 3.211-15.975 6.952-23.657 11.069v-9.963c.554 0 1.15-.49.976-1.01l-.314-.942c.125 0 .246.055.369.055.687.056 1.347-.239 2.038-.997 1.87-2.138.437-4.302-1.92-4.25.839 1.244.855 2.83-.758 1.94-1.927-1.062-.932-3.425-.705-3.914a1.553 1.553 0 0 0 1.312-1.539v-.122c0-.745-.517-1.362-1.214-1.518.241-2.697 1.552-5.9 3.035-5.995 1.516-.095 2.738 1.039 1.302 2.905 4.039.078 6.48-3.158 3.274-6.364-2.433-2.344-4.616-1.592-7.546-.139a9.636 9.636 0 0 0 .813-3.848c0-3.83-1.487-4.885-3.654-9.39-2.166 4.505-3.664 5.56-3.664 9.39 0 1.34.289 2.65.813 3.848-1.506-.745-2.811-1.303-4.055-1.355-1.18-.055-2.306.35-3.491 1.496-3.206 3.206-.754 6.453 3.285 6.375-1.436-1.865-.225-3.003 1.29-2.906 1.484.095 2.805 3.289 3.047 5.985a1.567 1.567 0 0 0-1.225 1.518v.122c0 .78.566 1.41 1.312 1.529.227.488 1.221 2.862-.705 3.925-1.614.89-1.597-.696-.76-1.941-2.355-.056-3.777 2.113-1.907 4.25.69.76 1.34 1.029 2.027.997.123 0 .243-.055.369-.055l-.304.943c-.174.522.421.985.976 1.009v13.259c-8.107 4.602-15.99 9.57-23.657 14.734v-9.064c.554 0 1.149-.5.976-1.02l-.314-.931c.125 0 .245.055.368.055.688.056 1.347-.25 2.038-1.008 1.87-2.137.448-4.301-1.908-4.25.838 1.245.855 2.831-.759 1.941-1.926-1.062-.943-3.425-.715-3.914a1.563 1.563 0 0 0 1.322-1.54v-.121c0-.746-.527-1.35-1.225-1.507.242-2.697 1.553-5.901 3.036-5.996 1.516-.094 2.737 1.04 1.301 2.906 4.04.078 6.491-3.17 3.285-6.375-2.432-2.345-4.616-1.587-7.546-.14.525-1.197.8-2.506.803-3.848 0-3.83-1.488-4.885-3.654-9.389-2.166 4.504-3.654 5.559-3.654 9.39 0 1.34.29 2.65.813 3.848-1.506-.745-2.822-1.304-4.065-1.355-1.18-.056-2.307.35-3.491 1.496-3.207 3.206-.755 6.453 3.285 6.375-1.437-1.866-.215-3.004 1.3-2.906 1.484.095 2.795 3.289 3.036 5.985a1.557 1.557 0 0 0-1.214 1.518v.122c0 .78.566 1.421 1.312 1.54.228.488 1.211 2.85-.716 3.913-1.613.89-1.596-.696-.759-1.94-2.355-.056-3.778 2.112-1.908 4.25.691.76 1.35 1.04 2.039 1.008.122 0 .243-.056.368-.056l-.314.932c-.174.522.422.995.976 1.02v13.151a761.713 761.713 0 0 0-17.282 12.38c-2.2 1.62-4.21 3.12-6.375 4.728v-8.706c.554 0 1.149-.5.976-1.019l-.304-.932c.125 0 .246.055.369.055.687.056 1.347-.25 2.038-1.009 1.87-2.137.437-4.302-1.92-4.25.839 1.245.855 2.832-.758 1.941-1.927-1.062-.943-3.425-.716-3.914a1.563 1.563 0 0 0 1.323-1.54v-.121a1.54 1.54 0 0 0-1.214-1.507c.241-2.696 1.552-5.9 3.035-5.996 1.516-.094 2.738 1.04 1.301 2.906 4.04.078 6.48-3.169 3.275-6.375-2.433-2.345-4.616-1.587-7.546-.14a9.627 9.627 0 0 0 .813-3.848c0-3.83-1.498-4.884-3.665-9.389-2.166 4.505-3.653 5.559-3.653 9.39 0 1.34.289 2.65.813 3.848-1.506-.746-2.811-1.303-4.055-1.355-1.18-.056-2.306.35-3.491 1.496-3.206 3.206-.765 6.453 3.274 6.375-1.436-1.866-.215-3.003 1.301-2.906 1.484.095 2.794 3.289 3.036 5.985a1.556 1.556 0 0 0-1.214 1.518v.122c0 .78.566 1.422 1.312 1.54.227.488 1.21 2.851-.716 3.913-1.614.89-1.597-.696-.759-1.94-2.356-.056-3.778 2.113-1.908 4.25.69.761 1.35 1.04 2.038 1.008.123 0 .243-.066.369-.066l-.314.943c-.174.522.432.995.986 1.02v13.128c-8.067 6.005-16.08 11.917-23.667 17.293v-8.781c.554 0 1.16-.5.986-1.02l-.314-.932c.125 0 .246.055.368.055.688.056 1.348-.238 2.039-.997 1.87-2.138.437-4.302-1.92-4.25.838 1.244.855 2.83-.758 1.94-1.927-1.062-.932-3.426-.705-3.913a1.553 1.553 0 0 0 1.312-1.54v-.11c0-.746-.517-1.373-1.214-1.53.241-2.695 1.552-5.888 3.035-5.984 1.516-.094 2.738 1.04 1.301 2.906 4.04.078 6.48-3.159 3.275-6.364-2.433-2.346-4.616-1.598-7.546-.15a9.639 9.639 0 0 0 .813-3.849c0-3.83-1.488-4.884-3.654-9.389-2.166 4.505-3.664 5.559-3.664 9.39 0 1.34.289 2.65.813 3.848-1.506-.745-2.811-1.304-4.055-1.355-1.18-.056-2.306.35-3.491 1.496-3.206 3.206-.765 6.453 3.274 6.375-1.436-1.866-.215-3.003 1.301-2.906 1.484.095 2.794 3.29 3.036 5.985a1.557 1.557 0 0 0-1.214 1.518v.122c0 .78.566 1.41 1.311 1.529.228.488 1.222 2.861-.704 3.924-1.614.89-1.597-.696-.76-1.94-2.355-.056-3.788 2.112-1.918 4.25.69.761 1.35 1.029 2.038.997.123 0 .243.001.369-.055l-.304.932c-.174.522.422.996.976 1.02v12.998c-8.177 5.617-16.061 10.62-23.657 14.648v-9.953c.554 0 1.149-.488.976-1.008l-.315-.944c.126 0 .246.056.37.056.687.056 1.346-.239 2.037-.998 1.87-2.137.438-4.301-1.919-4.25.838 1.246.855 2.832-.759 1.941-1.926-1.062-.932-3.425-.704-3.914a1.553 1.553 0 0 0 1.312-1.539v-.122c0-.746-.518-1.362-1.215-1.518.242-2.696 1.553-5.89 3.036-5.985 1.516-.094 2.737 1.04 1.301 2.906 4.04.078 6.491-3.169 3.285-6.375-2.432-2.345-4.627-1.587-7.557-.14a9.635 9.635 0 0 0 .813-3.848c0-3.83-1.487-4.896-3.653-9.4-2.166 4.504-3.654 5.57-3.654 9.4 0 1.34.278 2.65.802 3.849-1.506-.745-2.81-1.315-4.054-1.366-1.18-.056-2.307.36-3.491 1.507-3.207 3.206-.755 6.453 3.285 6.375-1.437-1.866-.215-3.004 1.3-2.906 1.484.095 2.795 3.289 3.036 5.985a1.567 1.567 0 0 0-1.225 1.518v.122c0 .779.566 1.422 1.312 1.54.228.488 1.222 2.851-.705 3.913-1.613.89-1.596-.686-.759-1.93-2.355-.055-3.778 2.103-1.908 4.24.691.761 1.35 1.04 2.038 1.008.123 0 .244 0 .37-.067l-.315.943c-.174.522.421.996.976 1.02v12.933c-4.516 2.118-8.917 3.826-13.217 5.085v-17.803h5.15v-5.974h-10.722c.061-.99.179-1.825.401-2.211 1.037-1.795 2.6-3.577 2.602-5.79a7.765 7.765 0 0 0-7.763-7.762 7.765 7.765 0 0 0-7.762 7.762c.002 2.213 1.565 3.995 2.602 5.79.223.389.34 1.22.401 2.211h-10.722v5.974h5.16v189.95h-5.16v5.973h30.964v-5.974h-5.15v-27.961h13.216v27.961h5.985v-27.961h23.657v27.961h5.973v-27.961h23.668v27.961h5.974v-27.961h23.657v27.961h5.984v-27.961h23.657v27.961h5.974v-27.961h23.668v27.961h5.973v-27.961h23.657v27.961h5.985v-27.961h13.487v33.935h26.942v-33.935h13.487v27.961h5.985v-27.961h23.657v27.961h5.974v-27.961h23.667v27.961h5.974v-27.961h23.657v27.961h5.985v-27.961h23.656v27.961h5.974v-27.961h23.668v27.961h5.974v-27.961h23.657v27.961h5.984v-27.961h13.216v27.961h-5.15v5.974h30.954v-5.974h-5.15V137.797h5.15v-5.974h-10.712c.062-.99.178-1.825.401-2.211 1.037-1.795 2.6-3.577 2.602-5.79a7.765 7.765 0 0 0-7.762-7.762 7.765 7.765 0 0 0-7.763 7.762c.002 2.213 1.566 3.995 2.602 5.79.223.389.34 1.22.401 2.211h-10.722v5.974h5.15V155.6c-4.3-1.259-8.701-2.967-13.217-5.085V137.58c.554 0 1.15-.5.976-1.02l-.314-.943c.126 0 .245.067.369.067.687.055 1.347-.244 2.038-1.008 1.87-2.137.448-4.29-1.908-4.24.838 1.244.854 2.82-.76 1.93-1.926-1.062-.931-3.424-.704-3.914a1.545 1.545 0 0 0 1.301-1.539v-.122c0-.744-.518-1.362-1.214-1.518.241-2.696 1.552-5.888 3.036-5.985 1.515-.094 2.737 1.04 1.3 2.906 4.04.078 6.492-3.169 3.286-6.375-1.185-1.142-2.312-1.556-3.491-1.507-1.244.055-2.55.62-4.055 1.366a9.604 9.604 0 0 0 .802-3.849c0-3.83-1.487-4.896-3.654-9.4-2.166 4.504-3.653 5.57-3.653 9.4a9.623 9.623 0 0 0 .802 3.849c-2.93-1.447-5.114-2.206-7.546.139-3.206 3.206-.754 6.453 3.285 6.375-1.436-1.866-.215-3.003 1.301-2.906 1.484.094 2.794 3.29 3.036 5.985a1.556 1.556 0 0 0-1.214 1.518v.122c0 .78.565 1.421 1.311 1.54.228.488 1.211 2.85-.715 3.913-1.614.89-1.586-.695-.748-1.94-2.356-.056-3.79 2.112-1.92 4.25.692.762 1.351 1.03 2.04.997.122 0 .242.001.368-.056l-.315.944c-.173.521.422.981.976 1.008v9.953c-7.595-4.028-15.48-9.031-23.657-14.647v-13c.554 0 1.15-.5.976-1.019l-.303-.932c.124 0 .245.055.368.055.688.056 1.347-.239 2.038-.997 1.87-2.138.437-4.301-1.919-4.25.838 1.244.855 2.83-.759 1.94-1.926-1.063-.932-3.436-.704-3.924a1.547 1.547 0 0 0 1.312-1.529v-.122c0-.745-.518-1.362-1.215-1.518.242-2.696 1.553-5.888 3.036-5.985 1.516-.094 2.737 1.04 1.301 2.906 4.04.078 6.48-3.169 3.274-6.375-1.185-1.143-2.312-1.544-3.49-1.496-1.245.055-2.55.61-4.056 1.355a9.614 9.614 0 0 0 .813-3.849c0-3.83-1.498-4.884-3.664-9.389-2.166 4.505-3.654 5.559-3.654 9.39a9.64 9.64 0 0 0 .813 3.848c-2.93-1.448-5.113-2.195-7.546.15-3.206 3.205-.764 6.442 3.275 6.364-1.437-1.866-.215-3.003 1.3-2.906 1.484.094 2.795 3.289 3.036 5.984a1.567 1.567 0 0 0-1.214 1.53v.11c0 .78.566 1.42 1.312 1.54.228.488 1.222 2.85-.705 3.914-1.613.89-1.596-.697-.759-1.941-2.356-.056-3.789 2.112-1.919 4.25.691.763 1.35 1.03 2.039.997.122 0 .243.002.368-.055l-.314.932c-.174.522.432.992.987 1.02v8.781c-7.587-5.376-15.601-11.288-23.668-17.292V98.23c.554 0 1.16-.5.987-1.019l-.315-.943c.125 0 .246.066.369.066.688.056 1.347-.25 2.038-1.008 1.87-2.137.448-4.302-1.908-4.25.838 1.244.855 2.83-.759 1.94-1.926-1.062-.943-3.425-.715-3.914a1.554 1.554 0 0 0 1.312-1.539v-.122c0-.745-.519-1.362-1.215-1.518.242-2.696 1.553-5.888 3.036-5.985 1.516-.094 2.737 1.04 1.3 2.906 4.04.078 6.481-3.169 3.275-6.375-1.185-1.142-2.312-1.544-3.49-1.496-1.245.055-2.55.61-4.056 1.355a9.614 9.614 0 0 0 .813-3.849c0-3.83-1.487-4.884-3.653-9.389-2.167 4.505-3.665 5.56-3.665 9.39a9.638 9.638 0 0 0 .813 3.848c-2.93-1.448-5.113-2.206-7.546.139-3.206 3.206-.764 6.453 3.275 6.375-1.437-1.866-.215-3.003 1.3-2.906 1.484.094 2.795 3.3 3.036 5.996a1.543 1.543 0 0 0-1.214 1.507v.122c0 .78.577 1.421 1.323 1.54.227.488 1.21 2.85-.716 3.913-1.613.89-1.596-.696-.759-1.94-2.356-.056-3.789 2.112-1.919 4.25.691.762 1.35 1.04 2.039 1.008.122 0 .243.001.368-.055l-.304.932c-.173.522.422.992.976 1.02v8.705c-2.166-1.608-4.175-3.109-6.375-4.727a761.464 761.464 0 0 0-17.282-12.381v-13.15c.554 0 1.15-.5.976-1.02l-.314-.932c.125 0 .245.056.369.056.687.055 1.347-.25 2.038-1.008 1.87-2.138.448-4.301-1.908-4.25.838 1.244.854 2.83-.76 1.94-1.926-1.063-.942-3.425-.715-3.914a1.554 1.554 0 0 0 1.312-1.539v-.122c0-.745-.518-1.362-1.214-1.518.241-2.696 1.552-5.888 3.036-5.985 1.515-.094 2.737 1.04 1.3 2.906 4.04.078 6.48-3.169 3.275-6.375-1.185-1.142-2.301-1.544-3.48-1.496-1.244.055-2.56.61-4.066 1.355a9.612 9.612 0 0 0 .813-3.849c0-3.83-1.487-4.885-3.654-9.389-2.166 4.504-3.653 5.559-3.653 9.39a9.624 9.624 0 0 0 .802 3.848c-2.93-1.447-5.114-2.205-7.546.139-3.206 3.206-.754 6.453 3.285 6.375-1.436-1.866-.225-3.003 1.29-2.906 1.484.094 2.805 3.3 3.047 5.996-.697.16-1.225.761-1.225 1.507v.122c0 .78.576 1.42 1.322 1.54.228.488 1.212 2.85-.715 3.913-1.614.89-1.597-.696-.76-1.94-2.355-.056-3.777 2.112-1.907 4.25.69.761 1.35 1.04 2.038 1.007.123 0 .243.002.369-.055l-.315.932c-.173.522.422.992.976 1.02v9.063c-7.667-5.164-15.55-10.132-23.657-14.734V57.744c.554 0 1.15-.489.976-1.009l-.314-.943c.125 0 .245.055.368.055.688.056 1.348-.238 2.039-.997 1.87-2.137.448-4.301-1.908-4.25.837 1.245.854 2.831-.76 1.94-1.926-1.062-.931-3.436-.704-3.924a1.543 1.543 0 0 0 1.312-1.529v-.122c0-.745-.53-1.361-1.225-1.518.241-2.696 1.552-5.887 3.035-5.985 1.516-.094 2.738 1.04 1.301 2.906 4.04.078 6.492-3.169 3.285-6.375-1.184-1.142-2.311-1.544-3.49-1.496-1.244.056-2.55.61-4.055 1.355a9.595 9.595 0 0 0 .802-3.848c0-3.83-1.487-4.885-3.654-9.39-2.166 4.505-3.654 5.56-3.654 9.39a9.624 9.624 0 0 0 .803 3.848c-2.93-1.448-5.114-2.2-7.546.139-3.206 3.206-.754 6.442 3.285 6.364-1.436-1.866-.215-3.002 1.3-2.905 1.484.094 2.795 3.298 3.037 5.995a1.551 1.551 0 0 0-1.215 1.518v.122c0 .78.566 1.421 1.312 1.54.228.488 1.222 2.851-.705 3.913-1.613.89-1.596-.696-.758-1.94-2.356-.056-3.79 2.112-1.92 4.25.692.762 1.351 1.03 2.039.997.123 0 .243.001.368-.055l-.314.943c-.173.522.422.981.976 1.008v9.964c-7.682-4.117-15.56-7.858-23.657-11.07V43.518c.554 0 1.15-.5.976-1.02l-.304-.932c.125 0 .246.056.369.056.688.055 1.347-.25 2.038-1.009 1.87-2.138.437-4.29-1.919-4.239.838 1.244.855 2.82-.759 1.93-1.926-1.063-.932-3.425-.705-3.914a1.559 1.559 0 0 0 1.312-1.54v-.105c0-.745-.518-1.362-1.214-1.518.242-2.696 1.552-5.897 3.036-5.995 1.515-.095 2.737 1.04 1.3 2.905 4.04.078 6.481-3.158 3.275-6.364-1.185-1.142-2.312-1.555-3.491-1.507-1.244.055-2.549.61-4.055 1.355a9.563 9.563 0 0 0 .813-3.838c0-3.83-1.498-4.896-3.664-9.4-2.167 4.504-3.654 5.57-3.654 9.4a9.588 9.588 0 0 0 .813 3.838c-2.93-1.447-5.113-2.195-7.546.15-3.206 3.207-.765 6.454 3.275 6.376-1.437-1.867-.215-3.014 1.3-2.917 1.484.095 2.795 3.3 3.036 5.995a1.556 1.556 0 0 0-1.214 1.518v.123c0 .779.566 1.42 1.312 1.539.227.488 1.222 2.851-.705 3.914-1.613.89-1.597-.696-.759-1.94-2.356-.056-3.789 2.112-1.919 4.25.691.761 1.35 1.04 2.038 1.007.123 0 .244.002.369-.055l-.314.932c-.173.521.432.992.986 1.019v10.82a167.807 167.807 0 0 0-23.667-6.591V35.009c.554 0 1.16-.5.986-1.019l-.314-.943c.125 0 .246.056.369.056.688.055 1.347-.239 2.038-.998 1.87-2.137.448-4.301-1.908-4.25.838 1.244.854 2.831-.759 1.941-1.927-1.063-.943-3.425-.716-3.914a1.554 1.554 0 0 0 1.312-1.54v-.121c0-.745-.518-1.362-1.214-1.518.242-2.696 1.552-5.888 3.036-5.985 1.515-.094 2.737 1.04 1.3 2.906 4.04.077 6.481-3.169 3.275-6.375-1.185-1.142-2.312-1.545-3.491-1.497-1.244.056-2.549.611-4.055 1.356a9.561 9.561 0 0 0 .813-3.838c0-3.83-1.487-4.896-3.653-9.4-2.165 4.5-3.665 5.56-3.665 9.389a9.643 9.643 0 0 0 .813 3.849c-2.93-1.448-5.113-2.206-7.546.139-3.206 3.206-.765 6.453 3.274 6.375-1.436-1.867-.214-3.014 1.302-2.917 1.483.094 2.794 3.3 3.035 5.996a1.55 1.55 0 0 0-1.214 1.517v.106c0 .78.577 1.42 1.323 1.54.227.488 1.21 2.85-.716 3.914-1.613.89-1.597-.686-.759-1.93-2.356-.056-3.789 2.101-1.919 4.239.691.763 1.35 1.04 2.038 1.008.123 0 .244 0 .369-.067l-.304.943c-.173.522.422.992.976 1.02v11.698c-4.442-.706-8.924-1.27-13.487-1.561h-26.942c-4.563.294-9.045.855-13.487 1.56V34.992c.554 0 1.149-.5.976-1.02l-.315-.943c.126 0 .246.067.369.067.688.055 1.347-.244 2.038-1.008 1.87-2.138.438-4.292-1.919-4.24.838 1.245.855 2.821-.759 1.93-1.926-1.062-.932-3.425-.704-3.913a1.558 1.558 0 0 0 1.311-1.54v-.106a1.55 1.55 0 0 0-1.214-1.517c.242-2.696 1.552-5.9 3.036-5.996 1.515-.094 2.737 1.05 1.3 2.917 4.04.077 6.492-3.169 3.286-6.375-2.432-2.346-4.627-1.588-7.557-.139a9.631 9.631 0 0 0 .813-3.85c0-3.829-1.488-4.888-3.653-9.388zm16.48 53.374v12.783c-4.562.294-9.044.876-13.487 1.593V54.914c4.446-.754 8.931-1.358 13.487-1.67zm26.942 0c4.555.31 9.04.916 13.487 1.67V67.62c-4.443-.717-8.926-1.297-13.487-1.593V53.244zm-46.414 2.808v12.641c-8.077 1.643-15.96 3.895-23.657 6.69V63.045c7.715-2.912 15.597-5.275 23.657-6.993zm65.885 0c8.06 1.718 15.942 4.08 23.657 6.993v12.338c-7.696-2.795-15.58-5.047-23.657-6.69v-12.64zm-95.516 9.335v12.305c-8.09 3.248-15.98 7.029-23.667 11.19V76.965c7.711-4.291 15.599-8.22 23.667-11.58zm125.147 0c8.068 3.36 15.956 7.288 23.668 11.58V88.88c-7.688-4.16-15.578-7.94-23.668-11.189V65.387zm-76.044 4.694v12.783c-4.563.294-9.046.866-13.487 1.572V71.72c4.445-.741 8.929-1.331 13.487-1.638zm26.942 0c4.558.306 9.041.897 13.487 1.638v12.717c-4.442-.706-8.924-1.28-13.487-1.572V70.081zm-46.414 2.754v12.642c-8.08 1.619-15.968 3.846-23.657 6.602V79.731c7.708-2.873 15.591-5.203 23.657-6.896zm65.885 0c8.066 1.693 15.95 4.023 23.657 6.896v12.348c-7.689-2.756-15.577-4.983-23.657-6.602V72.835zM494.84 80.36v11.85c-8.098 4.638-15.981 9.644-23.657 14.843V95.538c7.71-5.308 15.582-10.435 23.657-15.179zm184.43 0c8.075 4.744 15.946 9.871 23.656 15.18v11.513c-7.675-5.199-15.559-10.205-23.656-14.842V80.36zm-29.642 1.68c8.076 3.322 15.965 7.192 23.668 11.44v11.958c-7.682-4.118-15.57-7.848-23.668-11.059v-12.34zm-125.147 0v12.33c-8.097 3.21-15.986 6.941-23.667 11.059v-11.96c7.702-4.247 15.592-8.105 23.667-11.427zm49.103 8.913v202.85h-13.487V92.622c4.446-.754 8.931-1.358 13.487-1.67zm26.942 0c4.555.31 9.04.916 13.487 1.67v201.18h-13.487V90.952zM554.11 93.76v200.042h-23.657v-193.05c7.715-2.912 15.597-5.275 23.657-6.992zm65.885 0c8.06 1.717 15.942 4.08 23.657 6.993v193.049h-23.657V93.76zM494.84 96.87v11.861c-8.107 4.603-15.99 9.56-23.657 14.723v-11.523c7.697-5.27 15.575-10.352 23.657-15.06zm184.43 0c8.081 4.708 15.96 9.79 23.656 15.06v11.525c-7.667-5.164-15.55-10.12-23.656-14.723v-11.86zm-214.072 2.84v11.439a772.271 772.271 0 0 0-16.078 11.547c-2.61 1.922-5.014 3.718-7.579 5.627V117.08c3.744-2.813 7.343-5.535 11.178-8.359a809.13 809.13 0 0 1 12.48-9.01zm243.713 0a809.704 809.704 0 0 1 12.49 9.01c3.835 2.824 7.423 5.546 11.167 8.36v11.243c-2.564-1.91-4.968-3.705-7.578-5.627a772.267 772.267 0 0 0-16.079-11.547V99.712zm-184.43 3.384v190.707h-23.667V114.674c7.711-4.291 15.599-8.22 23.667-11.58zm125.147 0c8.068 3.36 15.956 7.288 23.668 11.579v179.128h-23.668V103.095zm-184.43 12.977v11.482a765.34 765.34 0 0 0-17.282 12.381c-2.199 1.62-4.209 3.108-6.375 4.716v-11.253c3.352-2.51 6.548-4.914 9.975-7.437 4.498-3.312 9.053-6.628 13.682-9.888zm243.713 0c4.63 3.26 9.184 6.576 13.682 9.888 3.427 2.523 6.623 4.926 9.975 7.437v11.255a1908.585 1908.585 0 0 0-6.375-4.716 765.089 765.089 0 0 0-17.282-12.381v-11.482zm-214.071 1.995v175.735h-23.657V133.256c7.71-5.307 15.582-10.445 23.657-15.189zm184.43 0c8.075 4.744 15.946 9.881 23.656 15.19v160.545H679.27V118.067zm-243.702 3.48v11.21c-8.052 6.01-16.065 11.937-23.668 17.315v-11.156c7.663-5.372 15.664-11.346 23.668-17.369zm302.974 0c8.003 6.023 16.005 11.997 23.667 17.369v11.156c-7.602-5.378-15.615-11.306-23.667-17.314v-11.21zM465.198 137.43V293.8H441.54v-139c3.744-2.814 7.343-5.534 11.178-8.36a820.481 820.481 0 0 1 12.48-9.008zm243.713 0a817.24 817.24 0 0 1 12.49 9.009c3.835 2.825 7.423 5.545 11.167 8.36v139.002H708.91V137.43zm-273.343.433v11.21c-8.067 6.005-16.081 11.917-23.668 17.293V155.2c7.64-5.375 15.647-11.318 23.668-17.336zm302.974 0c8.02 6.018 16.027 11.96 23.667 17.336v11.167c-7.587-5.376-15.6-11.288-23.667-17.293v-11.21zm-332.616 5.16v11.243c-8.134 5.562-16.022 10.518-23.657 14.485v-11.828c7.77-3.78 15.636-8.509 23.657-13.9zm362.257 0c8.021 5.391 15.888 10.12 23.657 13.9v11.828c-7.635-3.967-15.522-8.923-23.657-14.485v-11.243zm-332.615 16.242V293.8H411.9V176.634c7.663-5.372 15.664-11.346 23.668-17.368zm302.974 0c8.003 6.022 16.005 11.996 23.667 17.368V293.8h-23.667V159.266zm-332.616.077v11.254c-8.177 5.615-16.061 10.608-23.657 14.636V173.45c7.725-3.844 15.597-8.653 23.657-14.106zm362.257 0c8.06 5.453 15.932 10.262 23.657 14.105v11.785c-7.596-4.028-15.48-9.02-23.657-14.636v-11.254zm-391.898.283v12.057c-4.495 2.053-8.891 3.677-13.217 4.89v-12.436c4.384-1.083 8.786-2.647 13.217-4.51zm421.54 0c4.43 1.864 8.832 3.429 13.216 4.511v12.436c-4.325-1.213-8.721-2.837-13.216-4.89v-12.057zm-421.54 16.6v12.002c-4.516 2.117-8.917 3.826-13.217 5.085v-12.436c4.364-1.123 8.769-2.728 13.217-4.651zm421.54 0c4.448 1.923 8.853 3.527 13.216 4.65v12.436c-4.3-1.258-8.701-2.967-13.216-5.085v-12zm-391.899 4.52v113.048h-23.657v-99.149c7.77-3.779 15.636-8.507 23.657-13.899zm362.257 0c8.021 5.392 15.888 10.12 23.657 13.9v99.148h-23.657V180.746zm-391.898 16.61v96.438h-13.217v-91.938c4.384-1.082 8.786-2.637 13.217-4.5zm421.54 0c4.43 1.863 8.832 3.418 13.216 4.5v91.938h-13.216v-96.438z" color="#000" font-weight="400" font-family="sans-serif" white-space="normal" overflow="visible" fill-rule="evenodd"/><path d="M1025.103-.13c-2.166 4.504-3.653 5.57-3.653 9.4 0 1.34.289 2.64.813 3.838-1.507-.745-2.822-1.305-4.066-1.356-1.18-.055-2.296.35-3.48 1.497-3.206 3.206-.765 6.453 3.274 6.375-1.436-1.866-.215-3.003 1.301-2.906 1.483.095 2.794 3.29 3.036 5.985a1.556 1.556 0 0 0-1.215 1.518v.122c0 .779.567 1.421 1.312 1.539.228.488 1.211 2.851-.715 3.914-1.614.89-1.597-.697-.76-1.94-2.355-.056-3.777 2.112-1.907 4.25.69.76 1.35 1.029 2.038.997.123 0 .243-.056.368-.056l-.314.943c-.173.522.433.996.987 1.02v12.75a167.809 167.809 0 0 0-23.668 6.591V43.53c.554 0 1.15-.499.976-1.018l-.304-.932c.125 0 .246.055.369.055.688.056 1.347-.25 2.038-1.008 1.87-2.137.438-4.302-1.919-4.25.838 1.245.855 2.83-.759 1.94-1.926-1.062-.932-3.425-.704-3.913a1.554 1.554 0 0 0 1.311-1.54v-.122c0-.745-.517-1.362-1.214-1.518.242-2.696 1.552-5.9 3.036-5.995 1.515-.094 2.737 1.05 1.3 2.917 4.04.077 6.481-3.169 3.275-6.376-2.432-2.344-4.616-1.597-7.546-.15a9.587 9.587 0 0 0 .813-3.838c0-3.83-1.498-4.896-3.664-9.4-2.166 4.504-3.654 5.57-3.654 9.4 0 1.341.29 2.64.813 3.838-1.506-.745-2.81-1.303-4.055-1.355-1.179-.056-2.306.36-3.49 1.507-3.207 3.206-.766 6.442 3.274 6.364-1.437-1.865-.215-3.002 1.3-2.905 1.484.094 2.795 3.299 3.036 5.995a1.557 1.557 0 0 0-1.214 1.518v.106c0 .779.566 1.42 1.312 1.54.227.488 1.21 2.85-.716 3.913-1.613.89-1.586-.686-.748-1.93-2.356-.055-3.789 2.101-1.919 4.24.691.76 1.35 1.04 2.038 1.008.123 0 .244-.056.37-.056l-.305.933c-.173.522.422.995.976 1.019v13.119c-8.097 3.211-15.975 6.952-23.657 11.069v-9.963c.554 0 1.15-.49.976-1.01l-.314-.942c.125 0 .246.055.369.055.687.056 1.347-.239 2.038-.997 1.87-2.138.437-4.302-1.92-4.25.839 1.244.855 2.83-.758 1.94-1.927-1.062-.932-3.425-.705-3.914a1.553 1.553 0 0 0 1.312-1.539v-.122c0-.745-.517-1.362-1.214-1.518.241-2.697 1.552-5.9 3.035-5.995 1.516-.095 2.738 1.039 1.302 2.905 4.039.078 6.48-3.158 3.274-6.364-2.433-2.344-4.616-1.592-7.546-.139a9.636 9.636 0 0 0 .813-3.848c0-3.83-1.487-4.885-3.654-9.39-2.166 4.505-3.664 5.56-3.664 9.39 0 1.34.289 2.65.813 3.848-1.506-.745-2.811-1.303-4.055-1.355-1.18-.055-2.306.35-3.491 1.496-3.206 3.206-.754 6.453 3.285 6.375-1.436-1.865-.225-3.003 1.29-2.906 1.484.095 2.805 3.289 3.047 5.985a1.567 1.567 0 0 0-1.225 1.518v.122c0 .78.566 1.41 1.312 1.529.227.488 1.221 2.862-.705 3.925-1.614.89-1.597-.696-.76-1.941-2.355-.056-3.777 2.113-1.907 4.25.69.76 1.34 1.029 2.027.997.123 0 .243-.055.369-.055l-.304.943c-.174.522.421.985.976 1.009v13.259c-8.107 4.602-15.99 9.57-23.657 14.734v-9.064c.554 0 1.149-.5.976-1.02l-.314-.931c.125 0 .245.055.368.055.688.056 1.347-.25 2.038-1.008 1.87-2.137.448-4.301-1.908-4.25.838 1.245.855 2.831-.759 1.941-1.926-1.062-.943-3.425-.715-3.914a1.563 1.563 0 0 0 1.322-1.54v-.121c0-.746-.527-1.35-1.225-1.507.242-2.697 1.553-5.901 3.036-5.996 1.516-.094 2.737 1.04 1.301 2.906 4.04.078 6.491-3.17 3.285-6.375-2.432-2.345-4.616-1.587-7.546-.14.525-1.197.8-2.506.803-3.848 0-3.83-1.488-4.885-3.654-9.389-2.166 4.504-3.654 5.559-3.654 9.39 0 1.34.29 2.65.813 3.848-1.506-.745-2.822-1.304-4.065-1.355-1.18-.056-2.307.35-3.491 1.496-3.207 3.206-.755 6.453 3.285 6.375-1.437-1.866-.215-3.004 1.3-2.906 1.484.095 2.795 3.289 3.036 5.985a1.557 1.557 0 0 0-1.214 1.518v.122c0 .78.566 1.421 1.312 1.54.228.488 1.211 2.85-.716 3.913-1.613.89-1.596-.696-.759-1.94-2.355-.056-3.778 2.112-1.908 4.25.691.76 1.35 1.04 2.039 1.008.122 0 .243-.056.368-.056l-.314.932c-.174.522.422.995.976 1.02v13.151a761.713 761.713 0 0 0-17.282 12.38c-2.2 1.62-4.21 3.12-6.375 4.728v-8.706c.554 0 1.149-.5.976-1.019l-.304-.932c.125 0 .246.055.369.055.687.056 1.347-.25 2.038-1.009 1.87-2.137.437-4.302-1.92-4.25.839 1.245.855 2.832-.758 1.941-1.927-1.062-.943-3.425-.716-3.914a1.563 1.563 0 0 0 1.323-1.54v-.121a1.54 1.54 0 0 0-1.214-1.507c.241-2.696 1.552-5.9 3.035-5.996 1.516-.094 2.738 1.04 1.301 2.906 4.04.078 6.48-3.169 3.275-6.375-2.433-2.345-4.616-1.587-7.546-.14a9.627 9.627 0 0 0 .813-3.848c0-3.83-1.498-4.884-3.665-9.389-2.166 4.505-3.653 5.559-3.653 9.39 0 1.34.289 2.65.813 3.848-1.506-.746-2.811-1.303-4.055-1.355-1.18-.056-2.306.35-3.491 1.496-3.206 3.206-.765 6.453 3.274 6.375-1.436-1.866-.215-3.003 1.301-2.906 1.484.095 2.794 3.289 3.036 5.985a1.556 1.556 0 0 0-1.214 1.518v.122c0 .78.566 1.422 1.312 1.54.227.488 1.21 2.851-.716 3.913-1.614.89-1.597-.696-.759-1.94-2.356-.056-3.778 2.113-1.908 4.25.69.761 1.35 1.04 2.038 1.008.123 0 .243-.066.369-.066l-.314.943c-.174.522.432.995.986 1.02v13.128c-8.067 6.005-16.08 11.917-23.667 17.293v-8.781c.554 0 1.16-.5.986-1.02l-.314-.932c.125 0 .246.055.368.055.688.056 1.348-.238 2.039-.997 1.87-2.138.437-4.302-1.92-4.25.838 1.244.855 2.83-.758 1.94-1.927-1.062-.932-3.426-.705-3.913a1.553 1.553 0 0 0 1.312-1.54v-.11c0-.746-.517-1.373-1.214-1.53.241-2.695 1.552-5.888 3.035-5.984 1.516-.094 2.738 1.04 1.301 2.906 4.04.078 6.48-3.159 3.275-6.364-2.433-2.346-4.616-1.598-7.546-.15a9.639 9.639 0 0 0 .813-3.849c0-3.83-1.488-4.884-3.654-9.389-2.166 4.505-3.664 5.559-3.664 9.39 0 1.34.289 2.65.813 3.848-1.506-.745-2.811-1.304-4.055-1.355-1.18-.056-2.306.35-3.491 1.496-3.206 3.206-.765 6.453 3.274 6.375-1.436-1.866-.215-3.003 1.301-2.906 1.484.095 2.794 3.29 3.036 5.985a1.557 1.557 0 0 0-1.214 1.518v.122c0 .78.566 1.41 1.311 1.529.228.488 1.222 2.861-.704 3.924-1.614.89-1.597-.696-.76-1.94-2.355-.056-3.788 2.112-1.918 4.25.69.761 1.35 1.029 2.038.997.123 0 .243.001.369-.055l-.304.932c-.174.522.422.996.976 1.02v12.998c-8.177 5.617-16.061 10.62-23.657 14.648v-9.953c.554 0 1.149-.488.976-1.008l-.315-.944c.126 0 .246.056.37.056.687.056 1.346-.239 2.037-.998 1.87-2.137.438-4.301-1.919-4.25.838 1.246.855 2.832-.759 1.941-1.926-1.062-.932-3.425-.704-3.914a1.553 1.553 0 0 0 1.312-1.539v-.122c0-.746-.518-1.362-1.215-1.518.242-2.696 1.553-5.89 3.036-5.985 1.516-.094 2.737 1.04 1.301 2.906 4.04.078 6.491-3.169 3.285-6.375-2.432-2.345-4.627-1.587-7.557-.14a9.635 9.635 0 0 0 .813-3.848c0-3.83-1.487-4.896-3.653-9.4-2.166 4.504-3.654 5.57-3.654 9.4 0 1.34.278 2.65.802 3.849-1.506-.745-2.81-1.315-4.054-1.366-1.18-.056-2.307.36-3.491 1.507-3.207 3.206-.755 6.453 3.285 6.375-1.437-1.866-.215-3.004 1.3-2.906 1.484.095 2.795 3.289 3.036 5.985a1.567 1.567 0 0 0-1.225 1.518v.122c0 .779.566 1.422 1.312 1.54.228.488 1.222 2.851-.705 3.913-1.613.89-1.596-.686-.759-1.93-2.355-.055-3.778 2.103-1.908 4.24.691.761 1.35 1.04 2.038 1.008.123 0 .244 0 .37-.067l-.315.943c-.174.522.421.996.976 1.02v12.933c-4.516 2.118-8.917 3.826-13.217 5.085v-17.803h5.15v-5.974h-10.722c.061-.99.179-1.825.401-2.211 1.037-1.795 2.6-3.577 2.602-5.79a7.765 7.765 0 0 0-7.763-7.762 7.765 7.765 0 0 0-7.762 7.762c.002 2.213 1.565 3.995 2.602 5.79.223.389.34 1.22.401 2.211h-10.722v5.974h5.16v189.95h-5.16v5.973h30.964v-5.974h-5.15v-27.961h13.216v27.961h5.985v-27.961h23.657v27.961h5.973v-27.961h23.668v27.961h5.974v-27.961h23.657v27.961h5.984v-27.961h23.657v27.961h5.974v-27.961h23.668v27.961h5.973v-27.961h23.657v27.961h5.985v-27.961h13.487v33.935h26.942v-33.935h13.487v27.961h5.985v-27.961h23.657v27.961h5.974v-27.961h23.667v27.961h5.974v-27.961h23.657v27.961h5.985v-27.961h23.656v27.961h5.974v-27.961h23.668v27.961h5.974v-27.961h23.657v27.961h5.984v-27.961h13.216v27.961h-5.15v5.974h30.954v-5.974h-5.15V137.797h5.15v-5.974h-10.712c.062-.99.178-1.825.401-2.211 1.037-1.795 2.6-3.577 2.602-5.79a7.765 7.765 0 0 0-7.762-7.762 7.765 7.765 0 0 0-7.763 7.762c.002 2.213 1.566 3.995 2.602 5.79.223.389.34 1.22.401 2.211h-10.722v5.974h5.15V155.6c-4.3-1.259-8.701-2.967-13.217-5.085V137.58c.554 0 1.15-.5.976-1.02l-.314-.943c.126 0 .245.067.369.067.687.055 1.347-.244 2.038-1.008 1.87-2.137.448-4.29-1.908-4.24.838 1.244.854 2.82-.76 1.93-1.926-1.062-.931-3.424-.704-3.914a1.545 1.545 0 0 0 1.301-1.539v-.122c0-.744-.518-1.362-1.214-1.518.241-2.696 1.552-5.888 3.036-5.985 1.515-.094 2.737 1.04 1.3 2.906 4.04.078 6.492-3.169 3.286-6.375-1.185-1.142-2.312-1.556-3.491-1.507-1.244.055-2.55.62-4.055 1.366a9.604 9.604 0 0 0 .802-3.849c0-3.83-1.487-4.896-3.654-9.4-2.166 4.504-3.653 5.57-3.653 9.4a9.623 9.623 0 0 0 .802 3.849c-2.93-1.447-5.114-2.206-7.546.139-3.206 3.206-.754 6.453 3.285 6.375-1.436-1.866-.215-3.003 1.301-2.906 1.484.094 2.794 3.29 3.036 5.985a1.556 1.556 0 0 0-1.214 1.518v.122c0 .78.565 1.421 1.311 1.54.228.488 1.211 2.85-.715 3.913-1.614.89-1.586-.695-.748-1.94-2.356-.056-3.79 2.112-1.92 4.25.692.762 1.351 1.03 2.04.997.122 0 .242.001.368-.056l-.315.944c-.173.521.422.981.976 1.008v9.953c-7.595-4.028-15.48-9.031-23.657-14.647v-13c.554 0 1.15-.5.976-1.019l-.303-.932c.124 0 .245.055.368.055.688.056 1.347-.239 2.038-.997 1.87-2.138.437-4.301-1.919-4.25.838 1.244.855 2.83-.759 1.94-1.926-1.063-.932-3.436-.704-3.924a1.547 1.547 0 0 0 1.312-1.529v-.122c0-.745-.518-1.362-1.215-1.518.242-2.696 1.553-5.888 3.036-5.985 1.516-.094 2.737 1.04 1.301 2.906 4.04.078 6.48-3.169 3.274-6.375-1.185-1.143-2.312-1.544-3.49-1.496-1.245.055-2.55.61-4.056 1.355a9.614 9.614 0 0 0 .813-3.849c0-3.83-1.498-4.884-3.664-9.389-2.166 4.505-3.654 5.559-3.654 9.39a9.64 9.64 0 0 0 .813 3.848c-2.93-1.448-5.113-2.195-7.546.15-3.206 3.205-.764 6.442 3.275 6.364-1.437-1.866-.215-3.003 1.3-2.906 1.484.094 2.795 3.289 3.036 5.984a1.567 1.567 0 0 0-1.214 1.53v.11c0 .78.566 1.42 1.312 1.54.228.488 1.222 2.85-.705 3.914-1.613.89-1.596-.697-.759-1.941-2.356-.056-3.789 2.112-1.919 4.25.691.763 1.35 1.03 2.039.997.122 0 .243.002.368-.055l-.314.932c-.174.522.432.992.987 1.02v8.781c-7.587-5.376-15.601-11.288-23.668-17.292V98.23c.554 0 1.16-.5.987-1.019l-.315-.943c.125 0 .246.066.369.066.688.056 1.347-.25 2.038-1.008 1.87-2.137.448-4.302-1.908-4.25.838 1.244.855 2.83-.759 1.94-1.926-1.062-.943-3.425-.715-3.914a1.554 1.554 0 0 0 1.312-1.539v-.122c0-.745-.519-1.362-1.215-1.518.242-2.696 1.553-5.888 3.036-5.985 1.516-.094 2.737 1.04 1.3 2.906 4.04.078 6.481-3.169 3.275-6.375-1.185-1.142-2.312-1.544-3.49-1.496-1.245.055-2.55.61-4.056 1.355a9.614 9.614 0 0 0 .813-3.849c0-3.83-1.487-4.884-3.653-9.389-2.167 4.505-3.665 5.56-3.665 9.39a9.638 9.638 0 0 0 .813 3.848c-2.93-1.448-5.113-2.206-7.546.139-3.206 3.206-.764 6.453 3.275 6.375-1.437-1.866-.215-3.003 1.3-2.906 1.484.094 2.795 3.3 3.036 5.996a1.543 1.543 0 0 0-1.214 1.507v.122c0 .78.577 1.421 1.323 1.54.227.488 1.21 2.85-.716 3.913-1.613.89-1.596-.696-.759-1.94-2.356-.056-3.789 2.112-1.919 4.25.691.762 1.35 1.04 2.039 1.008.122 0 .243.001.368-.055l-.304.932c-.173.522.422.992.976 1.02v8.705c-2.166-1.608-4.175-3.109-6.375-4.727a761.464 761.464 0 0 0-17.282-12.381v-13.15c.554 0 1.15-.5.976-1.02l-.314-.932c.125 0 .245.056.369.056.687.055 1.347-.25 2.038-1.008 1.87-2.138.448-4.301-1.908-4.25.838 1.244.854 2.83-.76 1.94-1.926-1.063-.942-3.425-.715-3.914a1.554 1.554 0 0 0 1.312-1.539v-.122c0-.745-.518-1.362-1.214-1.518.241-2.696 1.552-5.888 3.036-5.985 1.515-.094 2.737 1.04 1.3 2.906 4.04.078 6.48-3.169 3.275-6.375-1.185-1.142-2.301-1.544-3.48-1.496-1.244.055-2.56.61-4.066 1.355a9.612 9.612 0 0 0 .813-3.849c0-3.83-1.487-4.885-3.654-9.389-2.166 4.504-3.653 5.559-3.653 9.39a9.624 9.624 0 0 0 .802 3.848c-2.93-1.447-5.114-2.205-7.546.139-3.206 3.206-.754 6.453 3.285 6.375-1.436-1.866-.225-3.003 1.29-2.906 1.484.094 2.805 3.3 3.047 5.996-.697.16-1.225.761-1.225 1.507v.122c0 .78.576 1.42 1.322 1.54.228.488 1.212 2.85-.715 3.913-1.614.89-1.597-.696-.76-1.94-2.355-.056-3.777 2.112-1.907 4.25.69.761 1.35 1.04 2.038 1.007.123 0 .243.002.369-.055l-.315.932c-.173.522.422.992.976 1.02v9.063c-7.667-5.164-15.55-10.132-23.657-14.734V57.744c.554 0 1.15-.489.976-1.009l-.314-.943c.125 0 .245.055.368.055.688.056 1.348-.238 2.039-.997 1.87-2.137.448-4.301-1.908-4.25.837 1.245.854 2.831-.76 1.94-1.926-1.062-.931-3.436-.704-3.924a1.543 1.543 0 0 0 1.312-1.529v-.122c0-.745-.53-1.361-1.225-1.518.241-2.696 1.552-5.887 3.035-5.985 1.516-.094 2.738 1.04 1.301 2.906 4.04.078 6.492-3.169 3.285-6.375-1.184-1.142-2.311-1.544-3.49-1.496-1.244.056-2.55.61-4.055 1.355a9.595 9.595 0 0 0 .802-3.848c0-3.83-1.487-4.885-3.654-9.39-2.166 4.505-3.654 5.56-3.654 9.39a9.624 9.624 0 0 0 .803 3.848c-2.93-1.448-5.114-2.2-7.546.139-3.206 3.206-.754 6.442 3.285 6.364-1.436-1.866-.215-3.002 1.3-2.905 1.484.094 2.795 3.298 3.037 5.995a1.551 1.551 0 0 0-1.215 1.518v.122c0 .78.566 1.421 1.312 1.54.228.488 1.222 2.851-.705 3.913-1.613.89-1.596-.696-.758-1.94-2.356-.056-3.79 2.112-1.92 4.25.692.762 1.351 1.03 2.039.997.123 0 .243.001.368-.055l-.314.943c-.173.522.422.981.976 1.008v9.964c-7.682-4.117-15.56-7.858-23.657-11.07V43.518c.554 0 1.15-.5.976-1.02l-.304-.932c.125 0 .246.056.369.056.688.055 1.347-.25 2.038-1.009 1.87-2.138.437-4.29-1.919-4.239.838 1.244.855 2.82-.759 1.93-1.926-1.063-.932-3.425-.705-3.914a1.559 1.559 0 0 0 1.312-1.54v-.105c0-.745-.518-1.362-1.214-1.518.242-2.696 1.552-5.897 3.036-5.995 1.515-.095 2.737 1.04 1.3 2.905 4.04.078 6.481-3.158 3.275-6.364-1.185-1.142-2.312-1.555-3.491-1.507-1.244.055-2.549.61-4.055 1.355a9.563 9.563 0 0 0 .813-3.838c0-3.83-1.498-4.896-3.664-9.4-2.167 4.504-3.654 5.57-3.654 9.4a9.588 9.588 0 0 0 .813 3.838c-2.93-1.447-5.113-2.195-7.546.15-3.206 3.207-.765 6.454 3.275 6.376-1.437-1.867-.215-3.014 1.3-2.917 1.484.095 2.795 3.3 3.036 5.995a1.556 1.556 0 0 0-1.214 1.518v.123c0 .779.566 1.42 1.312 1.539.227.488 1.222 2.851-.705 3.914-1.613.89-1.597-.696-.759-1.94-2.356-.056-3.789 2.112-1.919 4.25.691.761 1.35 1.04 2.038 1.007.123 0 .244.002.369-.055l-.314.932c-.173.521.432.992.986 1.019v10.82a167.807 167.807 0 0 0-23.667-6.591V35.009c.554 0 1.16-.5.986-1.019l-.314-.943c.125 0 .246.056.369.056.688.055 1.347-.239 2.038-.998 1.87-2.137.448-4.301-1.908-4.25.838 1.244.854 2.831-.759 1.941-1.927-1.063-.943-3.425-.716-3.914a1.554 1.554 0 0 0 1.312-1.54v-.121c0-.745-.518-1.362-1.214-1.518.242-2.696 1.552-5.888 3.036-5.985 1.515-.094 2.737 1.04 1.3 2.906 4.04.077 6.481-3.169 3.275-6.375-1.185-1.142-2.312-1.545-3.491-1.497-1.244.056-2.549.611-4.055 1.356a9.561 9.561 0 0 0 .813-3.838c0-3.83-1.487-4.896-3.653-9.4-2.165 4.5-3.665 5.56-3.665 9.389a9.643 9.643 0 0 0 .813 3.849c-2.93-1.448-5.113-2.206-7.546.139-3.206 3.206-.765 6.453 3.274 6.375-1.436-1.867-.214-3.014 1.302-2.917 1.483.094 2.794 3.3 3.035 5.996a1.55 1.55 0 0 0-1.214 1.517v.106c0 .78.577 1.42 1.323 1.54.227.488 1.21 2.85-.716 3.914-1.613.89-1.597-.686-.759-1.93-2.356-.056-3.789 2.101-1.919 4.239.691.763 1.35 1.04 2.038 1.008.123 0 .244 0 .369-.067l-.304.943c-.173.522.422.992.976 1.02v11.698c-4.442-.706-8.924-1.27-13.487-1.561h-26.942c-4.563.294-9.045.855-13.487 1.56V34.992c.554 0 1.149-.5.976-1.02l-.315-.943c.126 0 .246.067.369.067.688.055 1.347-.244 2.038-1.008 1.87-2.138.438-4.292-1.919-4.24.838 1.245.855 2.821-.759 1.93-1.926-1.062-.932-3.425-.704-3.913a1.558 1.558 0 0 0 1.311-1.54v-.106a1.55 1.55 0 0 0-1.214-1.517c.242-2.696 1.552-5.9 3.036-5.996 1.515-.094 2.737 1.05 1.3 2.917 4.04.077 6.492-3.169 3.286-6.375-2.432-2.346-4.627-1.588-7.557-.139a9.631 9.631 0 0 0 .813-3.85c0-3.829-1.488-4.888-3.653-9.388zm16.48 53.374v12.783c-4.562.294-9.044.876-13.487 1.593V54.914c4.446-.754 8.931-1.358 13.487-1.67zm26.942 0c4.555.31 9.04.916 13.487 1.67V67.62c-4.443-.717-8.926-1.297-13.487-1.593V53.244zm-46.414 2.808v12.641c-8.077 1.643-15.96 3.895-23.657 6.69V63.045c7.715-2.912 15.597-5.275 23.657-6.993zm65.885 0c8.06 1.718 15.942 4.08 23.657 6.993v12.338c-7.696-2.795-15.58-5.047-23.657-6.69v-12.64zm-95.516 9.335v12.305c-8.09 3.248-15.98 7.029-23.667 11.19V76.965c7.711-4.291 15.599-8.22 23.667-11.58zm125.147 0c8.068 3.36 15.956 7.288 23.668 11.58V88.88c-7.688-4.16-15.578-7.94-23.668-11.189V65.387zm-76.044 4.694v12.783c-4.563.294-9.046.866-13.487 1.572V71.72c4.445-.741 8.929-1.331 13.487-1.638zm26.942 0c4.558.306 9.041.897 13.487 1.638v12.717c-4.442-.706-8.924-1.28-13.487-1.572V70.081zm-46.414 2.754v12.642c-8.08 1.619-15.968 3.846-23.657 6.602V79.731c7.708-2.873 15.591-5.203 23.657-6.896zm65.885 0c8.066 1.693 15.95 4.023 23.657 6.896v12.348c-7.689-2.756-15.577-4.983-23.657-6.602V72.835zM962.84 80.36v11.85c-8.098 4.638-15.981 9.644-23.657 14.843V95.538c7.71-5.308 15.582-10.435 23.657-15.179zm184.43 0c8.075 4.744 15.946 9.871 23.656 15.18v11.513c-7.675-5.199-15.559-10.205-23.656-14.842V80.36zm-29.642 1.68c8.076 3.322 15.965 7.192 23.668 11.44v11.958c-7.682-4.118-15.57-7.848-23.668-11.059v-12.34zm-125.147 0v12.33c-8.097 3.21-15.986 6.941-23.667 11.059v-11.96c7.702-4.247 15.592-8.105 23.667-11.427zm49.103 8.913v202.85h-13.487V92.622c4.446-.754 8.931-1.358 13.487-1.67zm26.942 0c4.555.31 9.04.916 13.487 1.67v201.18h-13.487V90.952zm-46.414 2.808v200.042h-23.657v-193.05c7.715-2.912 15.597-5.275 23.657-6.992zm65.885 0c8.06 1.717 15.942 4.08 23.657 6.993v193.049h-23.657V93.76zM962.84 96.87v11.861c-8.107 4.603-15.99 9.56-23.657 14.723v-11.523c7.697-5.27 15.575-10.352 23.657-15.06zm184.43 0c8.081 4.708 15.96 9.79 23.656 15.06v11.525c-7.667-5.164-15.55-10.12-23.656-14.723v-11.86zm-214.072 2.84v11.439a772.271 772.271 0 0 0-16.078 11.547c-2.61 1.922-5.014 3.718-7.579 5.627V117.08c3.744-2.813 7.343-5.535 11.178-8.359a809.13 809.13 0 0 1 12.48-9.01zm243.713 0a809.704 809.704 0 0 1 12.49 9.01c3.835 2.824 7.423 5.546 11.167 8.36v11.243c-2.564-1.91-4.968-3.705-7.578-5.627a772.267 772.267 0 0 0-16.079-11.547V99.712zm-184.43 3.384v190.707h-23.667V114.674c7.711-4.291 15.599-8.22 23.667-11.58zm125.147 0c8.068 3.36 15.956 7.288 23.668 11.579v179.128h-23.668V103.095zm-184.43 12.977v11.482a765.34 765.34 0 0 0-17.282 12.381c-2.199 1.62-4.209 3.108-6.375 4.716v-11.253c3.352-2.51 6.548-4.914 9.975-7.437 4.498-3.312 9.053-6.628 13.682-9.888zm243.713 0c4.63 3.26 9.184 6.576 13.682 9.888 3.427 2.523 6.623 4.926 9.975 7.437v11.255a1908.585 1908.585 0 0 0-6.375-4.716 765.089 765.089 0 0 0-17.282-12.381v-11.482zm-214.071 1.995v175.735h-23.657V133.256c7.71-5.307 15.582-10.445 23.657-15.189zm184.43 0c8.075 4.744 15.946 9.881 23.656 15.19v160.545h-23.656V118.067zm-243.702 3.48v11.21c-8.052 6.01-16.065 11.937-23.668 17.315v-11.156c7.663-5.372 15.664-11.346 23.668-17.369zm302.974 0c8.003 6.023 16.005 11.997 23.667 17.369v11.156c-7.602-5.378-15.615-11.306-23.667-17.314v-11.21zM933.198 137.43V293.8H909.54v-139c3.744-2.814 7.343-5.534 11.178-8.36a820.481 820.481 0 0 1 12.48-9.008zm243.713 0a817.24 817.24 0 0 1 12.49 9.009c3.835 2.825 7.423 5.545 11.167 8.36v139.002h-23.657V137.43zm-273.343.433v11.21c-8.067 6.005-16.081 11.917-23.668 17.293V155.2c7.64-5.375 15.647-11.318 23.668-17.336zm302.974 0c8.02 6.018 16.027 11.96 23.667 17.336v11.167c-7.587-5.376-15.6-11.288-23.667-17.293v-11.21zm-332.616 5.16v11.243c-8.134 5.562-16.022 10.518-23.657 14.485v-11.828c7.77-3.78 15.636-8.509 23.657-13.9zm362.257 0c8.021 5.391 15.888 10.12 23.657 13.9v11.828c-7.635-3.967-15.522-8.923-23.657-14.485v-11.243zm-332.615 16.242V293.8H879.9V176.634c7.663-5.372 15.664-11.346 23.668-17.368zm302.974 0c8.003 6.022 16.005 11.996 23.667 17.368V293.8h-23.667V159.266zm-332.616.077v11.254c-8.177 5.615-16.061 10.608-23.657 14.636V173.45c7.725-3.844 15.597-8.653 23.657-14.106zm362.257 0c8.06 5.453 15.932 10.262 23.657 14.105v11.785c-7.596-4.028-15.48-9.02-23.657-14.636v-11.254zm-391.898.283v12.057c-4.495 2.053-8.891 3.677-13.217 4.89v-12.436c4.384-1.083 8.786-2.647 13.217-4.51zm421.54 0c4.43 1.864 8.832 3.429 13.216 4.511v12.436c-4.325-1.213-8.721-2.837-13.216-4.89v-12.057zm-421.54 16.6v12.002c-4.516 2.117-8.917 3.826-13.217 5.085v-12.436c4.364-1.123 8.769-2.728 13.217-4.651zm421.54 0c4.448 1.923 8.853 3.527 13.216 4.65v12.436c-4.3-1.258-8.701-2.967-13.216-5.085v-12zm-391.899 4.52v113.048h-23.657v-99.149c7.77-3.779 15.636-8.507 23.657-13.899zm362.257 0c8.021 5.392 15.888 10.12 23.657 13.9v99.148h-23.657V180.746zm-391.898 16.61v96.438h-13.217v-91.938c4.384-1.082 8.786-2.637 13.217-4.5zm421.54 0c4.43 1.863 8.832 3.418 13.216 4.5v91.938h-13.216v-96.438z" style="line-height:normal;text-indent:0;text-align:start;text-decoration-line:none;text-decoration-style:solid;text-decoration-color:#000;text-transform:none;block-progression:tb;isolation:auto;mix-blend-mode:normal" color="#000" font-weight="400" font-family="sans-serif" white-space="normal" overflow="visible" fill-rule="evenodd"/></svg>