<?xml version="1.0" encoding="UTF-8" standalone="no"?>
<svg
   xmlns:dc="http://purl.org/dc/elements/1.1/"
   xmlns:cc="http://creativecommons.org/ns#"
   xmlns:rdf="http://www.w3.org/1999/02/22-rdf-syntax-ns#"
   xmlns:svg="http://www.w3.org/2000/svg"
   xmlns="http://www.w3.org/2000/svg"
   height="330"
   width="900"
   id="svg2"
   y="0px"
   x="0px"
   version="1.1"
   viewBox="0 0 900 330">
  <metadata
     id="metadata16">
    <rdf:RDF>
      <cc:Work
         rdf:about="">
        <dc:format>image/svg+xml</dc:format>
        <dc:type
           rdf:resource="http://purl.org/dc/dcmitype/StillImage" />
        <dc:title></dc:title>
      </cc:Work>
    </rdf:RDF>
  </metadata>
  <defs
     id="defs14" />
  <g
     id="g4"
     transform="matrix(5.5510025,0,0,5.5510025,-158.50043,-5397.3201)">
    <path
       id="path6"
       d="m 44.605208,972.29105 c -0.39024,0.8114 -0.6582,1.0033 -0.6582,1.6934 0,0.2415 0.0521,0.4757 0.14648,0.6914 -0.27133,-0.1342 -0.50834,-0.235 -0.73242,-0.2442 -0.21242,-0.01 -0.41354,0.063 -0.62695,0.2696 -0.57759,0.5776 -0.13781,1.1625 0.58984,1.1484 -0.25876,-0.3361 -0.0387,-0.541 0.23437,-0.5234 0.26725,0.017 0.50339,0.5925 0.54688,1.0781 -0.12541,0.029 -0.21875,0.1392 -0.21875,0.2734 l 0,0.022 c 0,0.1404 0.10202,0.2561 0.23633,0.2773 0.041,0.088 0.21817,0.5137 -0.12891,0.7051 -0.29066,0.1604 -0.28765,-0.1255 -0.13672,-0.3496 -0.42442,-0.01 -0.68063,0.3806 -0.34375,0.7656 0.12448,0.1372 0.24328,0.1855 0.36719,0.1797 0.0221,0 0.0438,-0.01 0.0664,-0.01 l -0.0566,0.1699 c -0.0313,0.094 0.0779,0.1793 0.17773,0.1836 l 0,0.5566 0,0.3828 0,0.334 0,1.0235 c -1.45553,0.2916 -2.87858,0.691 -4.26367,1.1875 l 0,-1.0079 0,-0.7343 0,-0.2071 c 0.0998,0 0.20698,-0.09 0.17578,-0.1836 l -0.0547,-0.1679 c 0.0225,0 0.0443,0.01 0.0664,0.01 0.12391,0.01 0.24271,-0.045 0.36719,-0.1816 0.33688,-0.385 0.0788,-0.775 -0.34571,-0.7656 0.15093,0.2242 0.15394,0.5099 -0.13672,0.3496 -0.34707,-0.1914 -0.16791,-0.6171 -0.12695,-0.7051 0.13438,-0.021 0.23633,-0.1369 0.23633,-0.2773 l 0,-0.022 c 0,-0.1342 -0.0932,-0.2455 -0.21875,-0.2735 0.0435,-0.4857 0.27963,-1.0628 0.54687,-1.08 0.27303,-0.017 0.49314,0.1892 0.23438,0.5254 0.72765,0.014 1.16741,-0.5708 0.58984,-1.1485 -0.43818,-0.4223 -0.83155,-0.2877 -1.35937,-0.027 0.0945,-0.2158 0.14609,-0.4497 0.14648,-0.6914 0,-0.6901 -0.26989,-0.882 -0.66015,-1.6934 -0.39024,0.8114 -0.65821,1.0033 -0.65821,1.6934 0,0.2415 0.0521,0.4756 0.14649,0.6914 -0.27133,-0.1343 -0.5064,-0.2349 -0.73047,-0.2442 -0.21243,-0.01 -0.4155,0.065 -0.62891,0.2715 -0.57759,0.5776 -0.1378,1.1606 0.58985,1.1465 -0.25876,-0.3361 -0.0387,-0.5409 0.23437,-0.5234 0.26724,0.017 0.50338,0.5943 0.54688,1.08 -0.12542,0.029 -0.21875,0.1393 -0.21875,0.2735 l 0,0.019 c 0,0.1404 0.10202,0.256 0.23632,0.2774 0.041,0.088 0.21818,0.5135 -0.1289,0.705 -0.29066,0.1604 -0.2857,-0.1235 -0.13477,-0.3476 -0.42441,-0.01 -0.68258,0.3785 -0.3457,0.7636 0.12448,0.1372 0.24328,0.1874 0.36719,0.1817 0.0221,0 0.0438,-0.01 0.0664,-0.01 l -0.0547,0.168 c -0.0313,0.094 0.076,0.1793 0.17579,0.1836 l 0,0.5566 0,0.3848 0,0.332 0,1.0899 c -1.45867,0.5786 -2.8779,1.2525 -4.26172,1.9941 l 0,-0.8535 0,-0.7324 0,-0.209 c 0.0998,0 0.20697,-0.088 0.17578,-0.1817 l -0.0566,-0.1699 c 0.0226,0 0.0443,0.01 0.0664,0.01 0.12391,0.01 0.24271,-0.043 0.36719,-0.1797 0.33689,-0.385 0.0788,-0.7749 -0.3457,-0.7656 0.15093,0.2242 0.15393,0.51 -0.13672,0.3496 -0.34707,-0.1914 -0.16791,-0.617 -0.12695,-0.7051 0.13437,-0.021 0.23632,-0.1368 0.23633,-0.2773 l 0,-0.022 c 0,-0.1342 -0.0932,-0.2454 -0.21876,-0.2735 0.0435,-0.4858 0.27964,-1.0629 0.54688,-1.08 0.27302,-0.017 0.49314,0.1872 0.23438,0.5234 0.72765,0.014 1.16741,-0.5689 0.58984,-1.1465 -0.43818,-0.4223 -0.83156,-0.2867 -1.35938,-0.025 0.0945,-0.2158 0.14611,-0.4516 0.14649,-0.6933 0,-0.69 -0.26796,-0.88 -0.65821,-1.6914 -0.39026,0.8114 -0.66015,1.0014 -0.66015,1.6914 0,0.2415 0.0521,0.4775 0.14648,0.6933 -0.27133,-0.1343 -0.5064,-0.2348 -0.73047,-0.2441 -0.21242,-0.01 -0.41548,0.063 -0.6289,0.2695 -0.57758,0.5776 -0.13586,1.1625 0.5918,1.1484 -0.25875,-0.336 -0.0406,-0.541 0.23242,-0.5234 0.26725,0.017 0.50535,0.5924 0.54882,1.0781 -0.1254,0.029 -0.2207,0.1393 -0.2207,0.2735 l 0,0.022 c 0,0.1404 0.10203,0.254 0.23633,0.2753 0.041,0.088 0.22013,0.5157 -0.12695,0.7071 -0.29065,0.1604 -0.28765,-0.1253 -0.13672,-0.3496 -0.42441,-0.01 -0.68062,0.3806 -0.34375,0.7656 0.12448,0.1371 0.24133,0.1854 0.36523,0.1797 0.0221,0 0.0438,-0.01 0.0664,-0.01 l -0.0547,0.1699 c -0.0313,0.094 0.0759,0.1774 0.17578,0.1817 l 0,0.5586 0,0.3828 0,0.334 0,1.1133 c -1.46039,0.829 -2.88049,1.7241 -4.26172,2.6543 l 0,-0.6915 0,-0.7324 0,-0.209 c 0.0998,0 0.20698,-0.09 0.17578,-0.1836 l -0.0566,-0.1679 c 0.0226,0 0.0443,0.01 0.0664,0.01 0.1239,0.01 0.24271,-0.045 0.36719,-0.1816 0.33689,-0.385 0.0807,-0.7749 -0.34375,-0.7656 0.15093,0.2242 0.15393,0.51 -0.13672,0.3496 -0.34707,-0.1914 -0.16988,-0.6171 -0.12891,-0.7051 0.13437,-0.021 0.23828,-0.1368 0.23828,-0.2773 l 0,-0.022 c 0,-0.1343 -0.0951,-0.2433 -0.2207,-0.2715 0.0435,-0.4857 0.27964,-1.063 0.54688,-1.0801 0.27302,-0.017 0.49313,0.1873 0.23437,0.5235 0.72765,0.014 1.16937,-0.5709 0.5918,-1.1485 -0.43817,-0.4223 -0.83155,-0.2859 -1.35938,-0.025 0.0945,-0.2158 0.14415,-0.4516 0.14453,-0.6933 0,-0.6901 -0.26795,-0.88 -0.6582,-1.6914 -0.39025,0.8114 -0.6582,1.0013 -0.6582,1.6914 0,0.2415 0.0521,0.4776 0.14648,0.6933 -0.27133,-0.1342 -0.50834,-0.2349 -0.73242,-0.2441 -0.21242,-0.01 -0.4155,0.063 -0.62891,0.2695 -0.57759,0.5776 -0.13585,1.1626 0.5918,1.1485 -0.25876,-0.3361 -0.0387,-0.5412 0.23438,-0.5235 0.26725,0.017 0.50338,0.5924 0.54687,1.0781 -0.12541,0.029 -0.21875,0.1393 -0.21875,0.2735 l 0,0.022 c 0,0.1404 0.10201,0.256 0.23633,0.2773 0.041,0.088 0.21817,0.5136 -0.12891,0.7051 -0.29066,0.1604 -0.28765,-0.1254 -0.13672,-0.3496 -0.42441,-0.01 -0.68063,0.3806 -0.34375,0.7656 0.12448,0.1371 0.24329,0.1873 0.36719,0.1816 0.0221,0 0.0438,-0.01 0.0664,-0.01 l -0.0566,0.1679 c -0.0313,0.094 0.076,0.1793 0.17578,0.1836 l 0,0.5567 0,0.3847 0,0.3321 0,1.0957 c -1.0592,0.7353 -2.09823,1.4829 -3.11328,2.2304 -0.39619,0.2916 -0.75827,0.5619 -1.14844,0.8516 l 0,-0.6269 0,-0.7325 0,-0.2089 c 0.0998,0 0.20698,-0.09 0.17578,-0.1836 l -0.0547,-0.168 c 0.0225,0 0.0443,0.01 0.0664,0.01 0.1239,0.01 0.24271,-0.045 0.36719,-0.1817 0.33688,-0.385 0.0788,-0.775 -0.34571,-0.7656 0.15093,0.2241 0.15394,0.51 -0.13671,0.3496 -0.34707,-0.1914 -0.16987,-0.617 -0.12891,-0.7051 0.13438,-0.021 0.23828,-0.1368 0.23828,-0.2773 l 0,-0.022 c 0,-0.1343 -0.0932,-0.2433 -0.21875,-0.2715 0.0435,-0.4857 0.27965,-1.0629 0.54688,-1.0801 0.27304,-0.017 0.49312,0.1873 0.23437,0.5235 0.72765,0.014 1.16741,-0.5708 0.58984,-1.1485 -0.43818,-0.4223 -0.83153,-0.2858 -1.35937,-0.025 0.0946,-0.2158 0.14609,-0.4516 0.14648,-0.6933 0,-0.69 -0.2699,-0.8799 -0.66015,-1.6914 -0.39024,0.8115 -0.65821,1.0013 -0.65821,1.6914 0,0.2415 0.0521,0.4775 0.14649,0.6933 -0.27133,-0.1343 -0.5064,-0.2348 -0.73047,-0.2441 -0.21243,-0.01 -0.41549,0.063 -0.62891,0.2695 -0.57758,0.5776 -0.1378,1.1625 0.58985,1.1485 -0.25876,-0.3362 -0.0387,-0.5411 0.23437,-0.5235 0.26723,0.017 0.50337,0.5924 0.54688,1.0782 -0.12543,0.029 -0.21875,0.1392 -0.21875,0.2734 l 0,0.022 c 0,0.1404 0.10203,0.2561 0.23633,0.2773 0.041,0.088 0.21817,0.5137 -0.12891,0.7051 -0.29066,0.1604 -0.28765,-0.1255 -0.13672,-0.3496 -0.42441,-0.01 -0.68063,0.3806 -0.34375,0.7656 0.12448,0.1372 0.24328,0.1875 0.36719,0.1817 0.0221,0 0.0438,-0.012 0.0664,-0.012 l -0.0566,0.17 c -0.0313,0.094 0.0779,0.1792 0.17774,0.1836 l 0,0.5566 0,0.3848 0,0.332 0,1.0918 c -1.45325,1.08162 -2.89688,2.14662 -4.26367,3.11522 l 0,-0.6406 0,-0.7324 0,-0.209 c 0.0998,0 0.20892,-0.09 0.17773,-0.1836 l -0.0566,-0.168 c 0.0226,0 0.0443,0.01 0.0664,0.01 0.1239,0.01 0.24271,-0.043 0.36718,-0.17972 0.3369,-0.3851 0.0788,-0.775 -0.3457,-0.7656 0.15092,0.2241 0.15393,0.51 -0.13672,0.3496 -0.34706,-0.1915 -0.16791,-0.6172 -0.12695,-0.7051 0.13438,-0.021 0.23633,-0.1368 0.23633,-0.2773 l 0,-0.02 c 0,-0.1343 -0.0932,-0.2472 -0.21875,-0.2754 0.0435,-0.4856 0.27963,-1.0608 0.54687,-1.0781 0.27303,-0.017 0.49313,0.1873 0.23438,0.5235 0.72764,0.014 1.16741,-0.569 0.58984,-1.1465 -0.43818,-0.4225 -0.83154,-0.2879 -1.35937,-0.027 0.0945,-0.2158 0.14609,-0.4517 0.14648,-0.6933 0,-0.6901 -0.26796,-0.8799 -0.6582,-1.6914 -0.39025,0.8115 -0.66016,1.0013 -0.66016,1.6914 0,0.2414 0.0521,0.4776 0.14649,0.6933 -0.27132,-0.1342 -0.5064,-0.2349 -0.73047,-0.2441 -0.21242,-0.01 -0.41548,0.063 -0.62891,0.2695 -0.57758,0.5776 -0.13779,1.1625 0.58984,1.1485 -0.25874,-0.3362 -0.0387,-0.541 0.23438,-0.5235 0.26724,0.017 0.50337,0.5925 0.54687,1.0781 -0.12543,0.029 -0.21875,0.1393 -0.21875,0.2735 l 0,0.022 c 0,0.1405 0.10203,0.254 0.23633,0.2754 0.041,0.088 0.22013,0.5155 -0.12695,0.707 -0.29065,0.1604 -0.28765,-0.1255 -0.13672,-0.3496 -0.42442,-0.01 -0.68258,0.3805 -0.3457,0.7656 0.12448,0.13722 0.24328,0.18542 0.36718,0.17972 0.0221,0 0.0438,2e-4 0.0664,-0.01 l -0.0547,0.168 c -0.0313,0.094 0.076,0.1793 0.17578,0.1836 l 0,0.5566 0,0.3848 0,0.332 0,1.0684 c -1.47305,1.0117 -2.89338,1.9131 -4.26171,2.6387 l 0,-0.8516 0,-0.7324 0,-0.209 c 0.0998,0 0.20698,-0.088 0.17578,-0.1817 l -0.0566,-0.1699 c 0.0226,0 0.0443,0.01 0.0664,0.01 0.12391,0.01 0.24271,-0.043 0.36719,-0.1797 0.3369,-0.385 0.0788,-0.7749 -0.3457,-0.7656 0.15092,0.2243 0.15393,0.51 -0.13672,0.3496 -0.34707,-0.1914 -0.1679,-0.6171 -0.12696,-0.7051 0.13441,-0.021 0.23633,-0.1368 0.23633,-0.2773 l 0,-0.022 c 0,-0.1343 -0.0932,-0.2453 -0.21875,-0.2735 0.0435,-0.4856 0.27965,-1.0609 0.54688,-1.0781 0.27303,-0.017 0.493111,0.1873 0.23437,0.5235 0.72763,0.014 1.16937,-0.5709 0.5918,-1.14852 -0.43817,-0.4224 -0.83349,-0.2858 -1.36133,-0.025 0.0945,-0.2158 0.14612,-0.4516 0.14649,-0.6933 0,-0.69 -0.26796,-0.882 -0.65821,-1.6934 -0.39024,0.8114 -0.6582,1.0033 -0.6582,1.6934 0,0.2415 0.0501,0.4775 0.14453,0.6933 -0.271329,-0.1342 -0.50638,-0.2369 -0.730469,-0.2461 -0.21241,-0.01 -0.41548,0.065 -0.6289,0.2715 -0.57759,0.57762 -0.13585,1.16252 0.59179,1.14852 -0.25875,-0.3362 -0.0387,-0.5412 0.23438,-0.5235 0.26724,0.017 0.50337,0.5924 0.54687,1.0781 -0.12542,0.029 -0.2207,0.1394 -0.2207,0.2735 l 0,0.022 c 0,0.1403 0.10201,0.2561 0.23633,0.2773 0.041,0.088 0.22012,0.5137 -0.12695,0.7051 -0.29067,0.1603 -0.28764,-0.1236 -0.13672,-0.3477 -0.42441,-0.01 -0.68063,0.3788 -0.34375,0.7637 0.12448,0.1372 0.24329,0.1873 0.36718,0.1816 0.0221,0 0.0438,0 0.0664,-0.012 l -0.0566,0.1699 c -0.0313,0.094 0.0759,0.1793 0.17578,0.1836 l 0,0.5567 0,0.3828 0,0.332 0,1.0586 c -0.81341,0.3815 -1.60629,0.68933 -2.3808605,0.91603 l 0,-3.20703 0.9277405,0 0,-1.0762 -1.9316405,0 c 0.0111,-0.1786 0.0322,-0.3288 0.0723,-0.3984 0.1867,-0.3234 0.4683,-0.6443 0.46875,-1.043 -1.7e-4,-0.7721 -0.62624,-1.39822 -1.39844,-1.39842 -0.7722,2e-4 -1.39827,0.62632 -1.39843,1.39842 4.5e-4,0.3987 0.28205,0.7196 0.46875,1.043 0.0403,0.07 0.0612,0.2198 0.0723,0.3984 l -1.93164,0 0,1.0762 0.92969,0 0,34.21883 -0.92969,0 0,1.0761 5.5781305,0 0,-1.0761 -0.9277405,0 0,-5.0372 2.3808605,0 0,5.0372 1.07813,0 0,-5.0372 4.26171,0 0,5.0372 1.07618,0 0,-5.0372 4.26367,0 0,5.0372 1.07617,0 0,-5.0372 4.261719,0 0,5.0372 1.07812,0 0,-5.0372 4.26172,0 0,5.0372 1.07617,0 0,-5.0372 4.26368,0 0,5.0372 1.07617,0 0,-5.0372 4.26172,0 0,5.0372 1.07812,0 0,-5.0372 2.42969,0 0,0.5372 0,3.6191 0,1.957 2.42578,0 2.42773,0 0,-1.957 0,-3.6191 0,-0.5372 2.42969,0 0,5.0372 1.07813,0 0,-5.0372 4.26172,0 0,5.0372 1.07617,0 0,-5.0372 4.26367,0 0,5.0372 1.07617,0 0,-5.0372 4.26172,0 0,5.0372 1.078133,0 0,-5.0372 4.26171,0 0,5.0372 1.07618,0 0,-5.0372 4.26367,0 0,5.0372 1.07617,0 0,-5.0372 4.26172,0 0,5.0372 1.07812,0 0,-5.0372 2.38086,0 0,5.0372 -0.92773,0 0,1.0761 5.57617,0 0,-1.0761 -0.92773,0 0,-34.21883 0.92773,0 0,-1.0762 -1.92969,0 c 0.0111,-0.1786 0.0321,-0.3288 0.0723,-0.3984 0.1867,-0.3234 0.4683,-0.6443 0.46875,-1.043 -1.6e-4,-0.7721 -0.62624,-1.39822 -1.39844,-1.39842 -0.7722,2e-4 -1.39827,0.62632 -1.39844,1.39842 4.5e-4,0.3987 0.28205,0.7196 0.46875,1.043 0.0402,0.07 0.0612,0.2198 0.0723,0.3984 l -1.93164,0 0,1.0762 0.92773,0 0,3.20703 c -0.77457,-0.2267 -1.56744,-0.53453 -2.38086,-0.91603 l 0,-1.0586 0,-0.332 0,-0.3828 0,-0.5567 c 0.0998,0 0.20698,-0.09 0.17579,-0.1836 l -0.0566,-0.1699 c 0.0226,0 0.0442,0.012 0.0664,0.012 0.123891,0.01 0.242711,-0.044 0.36719,-0.1816 0.33688,-0.3849 0.0807,-0.7729 -0.34375,-0.7637 0.15092,0.2241 0.15394,0.508 -0.13672,0.3477 -0.34708,-0.1914 -0.1679,-0.617 -0.126949,-0.7051 0.134289,-0.021 0.234369,-0.137 0.234369,-0.2773 l 0,-0.022 c 0,-0.1341 -0.0933,-0.2454 -0.21875,-0.2735 0.0435,-0.4857 0.279641,-1.0607 0.546881,-1.0781 0.273039,-0.017 0.49312,0.1873 0.234369,0.5235 0.72764,0.014 1.169391,-0.5709 0.591801,-1.14852 -0.21342,-0.2057 -0.4165,-0.2802 -0.62891,-0.2715 -0.224091,0.01 -0.459141,0.1119 -0.73047,0.2461 0.0944,-0.2158 0.14453,-0.4518 0.14453,-0.6933 0,-0.6901 -0.26796,-0.882 -0.6582,-1.6934 -0.39025,0.8114 -0.6582,1.0034 -0.6582,1.6934 3.7e-4,0.2417 0.05,0.4775 0.14453,0.6933 -0.52784,-0.2607 -0.92121,-0.3973 -1.35938,0.025 -0.57757,0.57762 -0.13584,1.16262 0.5918,1.14852 -0.25875,-0.3362 -0.0387,-0.541 0.23438,-0.5235 0.26724,0.017 0.50338,0.5925 0.54687,1.0781 -0.12558,0.029 -0.21875,0.1392 -0.21875,0.2735 l 0,0.022 c 0,0.1405 0.10194,0.256 0.23633,0.2773 0.041,0.088 0.21815,0.5137 -0.12891,0.7051 -0.29066,0.1604 -0.28568,-0.1253 -0.13476,-0.3496 -0.42442,-0.01 -0.68261,0.3806 -0.34571,0.7656 0.12448,0.1374 0.24328,0.1855 0.36719,0.1797 0.0221,0 0.0438,2e-4 0.0664,-0.01 l -0.0566,0.1699 c -0.0313,0.094 0.076,0.1768 0.17578,0.1817 l 0,0.209 0,0.7324 0,0.8516 c -1.36833,-0.7256 -2.78867,-1.627 -4.26172,-2.6387 l 0,-1.0684 0,-0.332 0,-0.3848 0,-0.5566 c 0.0998,0 0.20699,-0.09 0.17578,-0.1836 l -0.0547,-0.168 c 0.0225,0 0.0442,0.01 0.0664,0.01 0.12389,0.01 0.24271,-0.043 0.36719,-0.17972 0.33688,-0.3851 0.0787,-0.7748 -0.34571,-0.7656 0.15092,0.2241 0.15395,0.51 -0.13671,0.3496 -0.34708,-0.1915 -0.16792,-0.6191 -0.12696,-0.707 0.13429,-0.022 0.23633,-0.1349 0.23633,-0.2754 l 0,-0.022 c 0,-0.1342 -0.0933,-0.2453 -0.21875,-0.2735 0.0435,-0.4856 0.27964,-1.0606 0.54688,-1.0781 0.27305,-0.017 0.49312,0.1873 0.23437,0.5235 0.72764,0.014 1.16743,-0.5709 0.58984,-1.1485 -0.21343,-0.2058 -0.41649,-0.2782 -0.6289,-0.2695 -0.22408,0.01 -0.45915,0.1099 -0.73047,0.2441 0.0944,-0.2157 0.14648,-0.4519 0.14648,-0.6933 0,-0.6901 -0.2699,-0.8799 -0.66015,-1.6914 -0.39024,0.8115 -0.65821,1.0013 -0.65821,1.6914 3.9e-4,0.2416 0.052,0.4775 0.14649,0.6933 -0.52783,-0.2608 -0.9212,-0.3954 -1.35938,0.027 -0.57757,0.5775 -0.13779,1.1606 0.58985,1.1465 -0.25875,-0.3362 -0.0387,-0.5409 0.23437,-0.5235 0.26723,0.017 0.50338,0.5925 0.54688,1.0781 -0.12558,0.029 -0.21875,0.1411 -0.21875,0.2754 l 0,0.02 c 0,0.1405 0.10195,0.2559 0.23633,0.2773 0.041,0.088 0.22011,0.5136 -0.12696,0.7051 -0.29066,0.1604 -0.28765,-0.1255 -0.13672,-0.3496 -0.42443,-0.01 -0.6826,0.3805 -0.3457,0.7656 0.12448,0.13742 0.24328,0.18562 0.36719,0.17972 0.0221,0 0.0438,2e-4 0.0664,-0.01 l -0.0566,0.168 c -0.0313,0.094 0.0779,0.1787 0.17774,0.1836 l 0,0.209 0,0.7324 0,0.6406 c -1.36679,-0.9686 -2.81043,-2.0336 -4.26367,-3.11522 l 0,-1.0918 0,-0.332 0,-0.3848 0,-0.5566 c 0.0998,0 0.20894,-0.09 0.17773,-0.1836 l -0.0566,-0.17 c 0.0225,0 0.0442,0.012 0.0664,0.012 0.12391,0.01 0.2427,-0.045 0.36718,-0.1817 0.33689,-0.385 0.0807,-0.7749 -0.34375,-0.7656 0.15093,0.2241 0.15395,0.51 -0.13672,0.3496 -0.34707,-0.1914 -0.16987,-0.617 -0.1289,-0.7051 0.13428,-0.021 0.23633,-0.1369 0.23633,-0.2773 l 0,-0.022 c 0,-0.1342 -0.0934,-0.2453 -0.21875,-0.2734 0.0435,-0.4858 0.27964,-1.0607 0.54687,-1.0782 0.27305,-0.017 0.49312,0.1873 0.23438,0.5235 0.72763,0.014 1.16743,-0.5709 0.58984,-1.1485 -0.21342,-0.2058 -0.41648,-0.2782 -0.62891,-0.2695 -0.22407,0.01 -0.45913,0.1098 -0.73046,0.2441 0.0944,-0.2158 0.14648,-0.4518 0.14648,-0.6933 0,-0.6901 -0.26796,-0.8799 -0.6582,-1.6914 -0.39025,0.8115 -0.66016,1.0014 -0.66016,1.6914 3.8e-4,0.2417 0.052,0.4775 0.14648,0.6933 -0.52782,-0.2608 -0.92119,-0.3973 -1.35937,0.025 -0.57757,0.5777 -0.13779,1.1625 0.58984,1.1485 -0.25874,-0.3362 -0.0387,-0.541 0.23438,-0.5235 0.26723,0.017 0.50338,0.5944 0.54687,1.0801 -0.12558,0.029 -0.21875,0.1372 -0.21875,0.2715 l 0,0.022 c 0,0.1405 0.10389,0.256 0.23829,0.2773 0.041,0.088 0.21816,0.5137 -0.12891,0.7051 -0.29066,0.1604 -0.28764,-0.1255 -0.13672,-0.3496 -0.42442,-0.01 -0.68259,0.3806 -0.3457,0.7656 0.12447,0.1373 0.24328,0.1875 0.36718,0.1817 0.0221,0 0.0438,2e-4 0.0664,-0.01 l -0.0547,0.168 c -0.0313,0.094 0.0759,0.1786 0.17578,0.1836 l 0,0.2089 0,0.7325 0,0.6269 c -0.39017,-0.2897 -0.75224,-0.56 -1.14843,-0.8516 -1.01505,-0.7475 -2.05406,-1.4951 -3.11328,-2.2304 l 0,-1.0957 0,-0.3321 0,-0.3847 0,-0.5567 c 0.0998,0 0.20699,-0.09 0.17578,-0.1836 l -0.0566,-0.1679 c 0.0225,0 0.0442,0.01 0.0664,0.01 0.1239,0.01 0.24271,-0.045 0.36719,-0.1816 0.33688,-0.385 0.0807,-0.7748 -0.34375,-0.7656 0.15093,0.2242 0.15394,0.51 -0.13672,0.3496 -0.34708,-0.1915 -0.16989,-0.6171 -0.1289,-0.7051 0.13427,-0.021 0.23632,-0.1369 0.23632,-0.2773 l 0,-0.022 c 0,-0.1342 -0.0934,-0.2453 -0.21875,-0.2735 0.0435,-0.4857 0.27964,-1.0606 0.54688,-1.0781 0.27303,-0.017 0.49313,0.1874 0.23437,0.5235 0.72765,0.014 1.16743,-0.5709 0.58985,-1.1485 -0.21342,-0.2057 -0.41454,-0.2782 -0.62696,-0.2695 -0.22408,0.01 -0.46109,0.1099 -0.73242,0.2441 0.0944,-0.2157 0.14649,-0.4518 0.14649,-0.6933 0,-0.6901 -0.26797,-0.88 -0.65821,-1.6914 -0.39025,0.8114 -0.658203,1.0013 -0.658203,1.6914 3.8e-4,0.2417 0.05,0.4775 0.14453,0.6933 -0.52784,-0.2607 -0.9212,-0.3972 -1.35937,0.025 -0.57757,0.5776 -0.13586,1.1626 0.59179,1.1485 -0.25875,-0.3362 -0.0406,-0.541 0.23242,-0.5235 0.26725,0.017 0.50534,0.5944 0.54883,1.0801 -0.12559,0.029 -0.2207,0.1372 -0.2207,0.2715 l 0,0.022 c 0,0.1405 0.1039,0.256 0.23828,0.2773 0.041,0.088 0.218183,0.5137 -0.12891,0.7051 -0.29064,0.1604 -0.28764,-0.1254 -0.13671,-0.3496 -0.42442,-0.01 -0.68064,0.3806 -0.34375,0.7656 0.12448,0.1373 0.24329,0.1874 0.36718,0.1816 0.0221,0 0.0438,3e-4 0.0664,-0.01 l -0.0566,0.1679 c -0.0313,0.094 0.076,0.1787 0.17578,0.1836 l 0,0.209 0,0.7324 0,0.6915 c -1.38124,-0.9303 -2.80133,-1.8253 -4.26172,-2.6543 l 0,-1.1133 0,-0.334 0,-0.3828 0,-0.5586 c 0.0998,0 0.20699,-0.088 0.17578,-0.1817 l -0.0566,-0.1699 c 0.0225,0 0.0442,0.01 0.0664,0.01 0.1239,0.01 0.24271,-0.043 0.36719,-0.1797 0.33687,-0.385 0.0807,-0.7748 -0.34375,-0.7656 0.15093,0.2243 0.15394,0.51 -0.13672,0.3496 -0.34708,-0.1914 -0.16792,-0.6191 -0.12696,-0.7071 0.13429,-0.021 0.23633,-0.1349 0.23633,-0.2753 l 0,-0.022 c 0,-0.1342 -0.0953,-0.2453 -0.2207,-0.2735 0.0435,-0.4857 0.27962,-1.0606 0.54687,-1.0781 0.27304,-0.017 0.49314,0.1872 0.23438,0.5234 0.72765,0.014 1.16938,-0.5708 0.5918,-1.1484 -0.21342,-0.2058 -0.41649,-0.2782 -0.62891,-0.2695 -0.22407,0.01 -0.45914,0.1098 -0.73047,0.2441 0.0945,-0.2158 0.14453,-0.4518 0.14453,-0.6933 0,-0.69 -0.26794,-0.88 -0.6582,-1.6914 -0.39024,0.8114 -0.6582,1.0014 -0.6582,1.6914 3.8e-4,0.2417 0.05,0.4775 0.14453,0.6933 -0.52782,-0.2608 -0.9212,-0.3964 -1.35938,0.025 -0.57757,0.5776 -0.13585,1.1606 0.5918,1.1465 -0.25876,-0.3362 -0.0387,-0.5409 0.23437,-0.5234 0.26724,0.017 0.50339,0.5942 0.54688,1.08 -0.12558,0.028 -0.21875,0.1393 -0.21875,0.2735 l 0,0.022 c 0,0.1405 0.10196,0.256 0.23633,0.2773 0.041,0.088 0.22011,0.5137 -0.12696,0.7051 -0.29066,0.1604 -0.28764,-0.1254 -0.13671,-0.3496 -0.42441,-0.01 -0.6826,0.3806 -0.34571,0.7656 0.12448,0.1374 0.24328,0.1856 0.36719,0.1797 0.0221,0 0.0438,2e-4 0.0664,-0.01 l -0.0566,0.1699 c -0.0312,0.094 0.076,0.1768 0.17578,0.1817 l 0,0.209 0,0.7324 0,0.8535 c -1.38382,-0.7416 -2.80305,-1.4155 -4.26172,-1.9941 l 0,-1.0899 0,-0.332 0,-0.3848 0,-0.5566 c 0.0998,0 0.20699,-0.09 0.17578,-0.1836 l -0.0547,-0.168 c 0.0225,0 0.0442,0.01 0.0664,0.01 0.1239,0.01 0.24271,-0.045 0.36719,-0.1817 0.33688,-0.3851 0.0787,-0.7729 -0.34571,-0.7636 0.15093,0.2241 0.15393,0.508 -0.13672,0.3476 -0.34708,-0.1915 -0.16791,-0.617 -0.12695,-0.705 0.13429,-0.022 0.23633,-0.137 0.23633,-0.2774 l 0,-0.019 c 0,-0.1342 -0.0933,-0.2454 -0.21875,-0.2735 0.0435,-0.4857 0.27964,-1.0624 0.54687,-1.08 0.27305,-0.017 0.49313,0.1873 0.23438,0.5234 0.72765,0.014 1.16743,-0.5689 0.58984,-1.1465 -0.21341,-0.2058 -0.41648,-0.2802 -0.6289,-0.2715 -0.22407,0.01 -0.45914,0.1099 -0.73047,0.2442 0.0944,-0.2158 0.14648,-0.4499 0.14648,-0.6914 0,-0.6901 -0.26991,-0.882 -0.66015,-1.6934 -0.39025,0.8114 -0.65821,1.0033 -0.65821,1.6934 3.9e-4,0.2417 0.052,0.4756 0.14649,0.6914 -0.52782,-0.2608 -0.92119,-0.3955 -1.35938,0.027 -0.57756,0.5777 -0.13779,1.1626 0.58985,1.1485 -0.25875,-0.3363 -0.0387,-0.5429 0.23437,-0.5254 0.26723,0.017 0.50339,0.5943 0.54688,1.08 -0.12558,0.029 -0.21875,0.1393 -0.21875,0.2735 l 0,0.022 c 0,0.1404 0.10195,0.2559 0.23632,0.2773 0.041,0.088 0.22012,0.5137 -0.12695,0.7051 -0.29066,0.1603 -0.28765,-0.1254 -0.13672,-0.3496 -0.42443,-0.01 -0.68258,0.3806 -0.3457,0.7656 0.12448,0.1373 0.24328,0.1874 0.36719,0.1816 0.0221,0 0.0438,3e-4 0.0664,-0.01 l -0.0566,0.1679 c -0.0312,0.094 0.0779,0.1788 0.17774,0.1836 l 0,0.2071 0,0.7343 0,1.0079 c -1.38509,-0.4965 -2.80814,-0.8959 -4.26368,-1.1875 l 0,-1.0235 0,-0.334 0,-0.3828 0,-0.5566 c 0.0998,0 0.20895,-0.09 0.17774,-0.1836 l -0.0566,-0.1699 c 0.0225,0 0.0442,0.01 0.0664,0.01 0.1239,0.01 0.24272,-0.043 0.36719,-0.1797 0.33689,-0.385 0.0807,-0.7749 -0.34375,-0.7656 0.15092,0.2241 0.15393,0.51 -0.13672,0.3496 -0.34708,-0.1914 -0.16986,-0.617 -0.1289,-0.7051 0.13429,-0.021 0.23632,-0.1369 0.23632,-0.2773 l 0,-0.022 c 0,-0.1342 -0.0933,-0.2452 -0.21874,-0.2734 0.0435,-0.4856 0.27963,-1.0606 0.54687,-1.0781 0.27304,-0.017 0.49313,0.1873 0.23437,0.5234 0.72763,0.014 1.16744,-0.5708 0.58985,-1.1484 -0.21342,-0.2058 -0.4165,-0.2784 -0.62891,-0.2696 -0.22408,0.01 -0.45914,0.11 -0.73047,0.2442 0.0944,-0.2157 0.14649,-0.4499 0.14649,-0.6914 0,-0.6901 -0.26796,-0.882 -0.6582,-1.6934 -0.39001,0.8107 -0.66016,1.0015 -0.66016,1.6914 3.8e-4,0.2416 0.052,0.4776 0.14648,0.6934 -0.52784,-0.2609 -0.92119,-0.3974 -1.35937,0.025 -0.57756,0.5776 -0.1378,1.1625 0.58984,1.1484 -0.25875,-0.3362 -0.0387,-0.5428 0.23438,-0.5254 0.26724,0.017 0.50338,0.5945 0.54687,1.0801 -0.12558,0.028 -0.21875,0.1391 -0.21875,0.2734 l 0,0.019 c 0,0.1406 0.1039,0.256 0.23828,0.2774 0.041,0.088 0.21817,0.5136 -0.1289,0.7051 -0.29065,0.1604 -0.28765,-0.1236 -0.13672,-0.3477 -0.42443,-0.01 -0.68259,0.3786 -0.34571,0.7637 0.12447,0.1374 0.24329,0.1874 0.36719,0.1816 0.0221,0 0.0438,0 0.0664,-0.012 l -0.0547,0.1699 c -0.0313,0.094 0.076,0.1787 0.17578,0.1836 l 0,0.209 0,0.7324 0,1.166 c -0.80018,-0.1272 -1.60763,-0.2286 -2.42969,-0.2812 l -2.42773,0 -2.42578,0 c -0.82204,0.053 -1.62952,0.154 -2.42969,0.2812 l 0,-1.166 0,-0.7324 0,-0.209 c 0.0998,0 0.20698,-0.09 0.17578,-0.1836 l -0.0566,-0.1699 c 0.0226,0 0.0443,0.012 0.0664,0.012 0.1239,0.01 0.24272,-0.044 0.36719,-0.1816 0.33689,-0.3851 0.0788,-0.7731 -0.34571,-0.7637 0.15093,0.2241 0.15393,0.5081 -0.13672,0.3477 -0.34707,-0.1915 -0.16792,-0.6172 -0.12695,-0.7051 0.13437,-0.022 0.23633,-0.1369 0.23633,-0.2774 l 0,-0.019 c 0,-0.1343 -0.0932,-0.2453 -0.21875,-0.2734 0.0435,-0.4856 0.27963,-1.0628 0.54687,-1.0801 0.27302,-0.017 0.49314,0.1892 0.23438,0.5254 0.72765,0.014 1.16937,-0.5708 0.5918,-1.1484 -0.43817,-0.4225 -0.8335,-0.286 -1.36133,-0.025 0.0946,-0.2158 0.1461,-0.4518 0.14648,-0.6934 0,-0.6899 -0.26819,-0.8807 -0.6582,-1.6914 z m 2.96875,9.6152 0,2.3028 c -0.82181,0.053 -1.62927,0.1578 -2.42969,0.2871 l 0,-2.2891 c 0.801,-0.1357 1.60905,-0.2446 2.42969,-0.3008 z m 4.85351,0 c 0.82066,0.056 1.62868,0.1651 2.42969,0.3008 l 0,2.2891 c -0.80042,-0.1293 -1.60788,-0.2337 -2.42969,-0.2871 l 0,-2.3028 z m -8.36132,0.5059 0,2.2773 c -1.45503,0.2959 -2.8753,0.7016 -4.26172,1.2051 l 0,-2.2226 c 1.38985,-0.5247 2.80967,-0.9504 4.26172,-1.2598 z m 11.86914,0 c 1.45205,0.3094 2.87187,0.7351 4.26172,1.2598 l 0,2.2226 c -1.38641,-0.5035 -2.80667,-0.9092 -4.26172,-1.2051 l 0,-2.2773 z m -17.20703,1.6816 0,2.2168 c -1.45735,0.5851 -2.87873,1.2662 -4.26368,2.0157 l 0,-2.1465 c 1.38925,-0.7731 2.81019,-1.4808 4.26368,-2.086 z m 22.54492,0 c 1.45349,0.6052 2.87442,1.3129 4.26367,2.086 l 0,2.1465 c -1.38494,-0.7495 -2.80632,-1.4306 -4.26367,-2.0157 l 0,-2.2168 z m -13.69922,0.8457 0,2.3028 c -0.82204,0.053 -1.62952,0.156 -2.42969,0.2832 l 0,-1.9063 0,-0.3847 c 0.80085,-0.1335 1.60857,-0.2398 2.42969,-0.295 z m 4.85351,0 c 0.82115,0.055 1.62885,0.1615 2.42969,0.295 l 0,0.3847 0,1.9063 c -0.80018,-0.1272 -1.60763,-0.2306 -2.42969,-0.2832 l 0,-2.3028 z m -8.36132,0.4961 0,0.1836 0,2.0938 c -1.45558,0.2916 -2.87658,0.6929 -4.26172,1.1894 l 0,-1.748 0,-0.4766 c 1.3885,-0.5174 2.80874,-0.9373 4.26172,-1.2422 z m 11.86914,0 c 1.45298,0.3049 2.87323,0.7248 4.26172,1.2422 l 0,0.4766 0,1.748 c -1.38514,-0.4965 -2.80613,-0.8978 -4.26172,-1.1894 l 0,-2.0938 0,-0.1836 z m -22.54688,1.3555 0,2.1348 c -1.45877,0.8353 -2.87893,1.7372 -4.26172,2.6738 l 0,-2.0742 c 1.38893,-0.9562 2.80704,-1.8798 4.26172,-2.7344 z m 33.22461,0 c 1.45469,0.8546 2.87279,1.7782 4.26172,2.7344 l 0,2.0742 c -1.38278,-0.9366 -2.80295,-1.8385 -4.26172,-2.6738 l 0,-2.1348 z m -5.33984,0.3027 c 1.45478,0.5984 2.876,1.2955 4.26367,2.0606 l 0,0.5644 0,1.5899 c -1.38382,-0.7418 -2.805,-1.4138 -4.26367,-1.9922 l 0,-2.1621 0,-0.061 z m -22.54492,0 0,0.059 0,2.1621 c -1.45866,0.5784 -2.87985,1.2504 -4.26368,1.9922 l 0,-1.5899 0,-0.5644 c 1.38767,-0.7651 2.8089,-1.4602 4.26368,-2.0586 z m 8.8457,1.6055 0,36.54295 -2.42969,0 0,-36.24225 c 0.801,-0.1357 1.60905,-0.2445 2.42969,-0.3007 z m 4.85351,0 c 0.82066,0.056 1.62868,0.165 2.42969,0.3007 l 0,36.24225 -2.42969,0 0,-36.54295 z m -8.36132,0.5058 0,36.03715 -4.26172,0 0,-34.77735 c 1.38985,-0.5247 2.80967,-0.9505 4.26172,-1.2598 z m 11.86914,0 c 1.45205,0.3093 2.87187,0.7351 4.26172,1.2598 l 0,34.77735 -4.26172,0 0,-36.03715 z m -22.54688,0.5606 0,2.1367 c -1.46039,0.8291 -2.88048,1.72202 -4.26172,2.65232 l 0,-1.42972 0,-0.6464 c 1.3866,-0.9495 2.80585,-1.8648 4.26172,-2.7129 z m 33.22461,0 c 1.45588,0.8481 2.87512,1.7634 4.26172,2.7129 l 0,0.6464 0,1.42972 c -1.38123,-0.9303 -2.80133,-1.82322 -4.26172,-2.65232 l 0,-2.1367 z m -38.56445,0.5117 0,2.0605 c -0.98332,0.6858 -1.94953,1.38292 -2.89649,2.08012 -0.47024,0.3463 -0.90329,0.6698 -1.36523,1.0137 l 0,-2.02542 c 0.67438,-0.5068 1.32281,-0.9972 2.01367,-1.5059 0.73985,-0.5448 1.4898,-1.0866 2.24805,-1.623 z m 43.904303,0 c 0.75826,0.5364 1.51016,1.0782 2.25,1.623 0.69086,0.5087 1.33734,0.9991 2.01171,1.5059 l 0,2.02542 c -0.46194,-0.3439 -0.89499,-0.6674 -1.36523,-1.0137 -0.94696,-0.6972 -1.91316,-1.39432 -2.89648,-2.08012 l 0,-2.0605 z m -33.224613,0.6094 0,34.35545 -4.26368,0 0,-32.26955 c 1.38925,-0.773 2.81019,-1.4806 4.26368,-2.0859 z m 22.54492,0 c 1.45349,0.6053 2.87442,1.3129 4.26367,2.0859 l 0,32.26955 -4.26367,0 0,-34.35545 z m -33.22461,2.3378 0,2.06842 c -1.05921,0.7354 -2.09821,1.4831 -3.11328,2.2305 -0.39618,0.2917 -0.75827,0.5599 -1.14844,0.8496 l 0,-1.3652 0,-0.6622 c 0.60378,-0.4523 1.17949,-0.8852 1.79688,-1.3398 0.81033,-0.5967 1.63088,-1.194 2.46484,-1.78132 z m 43.904303,0 c 0.83396,0.58732 1.65448,1.18462 2.46484,1.78132 0.61736,0.4546 1.19309,0.8875 1.79687,1.3398 l 0,0.6622 0,1.3652 c -0.39016,-0.2897 -0.75224,-0.5579 -1.14843,-0.8496 -1.01505,-0.7474 -2.05407,-1.4951 -3.11328,-2.2305 l 0,-2.06842 z m -38.564463,0.35942 0,31.65823 -4.26172,0 0,-28.92193 c 1.38893,-0.9561 2.80704,-1.8816 4.26172,-2.7363 z m 33.22461,0 c 1.45469,0.8547 2.87279,1.7801 4.26172,2.7363 l 0,28.92193 -4.26172,0 0,-31.65823 z m -43.90234,0.627 0,2.0195 c -1.45056,1.0824 -2.89406,2.1503 -4.26367,3.1191 l 0,-2.0097 c 1.38041,-0.9677 2.82183,-2.044 4.26367,-3.1289 z m 54.580083,0 c 1.44182,1.0849 2.88325,2.1612 4.26367,3.1289 l 0,2.0097 c -1.36963,-0.9688 -2.81311,-2.0367 -4.26367,-3.1191 l 0,-2.0195 z m -49.242193,2.8613 0,28.16993 -4.26172,0 0,-25.041 c 0.67438,-0.50693 1.32281,-0.99693 2.01367,-1.50593 0.73985,-0.5446 1.4898,-1.0865 2.24805,-1.623 z m 43.904303,0 c 0.75826,0.5365 1.51016,1.0783 2.25,1.623 0.69086,0.509 1.33734,0.999 2.01171,1.50593 l 0,25.041 -4.26171,0 0,-28.16993 z m -49.242193,0.078 0,2.0196 c -1.45325,1.08173 -2.89689,2.14673 -4.26367,3.11523 l 0,-1.377 0,-0.6347 c 1.37647,-0.96833 2.81874,-2.03893 4.26367,-3.12313 z m 54.580083,0 c 1.44492,1.0842 2.88719,2.1548 4.26367,3.12313 l 0,0.6347 0,1.377 c -1.3668,-0.9685 -2.81043,-2.0335 -4.26367,-3.11523 l 0,-2.0196 z m -59.919933,0.9297 0,2.02543 c -1.4654,1.0019 -2.88636,1.8947 -4.26171,2.6094 l 0,-2.1309 c 1.39959,-0.68073 2.8167,-1.53273 4.26171,-2.50393 z m 65.259773,0 c 1.445,0.9712 2.86212,1.8232 4.26172,2.50393 l 0,2.1309 c -1.37536,-0.7147 -2.79632,-1.6075 -4.26172,-2.6094 l 0,-2.02543 z m -59.919923,2.92583 0,24.2363 -4.26367,0 0,-21.1074 c 1.38041,-0.9678 2.82183,-2.0439 4.26367,-3.1289 z m 54.580083,0 c 1.44182,1.085 2.88325,2.1611 4.26367,3.1289 l 0,21.1074 -4.26367,0 0,-24.2363 z m -59.919933,0.014 0,2.0273 c -1.47305,1.0116 -2.89339,1.911 -4.26171,2.6367 l 0,-1.5879 0,-0.5351 c 1.39158,-0.6923 2.80975,-1.5588 4.26171,-2.541 z m 65.259773,0 c 1.45195,0.9822 2.87013,1.8487 4.26172,2.541 l 0,0.5351 0,1.5879 c -1.36833,-0.7257 -2.78867,-1.6251 -4.26172,-2.6367 l 0,-2.0273 z m -70.599613,0.051 0,2.1719 c -0.80973,0.3699 -1.60166,0.6624 -2.3808595,0.8809 l 0,-2.2402 c 0.7897695,-0.1951 1.5826895,-0.4769 2.3808595,-0.8126 z m 75.939453,0 c 0.79818,0.3358 1.59109,0.6176 2.38086,0.8126 l 0,2.2402 c -0.77919,-0.2185 -1.57113,-0.511 -2.38086,-0.8809 l 0,-2.1719 z m -75.939453,2.9903 0,0.035 0,2.127 c -0.8134,0.3814 -1.60629,0.6892 -2.3808595,0.916 l 0,-2.2402 c 0.7860095,-0.2024 1.5795995,-0.4914 2.3808595,-0.8379 z m 75.939453,0 c 0.80127,0.3465 1.59484,0.6354 2.38086,0.8379 l 0,2.2402 c -0.77457,-0.2267 -1.56744,-0.5345 -2.38086,-0.916 l 0,-2.127 0,-0.035 z m -70.599613,0.8144 0,20.3653 -4.26171,0 0,-17.8614 c 1.39959,-0.6808 2.8167,-1.5326 4.26171,-2.5039 z m 65.259773,0 c 1.445,0.9713 2.86212,1.8231 4.26172,2.5039 l 0,17.8614 -4.26172,0 0,-20.3653 z m -70.599613,2.9922 0,17.3731 -2.3808595,0 0,-16.5625 c 0.7897695,-0.1949 1.5826895,-0.475 2.3808595,-0.8106 z m 75.939453,0 c 0.79818,0.3356 1.59109,0.6157 2.38086,0.8106 l 0,16.5625 -2.38086,0 0,-17.3731 z"
       style="color:#000000;font-style:normal;font-variant:normal;font-weight:normal;font-stretch:normal;font-size:medium;line-height:normal;font-family:sans-serif;text-indent:0;text-align:start;text-decoration:none;text-decoration-line:none;text-decoration-style:solid;text-decoration-color:#000000;letter-spacing:normal;word-spacing:normal;text-transform:none;direction:ltr;block-progression:tb;writing-mode:lr-tb;baseline-shift:baseline;text-anchor:start;white-space:normal;clip-rule:nonzero;display:inline;overflow:visible;visibility:visible;opacity:1;isolation:auto;mix-blend-mode:normal;color-interpolation:sRGB;color-interpolation-filters:linearRGB;solid-color:#000000;solid-opacity:1;fill:#000000;fill-opacity:1;fill-rule:evenodd;stroke:none;stroke-width:3;stroke-linecap:butt;stroke-linejoin:miter;stroke-miterlimit:4;stroke-dasharray:none;stroke-dashoffset:0;stroke-opacity:1;color-rendering:auto;image-rendering:auto;shape-rendering:auto;text-rendering:auto;enable-background:accumulate" />
  </g>
  <g
     transform="matrix(5.5510025,0,0,5.5510025,309.49957,-5397.3201)"
     id="g3344">
    <path
       style="color:#000000;font-style:normal;font-variant:normal;font-weight:normal;font-stretch:normal;font-size:medium;line-height:normal;font-family:sans-serif;text-indent:0;text-align:start;text-decoration:none;text-decoration-line:none;text-decoration-style:solid;text-decoration-color:#000000;letter-spacing:normal;word-spacing:normal;text-transform:none;direction:ltr;block-progression:tb;writing-mode:lr-tb;baseline-shift:baseline;text-anchor:start;white-space:normal;clip-rule:nonzero;display:inline;overflow:visible;visibility:visible;opacity:1;isolation:auto;mix-blend-mode:normal;color-interpolation:sRGB;color-interpolation-filters:linearRGB;solid-color:#000000;solid-opacity:1;fill:#000000;fill-opacity:1;fill-rule:evenodd;stroke:none;stroke-width:3;stroke-linecap:butt;stroke-linejoin:miter;stroke-miterlimit:4;stroke-dasharray:none;stroke-dashoffset:0;stroke-opacity:1;color-rendering:auto;image-rendering:auto;shape-rendering:auto;text-rendering:auto;enable-background:accumulate"
       d="m 44.605208,972.29105 c -0.39024,0.8114 -0.6582,1.0033 -0.6582,1.6934 0,0.2415 0.0521,0.4757 0.14648,0.6914 -0.27133,-0.1342 -0.50834,-0.235 -0.73242,-0.2442 -0.21242,-0.01 -0.41354,0.063 -0.62695,0.2696 -0.57759,0.5776 -0.13781,1.1625 0.58984,1.1484 -0.25876,-0.3361 -0.0387,-0.541 0.23437,-0.5234 0.26725,0.017 0.50339,0.5925 0.54688,1.0781 -0.12541,0.029 -0.21875,0.1392 -0.21875,0.2734 l 0,0.022 c 0,0.1404 0.10202,0.2561 0.23633,0.2773 0.041,0.088 0.21817,0.5137 -0.12891,0.7051 -0.29066,0.1604 -0.28765,-0.1255 -0.13672,-0.3496 -0.42442,-0.01 -0.68063,0.3806 -0.34375,0.7656 0.12448,0.1372 0.24328,0.1855 0.36719,0.1797 0.0221,0 0.0438,-0.01 0.0664,-0.01 l -0.0566,0.1699 c -0.0313,0.094 0.0779,0.1793 0.17773,0.1836 l 0,0.5566 0,0.3828 0,0.334 0,1.0235 c -1.45553,0.2916 -2.87858,0.691 -4.26367,1.1875 l 0,-1.0079 0,-0.7343 0,-0.2071 c 0.0998,0 0.20698,-0.09 0.17578,-0.1836 l -0.0547,-0.1679 c 0.0225,0 0.0443,0.01 0.0664,0.01 0.12391,0.01 0.24271,-0.045 0.36719,-0.1816 0.33688,-0.385 0.0788,-0.775 -0.34571,-0.7656 0.15093,0.2242 0.15394,0.5099 -0.13672,0.3496 -0.34707,-0.1914 -0.16791,-0.6171 -0.12695,-0.7051 0.13438,-0.021 0.23633,-0.1369 0.23633,-0.2773 l 0,-0.022 c 0,-0.1342 -0.0932,-0.2455 -0.21875,-0.2735 0.0435,-0.4857 0.27963,-1.0628 0.54687,-1.08 0.27303,-0.017 0.49314,0.1892 0.23438,0.5254 0.72765,0.014 1.16741,-0.5708 0.58984,-1.1485 -0.43818,-0.4223 -0.83155,-0.2877 -1.35937,-0.027 0.0945,-0.2158 0.14609,-0.4497 0.14648,-0.6914 0,-0.6901 -0.26989,-0.882 -0.66015,-1.6934 -0.39024,0.8114 -0.65821,1.0033 -0.65821,1.6934 0,0.2415 0.0521,0.4756 0.14649,0.6914 -0.27133,-0.1343 -0.5064,-0.2349 -0.73047,-0.2442 -0.21243,-0.01 -0.4155,0.065 -0.62891,0.2715 -0.57759,0.5776 -0.1378,1.1606 0.58985,1.1465 -0.25876,-0.3361 -0.0387,-0.5409 0.23437,-0.5234 0.26724,0.017 0.50338,0.5943 0.54688,1.08 -0.12542,0.029 -0.21875,0.1393 -0.21875,0.2735 l 0,0.019 c 0,0.1404 0.10202,0.256 0.23632,0.2774 0.041,0.088 0.21818,0.5135 -0.1289,0.705 -0.29066,0.1604 -0.2857,-0.1235 -0.13477,-0.3476 -0.42441,-0.01 -0.68258,0.3785 -0.3457,0.7636 0.12448,0.1372 0.24328,0.1874 0.36719,0.1817 0.0221,0 0.0438,-0.01 0.0664,-0.01 l -0.0547,0.168 c -0.0313,0.094 0.076,0.1793 0.17579,0.1836 l 0,0.5566 0,0.3848 0,0.332 0,1.0899 c -1.45867,0.5786 -2.8779,1.2525 -4.26172,1.9941 l 0,-0.8535 0,-0.7324 0,-0.209 c 0.0998,0 0.20697,-0.088 0.17578,-0.1817 l -0.0566,-0.1699 c 0.0226,0 0.0443,0.01 0.0664,0.01 0.12391,0.01 0.24271,-0.043 0.36719,-0.1797 0.33689,-0.385 0.0788,-0.7749 -0.3457,-0.7656 0.15093,0.2242 0.15393,0.51 -0.13672,0.3496 -0.34707,-0.1914 -0.16791,-0.617 -0.12695,-0.7051 0.13437,-0.021 0.23632,-0.1368 0.23633,-0.2773 l 0,-0.022 c 0,-0.1342 -0.0932,-0.2454 -0.21876,-0.2735 0.0435,-0.4858 0.27964,-1.0629 0.54688,-1.08 0.27302,-0.017 0.49314,0.1872 0.23438,0.5234 0.72765,0.014 1.16741,-0.5689 0.58984,-1.1465 -0.43818,-0.4223 -0.83156,-0.2867 -1.35938,-0.025 0.0945,-0.2158 0.14611,-0.4516 0.14649,-0.6933 0,-0.69 -0.26796,-0.88 -0.65821,-1.6914 -0.39026,0.8114 -0.66015,1.0014 -0.66015,1.6914 0,0.2415 0.0521,0.4775 0.14648,0.6933 -0.27133,-0.1343 -0.5064,-0.2348 -0.73047,-0.2441 -0.21242,-0.01 -0.41548,0.063 -0.6289,0.2695 -0.57758,0.5776 -0.13586,1.1625 0.5918,1.1484 -0.25875,-0.336 -0.0406,-0.541 0.23242,-0.5234 0.26725,0.017 0.50535,0.5924 0.54882,1.0781 -0.1254,0.029 -0.2207,0.1393 -0.2207,0.2735 l 0,0.022 c 0,0.1404 0.10203,0.254 0.23633,0.2753 0.041,0.088 0.22013,0.5157 -0.12695,0.7071 -0.29065,0.1604 -0.28765,-0.1253 -0.13672,-0.3496 -0.42441,-0.01 -0.68062,0.3806 -0.34375,0.7656 0.12448,0.1371 0.24133,0.1854 0.36523,0.1797 0.0221,0 0.0438,-0.01 0.0664,-0.01 l -0.0547,0.1699 c -0.0313,0.094 0.0759,0.1774 0.17578,0.1817 l 0,0.5586 0,0.3828 0,0.334 0,1.1133 c -1.46039,0.829 -2.88049,1.7241 -4.26172,2.6543 l 0,-0.6915 0,-0.7324 0,-0.209 c 0.0998,0 0.20698,-0.09 0.17578,-0.1836 l -0.0566,-0.1679 c 0.0226,0 0.0443,0.01 0.0664,0.01 0.1239,0.01 0.24271,-0.045 0.36719,-0.1816 0.33689,-0.385 0.0807,-0.7749 -0.34375,-0.7656 0.15093,0.2242 0.15393,0.51 -0.13672,0.3496 -0.34707,-0.1914 -0.16988,-0.6171 -0.12891,-0.7051 0.13437,-0.021 0.23828,-0.1368 0.23828,-0.2773 l 0,-0.022 c 0,-0.1343 -0.0951,-0.2433 -0.2207,-0.2715 0.0435,-0.4857 0.27964,-1.063 0.54688,-1.0801 0.27302,-0.017 0.49313,0.1873 0.23437,0.5235 0.72765,0.014 1.16937,-0.5709 0.5918,-1.1485 -0.43817,-0.4223 -0.83155,-0.2859 -1.35938,-0.025 0.0945,-0.2158 0.14415,-0.4516 0.14453,-0.6933 0,-0.6901 -0.26795,-0.88 -0.6582,-1.6914 -0.39025,0.8114 -0.6582,1.0013 -0.6582,1.6914 0,0.2415 0.0521,0.4776 0.14648,0.6933 -0.27133,-0.1342 -0.50834,-0.2349 -0.73242,-0.2441 -0.21242,-0.01 -0.4155,0.063 -0.62891,0.2695 -0.57759,0.5776 -0.13585,1.1626 0.5918,1.1485 -0.25876,-0.3361 -0.0387,-0.5412 0.23438,-0.5235 0.26725,0.017 0.50338,0.5924 0.54687,1.0781 -0.12541,0.029 -0.21875,0.1393 -0.21875,0.2735 l 0,0.022 c 0,0.1404 0.10201,0.256 0.23633,0.2773 0.041,0.088 0.21817,0.5136 -0.12891,0.7051 -0.29066,0.1604 -0.28765,-0.1254 -0.13672,-0.3496 -0.42441,-0.01 -0.68063,0.3806 -0.34375,0.7656 0.12448,0.1371 0.24329,0.1873 0.36719,0.1816 0.0221,0 0.0438,-0.01 0.0664,-0.01 l -0.0566,0.1679 c -0.0313,0.094 0.076,0.1793 0.17578,0.1836 l 0,0.5567 0,0.3847 0,0.3321 0,1.0957 c -1.0592,0.7353 -2.09823,1.4829 -3.11328,2.2304 -0.39619,0.2916 -0.75827,0.5619 -1.14844,0.8516 l 0,-0.6269 0,-0.7325 0,-0.2089 c 0.0998,0 0.20698,-0.09 0.17578,-0.1836 l -0.0547,-0.168 c 0.0225,0 0.0443,0.01 0.0664,0.01 0.1239,0.01 0.24271,-0.045 0.36719,-0.1817 0.33688,-0.385 0.0788,-0.775 -0.34571,-0.7656 0.15093,0.2241 0.15394,0.51 -0.13671,0.3496 -0.34707,-0.1914 -0.16987,-0.617 -0.12891,-0.7051 0.13438,-0.021 0.23828,-0.1368 0.23828,-0.2773 l 0,-0.022 c 0,-0.1343 -0.0932,-0.2433 -0.21875,-0.2715 0.0435,-0.4857 0.27965,-1.0629 0.54688,-1.0801 0.27304,-0.017 0.49312,0.1873 0.23437,0.5235 0.72765,0.014 1.16741,-0.5708 0.58984,-1.1485 -0.43818,-0.4223 -0.83153,-0.2858 -1.35937,-0.025 0.0946,-0.2158 0.14609,-0.4516 0.14648,-0.6933 0,-0.69 -0.2699,-0.8799 -0.66015,-1.6914 -0.39024,0.8115 -0.65821,1.0013 -0.65821,1.6914 0,0.2415 0.0521,0.4775 0.14649,0.6933 -0.27133,-0.1343 -0.5064,-0.2348 -0.73047,-0.2441 -0.21243,-0.01 -0.41549,0.063 -0.62891,0.2695 -0.57758,0.5776 -0.1378,1.1625 0.58985,1.1485 -0.25876,-0.3362 -0.0387,-0.5411 0.23437,-0.5235 0.26723,0.017 0.50337,0.5924 0.54688,1.0782 -0.12543,0.029 -0.21875,0.1392 -0.21875,0.2734 l 0,0.022 c 0,0.1404 0.10203,0.2561 0.23633,0.2773 0.041,0.088 0.21817,0.5137 -0.12891,0.7051 -0.29066,0.1604 -0.28765,-0.1255 -0.13672,-0.3496 -0.42441,-0.01 -0.68063,0.3806 -0.34375,0.7656 0.12448,0.1372 0.24328,0.1875 0.36719,0.1817 0.0221,0 0.0438,-0.012 0.0664,-0.012 l -0.0566,0.17 c -0.0313,0.094 0.0779,0.1792 0.17774,0.1836 l 0,0.5566 0,0.3848 0,0.332 0,1.0918 c -1.45325,1.08162 -2.89688,2.14662 -4.26367,3.11522 l 0,-0.6406 0,-0.7324 0,-0.209 c 0.0998,0 0.20892,-0.09 0.17773,-0.1836 l -0.0566,-0.168 c 0.0226,0 0.0443,0.01 0.0664,0.01 0.1239,0.01 0.24271,-0.043 0.36718,-0.17972 0.3369,-0.3851 0.0788,-0.775 -0.3457,-0.7656 0.15092,0.2241 0.15393,0.51 -0.13672,0.3496 -0.34706,-0.1915 -0.16791,-0.6172 -0.12695,-0.7051 0.13438,-0.021 0.23633,-0.1368 0.23633,-0.2773 l 0,-0.02 c 0,-0.1343 -0.0932,-0.2472 -0.21875,-0.2754 0.0435,-0.4856 0.27963,-1.0608 0.54687,-1.0781 0.27303,-0.017 0.49313,0.1873 0.23438,0.5235 0.72764,0.014 1.16741,-0.569 0.58984,-1.1465 -0.43818,-0.4225 -0.83154,-0.2879 -1.35937,-0.027 0.0945,-0.2158 0.14609,-0.4517 0.14648,-0.6933 0,-0.6901 -0.26796,-0.8799 -0.6582,-1.6914 -0.39025,0.8115 -0.66016,1.0013 -0.66016,1.6914 0,0.2414 0.0521,0.4776 0.14649,0.6933 -0.27132,-0.1342 -0.5064,-0.2349 -0.73047,-0.2441 -0.21242,-0.01 -0.41548,0.063 -0.62891,0.2695 -0.57758,0.5776 -0.13779,1.1625 0.58984,1.1485 -0.25874,-0.3362 -0.0387,-0.541 0.23438,-0.5235 0.26724,0.017 0.50337,0.5925 0.54687,1.0781 -0.12543,0.029 -0.21875,0.1393 -0.21875,0.2735 l 0,0.022 c 0,0.1405 0.10203,0.254 0.23633,0.2754 0.041,0.088 0.22013,0.5155 -0.12695,0.707 -0.29065,0.1604 -0.28765,-0.1255 -0.13672,-0.3496 -0.42442,-0.01 -0.68258,0.3805 -0.3457,0.7656 0.12448,0.13722 0.24328,0.18542 0.36718,0.17972 0.0221,0 0.0438,2e-4 0.0664,-0.01 l -0.0547,0.168 c -0.0313,0.094 0.076,0.1793 0.17578,0.1836 l 0,0.5566 0,0.3848 0,0.332 0,1.0684 c -1.47305,1.0117 -2.89338,1.9131 -4.26171,2.6387 l 0,-0.8516 0,-0.7324 0,-0.209 c 0.0998,0 0.20698,-0.088 0.17578,-0.1817 l -0.0566,-0.1699 c 0.0226,0 0.0443,0.01 0.0664,0.01 0.12391,0.01 0.24271,-0.043 0.36719,-0.1797 0.3369,-0.385 0.0788,-0.7749 -0.3457,-0.7656 0.15092,0.2243 0.15393,0.51 -0.13672,0.3496 -0.34707,-0.1914 -0.1679,-0.6171 -0.12696,-0.7051 0.13441,-0.021 0.23633,-0.1368 0.23633,-0.2773 l 0,-0.022 c 0,-0.1343 -0.0932,-0.2453 -0.21875,-0.2735 0.0435,-0.4856 0.27965,-1.0609 0.54688,-1.0781 0.27303,-0.017 0.493111,0.1873 0.23437,0.5235 0.72763,0.014 1.16937,-0.5709 0.5918,-1.14852 -0.43817,-0.4224 -0.83349,-0.2858 -1.36133,-0.025 0.0945,-0.2158 0.14612,-0.4516 0.14649,-0.6933 0,-0.69 -0.26796,-0.882 -0.65821,-1.6934 -0.39024,0.8114 -0.6582,1.0033 -0.6582,1.6934 0,0.2415 0.0501,0.4775 0.14453,0.6933 -0.271329,-0.1342 -0.50638,-0.2369 -0.730469,-0.2461 -0.21241,-0.01 -0.41548,0.065 -0.6289,0.2715 -0.57759,0.57762 -0.13585,1.16252 0.59179,1.14852 -0.25875,-0.3362 -0.0387,-0.5412 0.23438,-0.5235 0.26724,0.017 0.50337,0.5924 0.54687,1.0781 -0.12542,0.029 -0.2207,0.1394 -0.2207,0.2735 l 0,0.022 c 0,0.1403 0.10201,0.2561 0.23633,0.2773 0.041,0.088 0.22012,0.5137 -0.12695,0.7051 -0.29067,0.1603 -0.28764,-0.1236 -0.13672,-0.3477 -0.42441,-0.01 -0.68063,0.3788 -0.34375,0.7637 0.12448,0.1372 0.24329,0.1873 0.36718,0.1816 0.0221,0 0.0438,0 0.0664,-0.012 l -0.0566,0.1699 c -0.0313,0.094 0.0759,0.1793 0.17578,0.1836 l 0,0.5567 0,0.3828 0,0.332 0,1.0586 c -0.81341,0.3815 -1.60629,0.68933 -2.3808605,0.91603 l 0,-3.20703 0.9277405,0 0,-1.0762 -1.9316405,0 c 0.0111,-0.1786 0.0322,-0.3288 0.0723,-0.3984 0.1867,-0.3234 0.4683,-0.6443 0.46875,-1.043 -1.7e-4,-0.7721 -0.62624,-1.39822 -1.39844,-1.39842 -0.7722,2e-4 -1.39827,0.62632 -1.39843,1.39842 4.5e-4,0.3987 0.28205,0.7196 0.46875,1.043 0.0403,0.07 0.0612,0.2198 0.0723,0.3984 l -1.93164,0 0,1.0762 0.92969,0 0,34.21883 -0.92969,0 0,1.0761 5.5781305,0 0,-1.0761 -0.9277405,0 0,-5.0372 2.3808605,0 0,5.0372 1.07813,0 0,-5.0372 4.26171,0 0,5.0372 1.07618,0 0,-5.0372 4.26367,0 0,5.0372 1.07617,0 0,-5.0372 4.261719,0 0,5.0372 1.07812,0 0,-5.0372 4.26172,0 0,5.0372 1.07617,0 0,-5.0372 4.26368,0 0,5.0372 1.07617,0 0,-5.0372 4.26172,0 0,5.0372 1.07812,0 0,-5.0372 2.42969,0 0,0.5372 0,3.6191 0,1.957 2.42578,0 2.42773,0 0,-1.957 0,-3.6191 0,-0.5372 2.42969,0 0,5.0372 1.07813,0 0,-5.0372 4.26172,0 0,5.0372 1.07617,0 0,-5.0372 4.26367,0 0,5.0372 1.07617,0 0,-5.0372 4.26172,0 0,5.0372 1.078133,0 0,-5.0372 4.26171,0 0,5.0372 1.07618,0 0,-5.0372 4.26367,0 0,5.0372 1.07617,0 0,-5.0372 4.26172,0 0,5.0372 1.07812,0 0,-5.0372 2.38086,0 0,5.0372 -0.92773,0 0,1.0761 5.57617,0 0,-1.0761 -0.92773,0 0,-34.21883 0.92773,0 0,-1.0762 -1.92969,0 c 0.0111,-0.1786 0.0321,-0.3288 0.0723,-0.3984 0.1867,-0.3234 0.4683,-0.6443 0.46875,-1.043 -1.6e-4,-0.7721 -0.62624,-1.39822 -1.39844,-1.39842 -0.7722,2e-4 -1.39827,0.62632 -1.39844,1.39842 4.5e-4,0.3987 0.28205,0.7196 0.46875,1.043 0.0402,0.07 0.0612,0.2198 0.0723,0.3984 l -1.93164,0 0,1.0762 0.92773,0 0,3.20703 c -0.77457,-0.2267 -1.56744,-0.53453 -2.38086,-0.91603 l 0,-1.0586 0,-0.332 0,-0.3828 0,-0.5567 c 0.0998,0 0.20698,-0.09 0.17579,-0.1836 l -0.0566,-0.1699 c 0.0226,0 0.0442,0.012 0.0664,0.012 0.123891,0.01 0.242711,-0.044 0.36719,-0.1816 0.33688,-0.3849 0.0807,-0.7729 -0.34375,-0.7637 0.15092,0.2241 0.15394,0.508 -0.13672,0.3477 -0.34708,-0.1914 -0.1679,-0.617 -0.126949,-0.7051 0.134289,-0.021 0.234369,-0.137 0.234369,-0.2773 l 0,-0.022 c 0,-0.1341 -0.0933,-0.2454 -0.21875,-0.2735 0.0435,-0.4857 0.279641,-1.0607 0.546881,-1.0781 0.273039,-0.017 0.49312,0.1873 0.234369,0.5235 0.72764,0.014 1.169391,-0.5709 0.591801,-1.14852 -0.21342,-0.2057 -0.4165,-0.2802 -0.62891,-0.2715 -0.224091,0.01 -0.459141,0.1119 -0.73047,0.2461 0.0944,-0.2158 0.14453,-0.4518 0.14453,-0.6933 0,-0.6901 -0.26796,-0.882 -0.6582,-1.6934 -0.39025,0.8114 -0.6582,1.0034 -0.6582,1.6934 3.7e-4,0.2417 0.05,0.4775 0.14453,0.6933 -0.52784,-0.2607 -0.92121,-0.3973 -1.35938,0.025 -0.57757,0.57762 -0.13584,1.16262 0.5918,1.14852 -0.25875,-0.3362 -0.0387,-0.541 0.23438,-0.5235 0.26724,0.017 0.50338,0.5925 0.54687,1.0781 -0.12558,0.029 -0.21875,0.1392 -0.21875,0.2735 l 0,0.022 c 0,0.1405 0.10194,0.256 0.23633,0.2773 0.041,0.088 0.21815,0.5137 -0.12891,0.7051 -0.29066,0.1604 -0.28568,-0.1253 -0.13476,-0.3496 -0.42442,-0.01 -0.68261,0.3806 -0.34571,0.7656 0.12448,0.1374 0.24328,0.1855 0.36719,0.1797 0.0221,0 0.0438,2e-4 0.0664,-0.01 l -0.0566,0.1699 c -0.0313,0.094 0.076,0.1768 0.17578,0.1817 l 0,0.209 0,0.7324 0,0.8516 c -1.36833,-0.7256 -2.78867,-1.627 -4.26172,-2.6387 l 0,-1.0684 0,-0.332 0,-0.3848 0,-0.5566 c 0.0998,0 0.20699,-0.09 0.17578,-0.1836 l -0.0547,-0.168 c 0.0225,0 0.0442,0.01 0.0664,0.01 0.12389,0.01 0.24271,-0.043 0.36719,-0.17972 0.33688,-0.3851 0.0787,-0.7748 -0.34571,-0.7656 0.15092,0.2241 0.15395,0.51 -0.13671,0.3496 -0.34708,-0.1915 -0.16792,-0.6191 -0.12696,-0.707 0.13429,-0.022 0.23633,-0.1349 0.23633,-0.2754 l 0,-0.022 c 0,-0.1342 -0.0933,-0.2453 -0.21875,-0.2735 0.0435,-0.4856 0.27964,-1.0606 0.54688,-1.0781 0.27305,-0.017 0.49312,0.1873 0.23437,0.5235 0.72764,0.014 1.16743,-0.5709 0.58984,-1.1485 -0.21343,-0.2058 -0.41649,-0.2782 -0.6289,-0.2695 -0.22408,0.01 -0.45915,0.1099 -0.73047,0.2441 0.0944,-0.2157 0.14648,-0.4519 0.14648,-0.6933 0,-0.6901 -0.2699,-0.8799 -0.66015,-1.6914 -0.39024,0.8115 -0.65821,1.0013 -0.65821,1.6914 3.9e-4,0.2416 0.052,0.4775 0.14649,0.6933 -0.52783,-0.2608 -0.9212,-0.3954 -1.35938,0.027 -0.57757,0.5775 -0.13779,1.1606 0.58985,1.1465 -0.25875,-0.3362 -0.0387,-0.5409 0.23437,-0.5235 0.26723,0.017 0.50338,0.5925 0.54688,1.0781 -0.12558,0.029 -0.21875,0.1411 -0.21875,0.2754 l 0,0.02 c 0,0.1405 0.10195,0.2559 0.23633,0.2773 0.041,0.088 0.22011,0.5136 -0.12696,0.7051 -0.29066,0.1604 -0.28765,-0.1255 -0.13672,-0.3496 -0.42443,-0.01 -0.6826,0.3805 -0.3457,0.7656 0.12448,0.13742 0.24328,0.18562 0.36719,0.17972 0.0221,0 0.0438,2e-4 0.0664,-0.01 l -0.0566,0.168 c -0.0313,0.094 0.0779,0.1787 0.17774,0.1836 l 0,0.209 0,0.7324 0,0.6406 c -1.36679,-0.9686 -2.81043,-2.0336 -4.26367,-3.11522 l 0,-1.0918 0,-0.332 0,-0.3848 0,-0.5566 c 0.0998,0 0.20894,-0.09 0.17773,-0.1836 l -0.0566,-0.17 c 0.0225,0 0.0442,0.012 0.0664,0.012 0.12391,0.01 0.2427,-0.045 0.36718,-0.1817 0.33689,-0.385 0.0807,-0.7749 -0.34375,-0.7656 0.15093,0.2241 0.15395,0.51 -0.13672,0.3496 -0.34707,-0.1914 -0.16987,-0.617 -0.1289,-0.7051 0.13428,-0.021 0.23633,-0.1369 0.23633,-0.2773 l 0,-0.022 c 0,-0.1342 -0.0934,-0.2453 -0.21875,-0.2734 0.0435,-0.4858 0.27964,-1.0607 0.54687,-1.0782 0.27305,-0.017 0.49312,0.1873 0.23438,0.5235 0.72763,0.014 1.16743,-0.5709 0.58984,-1.1485 -0.21342,-0.2058 -0.41648,-0.2782 -0.62891,-0.2695 -0.22407,0.01 -0.45913,0.1098 -0.73046,0.2441 0.0944,-0.2158 0.14648,-0.4518 0.14648,-0.6933 0,-0.6901 -0.26796,-0.8799 -0.6582,-1.6914 -0.39025,0.8115 -0.66016,1.0014 -0.66016,1.6914 3.8e-4,0.2417 0.052,0.4775 0.14648,0.6933 -0.52782,-0.2608 -0.92119,-0.3973 -1.35937,0.025 -0.57757,0.5777 -0.13779,1.1625 0.58984,1.1485 -0.25874,-0.3362 -0.0387,-0.541 0.23438,-0.5235 0.26723,0.017 0.50338,0.5944 0.54687,1.0801 -0.12558,0.029 -0.21875,0.1372 -0.21875,0.2715 l 0,0.022 c 0,0.1405 0.10389,0.256 0.23829,0.2773 0.041,0.088 0.21816,0.5137 -0.12891,0.7051 -0.29066,0.1604 -0.28764,-0.1255 -0.13672,-0.3496 -0.42442,-0.01 -0.68259,0.3806 -0.3457,0.7656 0.12447,0.1373 0.24328,0.1875 0.36718,0.1817 0.0221,0 0.0438,2e-4 0.0664,-0.01 l -0.0547,0.168 c -0.0313,0.094 0.0759,0.1786 0.17578,0.1836 l 0,0.2089 0,0.7325 0,0.6269 c -0.39017,-0.2897 -0.75224,-0.56 -1.14843,-0.8516 -1.01505,-0.7475 -2.05406,-1.4951 -3.11328,-2.2304 l 0,-1.0957 0,-0.3321 0,-0.3847 0,-0.5567 c 0.0998,0 0.20699,-0.09 0.17578,-0.1836 l -0.0566,-0.1679 c 0.0225,0 0.0442,0.01 0.0664,0.01 0.1239,0.01 0.24271,-0.045 0.36719,-0.1816 0.33688,-0.385 0.0807,-0.7748 -0.34375,-0.7656 0.15093,0.2242 0.15394,0.51 -0.13672,0.3496 -0.34708,-0.1915 -0.16989,-0.6171 -0.1289,-0.7051 0.13427,-0.021 0.23632,-0.1369 0.23632,-0.2773 l 0,-0.022 c 0,-0.1342 -0.0934,-0.2453 -0.21875,-0.2735 0.0435,-0.4857 0.27964,-1.0606 0.54688,-1.0781 0.27303,-0.017 0.49313,0.1874 0.23437,0.5235 0.72765,0.014 1.16743,-0.5709 0.58985,-1.1485 -0.21342,-0.2057 -0.41454,-0.2782 -0.62696,-0.2695 -0.22408,0.01 -0.46109,0.1099 -0.73242,0.2441 0.0944,-0.2157 0.14649,-0.4518 0.14649,-0.6933 0,-0.6901 -0.26797,-0.88 -0.65821,-1.6914 -0.39025,0.8114 -0.658203,1.0013 -0.658203,1.6914 3.8e-4,0.2417 0.05,0.4775 0.14453,0.6933 -0.52784,-0.2607 -0.9212,-0.3972 -1.35937,0.025 -0.57757,0.5776 -0.13586,1.1626 0.59179,1.1485 -0.25875,-0.3362 -0.0406,-0.541 0.23242,-0.5235 0.26725,0.017 0.50534,0.5944 0.54883,1.0801 -0.12559,0.029 -0.2207,0.1372 -0.2207,0.2715 l 0,0.022 c 0,0.1405 0.1039,0.256 0.23828,0.2773 0.041,0.088 0.218183,0.5137 -0.12891,0.7051 -0.29064,0.1604 -0.28764,-0.1254 -0.13671,-0.3496 -0.42442,-0.01 -0.68064,0.3806 -0.34375,0.7656 0.12448,0.1373 0.24329,0.1874 0.36718,0.1816 0.0221,0 0.0438,3e-4 0.0664,-0.01 l -0.0566,0.1679 c -0.0313,0.094 0.076,0.1787 0.17578,0.1836 l 0,0.209 0,0.7324 0,0.6915 c -1.38124,-0.9303 -2.80133,-1.8253 -4.26172,-2.6543 l 0,-1.1133 0,-0.334 0,-0.3828 0,-0.5586 c 0.0998,0 0.20699,-0.088 0.17578,-0.1817 l -0.0566,-0.1699 c 0.0225,0 0.0442,0.01 0.0664,0.01 0.1239,0.01 0.24271,-0.043 0.36719,-0.1797 0.33687,-0.385 0.0807,-0.7748 -0.34375,-0.7656 0.15093,0.2243 0.15394,0.51 -0.13672,0.3496 -0.34708,-0.1914 -0.16792,-0.6191 -0.12696,-0.7071 0.13429,-0.021 0.23633,-0.1349 0.23633,-0.2753 l 0,-0.022 c 0,-0.1342 -0.0953,-0.2453 -0.2207,-0.2735 0.0435,-0.4857 0.27962,-1.0606 0.54687,-1.0781 0.27304,-0.017 0.49314,0.1872 0.23438,0.5234 0.72765,0.014 1.16938,-0.5708 0.5918,-1.1484 -0.21342,-0.2058 -0.41649,-0.2782 -0.62891,-0.2695 -0.22407,0.01 -0.45914,0.1098 -0.73047,0.2441 0.0945,-0.2158 0.14453,-0.4518 0.14453,-0.6933 0,-0.69 -0.26794,-0.88 -0.6582,-1.6914 -0.39024,0.8114 -0.6582,1.0014 -0.6582,1.6914 3.8e-4,0.2417 0.05,0.4775 0.14453,0.6933 -0.52782,-0.2608 -0.9212,-0.3964 -1.35938,0.025 -0.57757,0.5776 -0.13585,1.1606 0.5918,1.1465 -0.25876,-0.3362 -0.0387,-0.5409 0.23437,-0.5234 0.26724,0.017 0.50339,0.5942 0.54688,1.08 -0.12558,0.028 -0.21875,0.1393 -0.21875,0.2735 l 0,0.022 c 0,0.1405 0.10196,0.256 0.23633,0.2773 0.041,0.088 0.22011,0.5137 -0.12696,0.7051 -0.29066,0.1604 -0.28764,-0.1254 -0.13671,-0.3496 -0.42441,-0.01 -0.6826,0.3806 -0.34571,0.7656 0.12448,0.1374 0.24328,0.1856 0.36719,0.1797 0.0221,0 0.0438,2e-4 0.0664,-0.01 l -0.0566,0.1699 c -0.0312,0.094 0.076,0.1768 0.17578,0.1817 l 0,0.209 0,0.7324 0,0.8535 c -1.38382,-0.7416 -2.80305,-1.4155 -4.26172,-1.9941 l 0,-1.0899 0,-0.332 0,-0.3848 0,-0.5566 c 0.0998,0 0.20699,-0.09 0.17578,-0.1836 l -0.0547,-0.168 c 0.0225,0 0.0442,0.01 0.0664,0.01 0.1239,0.01 0.24271,-0.045 0.36719,-0.1817 0.33688,-0.3851 0.0787,-0.7729 -0.34571,-0.7636 0.15093,0.2241 0.15393,0.508 -0.13672,0.3476 -0.34708,-0.1915 -0.16791,-0.617 -0.12695,-0.705 0.13429,-0.022 0.23633,-0.137 0.23633,-0.2774 l 0,-0.019 c 0,-0.1342 -0.0933,-0.2454 -0.21875,-0.2735 0.0435,-0.4857 0.27964,-1.0624 0.54687,-1.08 0.27305,-0.017 0.49313,0.1873 0.23438,0.5234 0.72765,0.014 1.16743,-0.5689 0.58984,-1.1465 -0.21341,-0.2058 -0.41648,-0.2802 -0.6289,-0.2715 -0.22407,0.01 -0.45914,0.1099 -0.73047,0.2442 0.0944,-0.2158 0.14648,-0.4499 0.14648,-0.6914 0,-0.6901 -0.26991,-0.882 -0.66015,-1.6934 -0.39025,0.8114 -0.65821,1.0033 -0.65821,1.6934 3.9e-4,0.2417 0.052,0.4756 0.14649,0.6914 -0.52782,-0.2608 -0.92119,-0.3955 -1.35938,0.027 -0.57756,0.5777 -0.13779,1.1626 0.58985,1.1485 -0.25875,-0.3363 -0.0387,-0.5429 0.23437,-0.5254 0.26723,0.017 0.50339,0.5943 0.54688,1.08 -0.12558,0.029 -0.21875,0.1393 -0.21875,0.2735 l 0,0.022 c 0,0.1404 0.10195,0.2559 0.23632,0.2773 0.041,0.088 0.22012,0.5137 -0.12695,0.7051 -0.29066,0.1603 -0.28765,-0.1254 -0.13672,-0.3496 -0.42443,-0.01 -0.68258,0.3806 -0.3457,0.7656 0.12448,0.1373 0.24328,0.1874 0.36719,0.1816 0.0221,0 0.0438,3e-4 0.0664,-0.01 l -0.0566,0.1679 c -0.0312,0.094 0.0779,0.1788 0.17774,0.1836 l 0,0.2071 0,0.7343 0,1.0079 c -1.38509,-0.4965 -2.80814,-0.8959 -4.26368,-1.1875 l 0,-1.0235 0,-0.334 0,-0.3828 0,-0.5566 c 0.0998,0 0.20895,-0.09 0.17774,-0.1836 l -0.0566,-0.1699 c 0.0225,0 0.0442,0.01 0.0664,0.01 0.1239,0.01 0.24272,-0.043 0.36719,-0.1797 0.33689,-0.385 0.0807,-0.7749 -0.34375,-0.7656 0.15092,0.2241 0.15393,0.51 -0.13672,0.3496 -0.34708,-0.1914 -0.16986,-0.617 -0.1289,-0.7051 0.13429,-0.021 0.23632,-0.1369 0.23632,-0.2773 l 0,-0.022 c 0,-0.1342 -0.0933,-0.2452 -0.21874,-0.2734 0.0435,-0.4856 0.27963,-1.0606 0.54687,-1.0781 0.27304,-0.017 0.49313,0.1873 0.23437,0.5234 0.72763,0.014 1.16744,-0.5708 0.58985,-1.1484 -0.21342,-0.2058 -0.4165,-0.2784 -0.62891,-0.2696 -0.22408,0.01 -0.45914,0.11 -0.73047,0.2442 0.0944,-0.2157 0.14649,-0.4499 0.14649,-0.6914 0,-0.6901 -0.26796,-0.882 -0.6582,-1.6934 -0.39001,0.8107 -0.66016,1.0015 -0.66016,1.6914 3.8e-4,0.2416 0.052,0.4776 0.14648,0.6934 -0.52784,-0.2609 -0.92119,-0.3974 -1.35937,0.025 -0.57756,0.5776 -0.1378,1.1625 0.58984,1.1484 -0.25875,-0.3362 -0.0387,-0.5428 0.23438,-0.5254 0.26724,0.017 0.50338,0.5945 0.54687,1.0801 -0.12558,0.028 -0.21875,0.1391 -0.21875,0.2734 l 0,0.019 c 0,0.1406 0.1039,0.256 0.23828,0.2774 0.041,0.088 0.21817,0.5136 -0.1289,0.7051 -0.29065,0.1604 -0.28765,-0.1236 -0.13672,-0.3477 -0.42443,-0.01 -0.68259,0.3786 -0.34571,0.7637 0.12447,0.1374 0.24329,0.1874 0.36719,0.1816 0.0221,0 0.0438,0 0.0664,-0.012 l -0.0547,0.1699 c -0.0313,0.094 0.076,0.1787 0.17578,0.1836 l 0,0.209 0,0.7324 0,1.166 c -0.80018,-0.1272 -1.60763,-0.2286 -2.42969,-0.2812 l -2.42773,0 -2.42578,0 c -0.82204,0.053 -1.62952,0.154 -2.42969,0.2812 l 0,-1.166 0,-0.7324 0,-0.209 c 0.0998,0 0.20698,-0.09 0.17578,-0.1836 l -0.0566,-0.1699 c 0.0226,0 0.0443,0.012 0.0664,0.012 0.1239,0.01 0.24272,-0.044 0.36719,-0.1816 0.33689,-0.3851 0.0788,-0.7731 -0.34571,-0.7637 0.15093,0.2241 0.15393,0.5081 -0.13672,0.3477 -0.34707,-0.1915 -0.16792,-0.6172 -0.12695,-0.7051 0.13437,-0.022 0.23633,-0.1369 0.23633,-0.2774 l 0,-0.019 c 0,-0.1343 -0.0932,-0.2453 -0.21875,-0.2734 0.0435,-0.4856 0.27963,-1.0628 0.54687,-1.0801 0.27302,-0.017 0.49314,0.1892 0.23438,0.5254 0.72765,0.014 1.16937,-0.5708 0.5918,-1.1484 -0.43817,-0.4225 -0.8335,-0.286 -1.36133,-0.025 0.0946,-0.2158 0.1461,-0.4518 0.14648,-0.6934 0,-0.6899 -0.26819,-0.8807 -0.6582,-1.6914 z m 2.96875,9.6152 0,2.3028 c -0.82181,0.053 -1.62927,0.1578 -2.42969,0.2871 l 0,-2.2891 c 0.801,-0.1357 1.60905,-0.2446 2.42969,-0.3008 z m 4.85351,0 c 0.82066,0.056 1.62868,0.1651 2.42969,0.3008 l 0,2.2891 c -0.80042,-0.1293 -1.60788,-0.2337 -2.42969,-0.2871 l 0,-2.3028 z m -8.36132,0.5059 0,2.2773 c -1.45503,0.2959 -2.8753,0.7016 -4.26172,1.2051 l 0,-2.2226 c 1.38985,-0.5247 2.80967,-0.9504 4.26172,-1.2598 z m 11.86914,0 c 1.45205,0.3094 2.87187,0.7351 4.26172,1.2598 l 0,2.2226 c -1.38641,-0.5035 -2.80667,-0.9092 -4.26172,-1.2051 l 0,-2.2773 z m -17.20703,1.6816 0,2.2168 c -1.45735,0.5851 -2.87873,1.2662 -4.26368,2.0157 l 0,-2.1465 c 1.38925,-0.7731 2.81019,-1.4808 4.26368,-2.086 z m 22.54492,0 c 1.45349,0.6052 2.87442,1.3129 4.26367,2.086 l 0,2.1465 c -1.38494,-0.7495 -2.80632,-1.4306 -4.26367,-2.0157 l 0,-2.2168 z m -13.69922,0.8457 0,2.3028 c -0.82204,0.053 -1.62952,0.156 -2.42969,0.2832 l 0,-1.9063 0,-0.3847 c 0.80085,-0.1335 1.60857,-0.2398 2.42969,-0.295 z m 4.85351,0 c 0.82115,0.055 1.62885,0.1615 2.42969,0.295 l 0,0.3847 0,1.9063 c -0.80018,-0.1272 -1.60763,-0.2306 -2.42969,-0.2832 l 0,-2.3028 z m -8.36132,0.4961 0,0.1836 0,2.0938 c -1.45558,0.2916 -2.87658,0.6929 -4.26172,1.1894 l 0,-1.748 0,-0.4766 c 1.3885,-0.5174 2.80874,-0.9373 4.26172,-1.2422 z m 11.86914,0 c 1.45298,0.3049 2.87323,0.7248 4.26172,1.2422 l 0,0.4766 0,1.748 c -1.38514,-0.4965 -2.80613,-0.8978 -4.26172,-1.1894 l 0,-2.0938 0,-0.1836 z m -22.54688,1.3555 0,2.1348 c -1.45877,0.8353 -2.87893,1.7372 -4.26172,2.6738 l 0,-2.0742 c 1.38893,-0.9562 2.80704,-1.8798 4.26172,-2.7344 z m 33.22461,0 c 1.45469,0.8546 2.87279,1.7782 4.26172,2.7344 l 0,2.0742 c -1.38278,-0.9366 -2.80295,-1.8385 -4.26172,-2.6738 l 0,-2.1348 z m -5.33984,0.3027 c 1.45478,0.5984 2.876,1.2955 4.26367,2.0606 l 0,0.5644 0,1.5899 c -1.38382,-0.7418 -2.805,-1.4138 -4.26367,-1.9922 l 0,-2.1621 0,-0.061 z m -22.54492,0 0,0.059 0,2.1621 c -1.45866,0.5784 -2.87985,1.2504 -4.26368,1.9922 l 0,-1.5899 0,-0.5644 c 1.38767,-0.7651 2.8089,-1.4602 4.26368,-2.0586 z m 8.8457,1.6055 0,36.54295 -2.42969,0 0,-36.24225 c 0.801,-0.1357 1.60905,-0.2445 2.42969,-0.3007 z m 4.85351,0 c 0.82066,0.056 1.62868,0.165 2.42969,0.3007 l 0,36.24225 -2.42969,0 0,-36.54295 z m -8.36132,0.5058 0,36.03715 -4.26172,0 0,-34.77735 c 1.38985,-0.5247 2.80967,-0.9505 4.26172,-1.2598 z m 11.86914,0 c 1.45205,0.3093 2.87187,0.7351 4.26172,1.2598 l 0,34.77735 -4.26172,0 0,-36.03715 z m -22.54688,0.5606 0,2.1367 c -1.46039,0.8291 -2.88048,1.72202 -4.26172,2.65232 l 0,-1.42972 0,-0.6464 c 1.3866,-0.9495 2.80585,-1.8648 4.26172,-2.7129 z m 33.22461,0 c 1.45588,0.8481 2.87512,1.7634 4.26172,2.7129 l 0,0.6464 0,1.42972 c -1.38123,-0.9303 -2.80133,-1.82322 -4.26172,-2.65232 l 0,-2.1367 z m -38.56445,0.5117 0,2.0605 c -0.98332,0.6858 -1.94953,1.38292 -2.89649,2.08012 -0.47024,0.3463 -0.90329,0.6698 -1.36523,1.0137 l 0,-2.02542 c 0.67438,-0.5068 1.32281,-0.9972 2.01367,-1.5059 0.73985,-0.5448 1.4898,-1.0866 2.24805,-1.623 z m 43.904303,0 c 0.75826,0.5364 1.51016,1.0782 2.25,1.623 0.69086,0.5087 1.33734,0.9991 2.01171,1.5059 l 0,2.02542 c -0.46194,-0.3439 -0.89499,-0.6674 -1.36523,-1.0137 -0.94696,-0.6972 -1.91316,-1.39432 -2.89648,-2.08012 l 0,-2.0605 z m -33.224613,0.6094 0,34.35545 -4.26368,0 0,-32.26955 c 1.38925,-0.773 2.81019,-1.4806 4.26368,-2.0859 z m 22.54492,0 c 1.45349,0.6053 2.87442,1.3129 4.26367,2.0859 l 0,32.26955 -4.26367,0 0,-34.35545 z m -33.22461,2.3378 0,2.06842 c -1.05921,0.7354 -2.09821,1.4831 -3.11328,2.2305 -0.39618,0.2917 -0.75827,0.5599 -1.14844,0.8496 l 0,-1.3652 0,-0.6622 c 0.60378,-0.4523 1.17949,-0.8852 1.79688,-1.3398 0.81033,-0.5967 1.63088,-1.194 2.46484,-1.78132 z m 43.904303,0 c 0.83396,0.58732 1.65448,1.18462 2.46484,1.78132 0.61736,0.4546 1.19309,0.8875 1.79687,1.3398 l 0,0.6622 0,1.3652 c -0.39016,-0.2897 -0.75224,-0.5579 -1.14843,-0.8496 -1.01505,-0.7474 -2.05407,-1.4951 -3.11328,-2.2305 l 0,-2.06842 z m -38.564463,0.35942 0,31.65823 -4.26172,0 0,-28.92193 c 1.38893,-0.9561 2.80704,-1.8816 4.26172,-2.7363 z m 33.22461,0 c 1.45469,0.8547 2.87279,1.7801 4.26172,2.7363 l 0,28.92193 -4.26172,0 0,-31.65823 z m -43.90234,0.627 0,2.0195 c -1.45056,1.0824 -2.89406,2.1503 -4.26367,3.1191 l 0,-2.0097 c 1.38041,-0.9677 2.82183,-2.044 4.26367,-3.1289 z m 54.580083,0 c 1.44182,1.0849 2.88325,2.1612 4.26367,3.1289 l 0,2.0097 c -1.36963,-0.9688 -2.81311,-2.0367 -4.26367,-3.1191 l 0,-2.0195 z m -49.242193,2.8613 0,28.16993 -4.26172,0 0,-25.041 c 0.67438,-0.50693 1.32281,-0.99693 2.01367,-1.50593 0.73985,-0.5446 1.4898,-1.0865 2.24805,-1.623 z m 43.904303,0 c 0.75826,0.5365 1.51016,1.0783 2.25,1.623 0.69086,0.509 1.33734,0.999 2.01171,1.50593 l 0,25.041 -4.26171,0 0,-28.16993 z m -49.242193,0.078 0,2.0196 c -1.45325,1.08173 -2.89689,2.14673 -4.26367,3.11523 l 0,-1.377 0,-0.6347 c 1.37647,-0.96833 2.81874,-2.03893 4.26367,-3.12313 z m 54.580083,0 c 1.44492,1.0842 2.88719,2.1548 4.26367,3.12313 l 0,0.6347 0,1.377 c -1.3668,-0.9685 -2.81043,-2.0335 -4.26367,-3.11523 l 0,-2.0196 z m -59.919933,0.9297 0,2.02543 c -1.4654,1.0019 -2.88636,1.8947 -4.26171,2.6094 l 0,-2.1309 c 1.39959,-0.68073 2.8167,-1.53273 4.26171,-2.50393 z m 65.259773,0 c 1.445,0.9712 2.86212,1.8232 4.26172,2.50393 l 0,2.1309 c -1.37536,-0.7147 -2.79632,-1.6075 -4.26172,-2.6094 l 0,-2.02543 z m -59.919923,2.92583 0,24.2363 -4.26367,0 0,-21.1074 c 1.38041,-0.9678 2.82183,-2.0439 4.26367,-3.1289 z m 54.580083,0 c 1.44182,1.085 2.88325,2.1611 4.26367,3.1289 l 0,21.1074 -4.26367,0 0,-24.2363 z m -59.919933,0.014 0,2.0273 c -1.47305,1.0116 -2.89339,1.911 -4.26171,2.6367 l 0,-1.5879 0,-0.5351 c 1.39158,-0.6923 2.80975,-1.5588 4.26171,-2.541 z m 65.259773,0 c 1.45195,0.9822 2.87013,1.8487 4.26172,2.541 l 0,0.5351 0,1.5879 c -1.36833,-0.7257 -2.78867,-1.6251 -4.26172,-2.6367 l 0,-2.0273 z m -70.599613,0.051 0,2.1719 c -0.80973,0.3699 -1.60166,0.6624 -2.3808595,0.8809 l 0,-2.2402 c 0.7897695,-0.1951 1.5826895,-0.4769 2.3808595,-0.8126 z m 75.939453,0 c 0.79818,0.3358 1.59109,0.6176 2.38086,0.8126 l 0,2.2402 c -0.77919,-0.2185 -1.57113,-0.511 -2.38086,-0.8809 l 0,-2.1719 z m -75.939453,2.9903 0,0.035 0,2.127 c -0.8134,0.3814 -1.60629,0.6892 -2.3808595,0.916 l 0,-2.2402 c 0.7860095,-0.2024 1.5795995,-0.4914 2.3808595,-0.8379 z m 75.939453,0 c 0.80127,0.3465 1.59484,0.6354 2.38086,0.8379 l 0,2.2402 c -0.77457,-0.2267 -1.56744,-0.5345 -2.38086,-0.916 l 0,-2.127 0,-0.035 z m -70.599613,0.8144 0,20.3653 -4.26171,0 0,-17.8614 c 1.39959,-0.6808 2.8167,-1.5326 4.26171,-2.5039 z m 65.259773,0 c 1.445,0.9713 2.86212,1.8231 4.26172,2.5039 l 0,17.8614 -4.26172,0 0,-20.3653 z m -70.599613,2.9922 0,17.3731 -2.3808595,0 0,-16.5625 c 0.7897695,-0.1949 1.5826895,-0.475 2.3808595,-0.8106 z m 75.939453,0 c 0.79818,0.3356 1.59109,0.6157 2.38086,0.8106 l 0,16.5625 -2.38086,0 0,-17.3731 z"
       id="path3346" />
  </g>
  <g
     id="g3348"
     transform="matrix(5.5510025,0,0,5.5510025,777.49957,-5397.3201)">
    <path
       id="path3350"
       d="m 44.605208,972.29105 c -0.39024,0.8114 -0.6582,1.0033 -0.6582,1.6934 0,0.2415 0.0521,0.4757 0.14648,0.6914 -0.27133,-0.1342 -0.50834,-0.235 -0.73242,-0.2442 -0.21242,-0.01 -0.41354,0.063 -0.62695,0.2696 -0.57759,0.5776 -0.13781,1.1625 0.58984,1.1484 -0.25876,-0.3361 -0.0387,-0.541 0.23437,-0.5234 0.26725,0.017 0.50339,0.5925 0.54688,1.0781 -0.12541,0.029 -0.21875,0.1392 -0.21875,0.2734 l 0,0.022 c 0,0.1404 0.10202,0.2561 0.23633,0.2773 0.041,0.088 0.21817,0.5137 -0.12891,0.7051 -0.29066,0.1604 -0.28765,-0.1255 -0.13672,-0.3496 -0.42442,-0.01 -0.68063,0.3806 -0.34375,0.7656 0.12448,0.1372 0.24328,0.1855 0.36719,0.1797 0.0221,0 0.0438,-0.01 0.0664,-0.01 l -0.0566,0.1699 c -0.0313,0.094 0.0779,0.1793 0.17773,0.1836 l 0,0.5566 0,0.3828 0,0.334 0,1.0235 c -1.45553,0.2916 -2.87858,0.691 -4.26367,1.1875 l 0,-1.0079 0,-0.7343 0,-0.2071 c 0.0998,0 0.20698,-0.09 0.17578,-0.1836 l -0.0547,-0.1679 c 0.0225,0 0.0443,0.01 0.0664,0.01 0.12391,0.01 0.24271,-0.045 0.36719,-0.1816 0.33688,-0.385 0.0788,-0.775 -0.34571,-0.7656 0.15093,0.2242 0.15394,0.5099 -0.13672,0.3496 -0.34707,-0.1914 -0.16791,-0.6171 -0.12695,-0.7051 0.13438,-0.021 0.23633,-0.1369 0.23633,-0.2773 l 0,-0.022 c 0,-0.1342 -0.0932,-0.2455 -0.21875,-0.2735 0.0435,-0.4857 0.27963,-1.0628 0.54687,-1.08 0.27303,-0.017 0.49314,0.1892 0.23438,0.5254 0.72765,0.014 1.16741,-0.5708 0.58984,-1.1485 -0.43818,-0.4223 -0.83155,-0.2877 -1.35937,-0.027 0.0945,-0.2158 0.14609,-0.4497 0.14648,-0.6914 0,-0.6901 -0.26989,-0.882 -0.66015,-1.6934 -0.39024,0.8114 -0.65821,1.0033 -0.65821,1.6934 0,0.2415 0.0521,0.4756 0.14649,0.6914 -0.27133,-0.1343 -0.5064,-0.2349 -0.73047,-0.2442 -0.21243,-0.01 -0.4155,0.065 -0.62891,0.2715 -0.57759,0.5776 -0.1378,1.1606 0.58985,1.1465 -0.25876,-0.3361 -0.0387,-0.5409 0.23437,-0.5234 0.26724,0.017 0.50338,0.5943 0.54688,1.08 -0.12542,0.029 -0.21875,0.1393 -0.21875,0.2735 l 0,0.019 c 0,0.1404 0.10202,0.256 0.23632,0.2774 0.041,0.088 0.21818,0.5135 -0.1289,0.705 -0.29066,0.1604 -0.2857,-0.1235 -0.13477,-0.3476 -0.42441,-0.01 -0.68258,0.3785 -0.3457,0.7636 0.12448,0.1372 0.24328,0.1874 0.36719,0.1817 0.0221,0 0.0438,-0.01 0.0664,-0.01 l -0.0547,0.168 c -0.0313,0.094 0.076,0.1793 0.17579,0.1836 l 0,0.5566 0,0.3848 0,0.332 0,1.0899 c -1.45867,0.5786 -2.8779,1.2525 -4.26172,1.9941 l 0,-0.8535 0,-0.7324 0,-0.209 c 0.0998,0 0.20697,-0.088 0.17578,-0.1817 l -0.0566,-0.1699 c 0.0226,0 0.0443,0.01 0.0664,0.01 0.12391,0.01 0.24271,-0.043 0.36719,-0.1797 0.33689,-0.385 0.0788,-0.7749 -0.3457,-0.7656 0.15093,0.2242 0.15393,0.51 -0.13672,0.3496 -0.34707,-0.1914 -0.16791,-0.617 -0.12695,-0.7051 0.13437,-0.021 0.23632,-0.1368 0.23633,-0.2773 l 0,-0.022 c 0,-0.1342 -0.0932,-0.2454 -0.21876,-0.2735 0.0435,-0.4858 0.27964,-1.0629 0.54688,-1.08 0.27302,-0.017 0.49314,0.1872 0.23438,0.5234 0.72765,0.014 1.16741,-0.5689 0.58984,-1.1465 -0.43818,-0.4223 -0.83156,-0.2867 -1.35938,-0.025 0.0945,-0.2158 0.14611,-0.4516 0.14649,-0.6933 0,-0.69 -0.26796,-0.88 -0.65821,-1.6914 -0.39026,0.8114 -0.66015,1.0014 -0.66015,1.6914 0,0.2415 0.0521,0.4775 0.14648,0.6933 -0.27133,-0.1343 -0.5064,-0.2348 -0.73047,-0.2441 -0.21242,-0.01 -0.41548,0.063 -0.6289,0.2695 -0.57758,0.5776 -0.13586,1.1625 0.5918,1.1484 -0.25875,-0.336 -0.0406,-0.541 0.23242,-0.5234 0.26725,0.017 0.50535,0.5924 0.54882,1.0781 -0.1254,0.029 -0.2207,0.1393 -0.2207,0.2735 l 0,0.022 c 0,0.1404 0.10203,0.254 0.23633,0.2753 0.041,0.088 0.22013,0.5157 -0.12695,0.7071 -0.29065,0.1604 -0.28765,-0.1253 -0.13672,-0.3496 -0.42441,-0.01 -0.68062,0.3806 -0.34375,0.7656 0.12448,0.1371 0.24133,0.1854 0.36523,0.1797 0.0221,0 0.0438,-0.01 0.0664,-0.01 l -0.0547,0.1699 c -0.0313,0.094 0.0759,0.1774 0.17578,0.1817 l 0,0.5586 0,0.3828 0,0.334 0,1.1133 c -1.46039,0.829 -2.88049,1.7241 -4.26172,2.6543 l 0,-0.6915 0,-0.7324 0,-0.209 c 0.0998,0 0.20698,-0.09 0.17578,-0.1836 l -0.0566,-0.1679 c 0.0226,0 0.0443,0.01 0.0664,0.01 0.1239,0.01 0.24271,-0.045 0.36719,-0.1816 0.33689,-0.385 0.0807,-0.7749 -0.34375,-0.7656 0.15093,0.2242 0.15393,0.51 -0.13672,0.3496 -0.34707,-0.1914 -0.16988,-0.6171 -0.12891,-0.7051 0.13437,-0.021 0.23828,-0.1368 0.23828,-0.2773 l 0,-0.022 c 0,-0.1343 -0.0951,-0.2433 -0.2207,-0.2715 0.0435,-0.4857 0.27964,-1.063 0.54688,-1.0801 0.27302,-0.017 0.49313,0.1873 0.23437,0.5235 0.72765,0.014 1.16937,-0.5709 0.5918,-1.1485 -0.43817,-0.4223 -0.83155,-0.2859 -1.35938,-0.025 0.0945,-0.2158 0.14415,-0.4516 0.14453,-0.6933 0,-0.6901 -0.26795,-0.88 -0.6582,-1.6914 -0.39025,0.8114 -0.6582,1.0013 -0.6582,1.6914 0,0.2415 0.0521,0.4776 0.14648,0.6933 -0.27133,-0.1342 -0.50834,-0.2349 -0.73242,-0.2441 -0.21242,-0.01 -0.4155,0.063 -0.62891,0.2695 -0.57759,0.5776 -0.13585,1.1626 0.5918,1.1485 -0.25876,-0.3361 -0.0387,-0.5412 0.23438,-0.5235 0.26725,0.017 0.50338,0.5924 0.54687,1.0781 -0.12541,0.029 -0.21875,0.1393 -0.21875,0.2735 l 0,0.022 c 0,0.1404 0.10201,0.256 0.23633,0.2773 0.041,0.088 0.21817,0.5136 -0.12891,0.7051 -0.29066,0.1604 -0.28765,-0.1254 -0.13672,-0.3496 -0.42441,-0.01 -0.68063,0.3806 -0.34375,0.7656 0.12448,0.1371 0.24329,0.1873 0.36719,0.1816 0.0221,0 0.0438,-0.01 0.0664,-0.01 l -0.0566,0.1679 c -0.0313,0.094 0.076,0.1793 0.17578,0.1836 l 0,0.5567 0,0.3847 0,0.3321 0,1.0957 c -1.0592,0.7353 -2.09823,1.4829 -3.11328,2.2304 -0.39619,0.2916 -0.75827,0.5619 -1.14844,0.8516 l 0,-0.6269 0,-0.7325 0,-0.2089 c 0.0998,0 0.20698,-0.09 0.17578,-0.1836 l -0.0547,-0.168 c 0.0225,0 0.0443,0.01 0.0664,0.01 0.1239,0.01 0.24271,-0.045 0.36719,-0.1817 0.33688,-0.385 0.0788,-0.775 -0.34571,-0.7656 0.15093,0.2241 0.15394,0.51 -0.13671,0.3496 -0.34707,-0.1914 -0.16987,-0.617 -0.12891,-0.7051 0.13438,-0.021 0.23828,-0.1368 0.23828,-0.2773 l 0,-0.022 c 0,-0.1343 -0.0932,-0.2433 -0.21875,-0.2715 0.0435,-0.4857 0.27965,-1.0629 0.54688,-1.0801 0.27304,-0.017 0.49312,0.1873 0.23437,0.5235 0.72765,0.014 1.16741,-0.5708 0.58984,-1.1485 -0.43818,-0.4223 -0.83153,-0.2858 -1.35937,-0.025 0.0946,-0.2158 0.14609,-0.4516 0.14648,-0.6933 0,-0.69 -0.2699,-0.8799 -0.66015,-1.6914 -0.39024,0.8115 -0.65821,1.0013 -0.65821,1.6914 0,0.2415 0.0521,0.4775 0.14649,0.6933 -0.27133,-0.1343 -0.5064,-0.2348 -0.73047,-0.2441 -0.21243,-0.01 -0.41549,0.063 -0.62891,0.2695 -0.57758,0.5776 -0.1378,1.1625 0.58985,1.1485 -0.25876,-0.3362 -0.0387,-0.5411 0.23437,-0.5235 0.26723,0.017 0.50337,0.5924 0.54688,1.0782 -0.12543,0.029 -0.21875,0.1392 -0.21875,0.2734 l 0,0.022 c 0,0.1404 0.10203,0.2561 0.23633,0.2773 0.041,0.088 0.21817,0.5137 -0.12891,0.7051 -0.29066,0.1604 -0.28765,-0.1255 -0.13672,-0.3496 -0.42441,-0.01 -0.68063,0.3806 -0.34375,0.7656 0.12448,0.1372 0.24328,0.1875 0.36719,0.1817 0.0221,0 0.0438,-0.012 0.0664,-0.012 l -0.0566,0.17 c -0.0313,0.094 0.0779,0.1792 0.17774,0.1836 l 0,0.5566 0,0.3848 0,0.332 0,1.0918 c -1.45325,1.08162 -2.89688,2.14662 -4.26367,3.11522 l 0,-0.6406 0,-0.7324 0,-0.209 c 0.0998,0 0.20892,-0.09 0.17773,-0.1836 l -0.0566,-0.168 c 0.0226,0 0.0443,0.01 0.0664,0.01 0.1239,0.01 0.24271,-0.043 0.36718,-0.17972 0.3369,-0.3851 0.0788,-0.775 -0.3457,-0.7656 0.15092,0.2241 0.15393,0.51 -0.13672,0.3496 -0.34706,-0.1915 -0.16791,-0.6172 -0.12695,-0.7051 0.13438,-0.021 0.23633,-0.1368 0.23633,-0.2773 l 0,-0.02 c 0,-0.1343 -0.0932,-0.2472 -0.21875,-0.2754 0.0435,-0.4856 0.27963,-1.0608 0.54687,-1.0781 0.27303,-0.017 0.49313,0.1873 0.23438,0.5235 0.72764,0.014 1.16741,-0.569 0.58984,-1.1465 -0.43818,-0.4225 -0.83154,-0.2879 -1.35937,-0.027 0.0945,-0.2158 0.14609,-0.4517 0.14648,-0.6933 0,-0.6901 -0.26796,-0.8799 -0.6582,-1.6914 -0.39025,0.8115 -0.66016,1.0013 -0.66016,1.6914 0,0.2414 0.0521,0.4776 0.14649,0.6933 -0.27132,-0.1342 -0.5064,-0.2349 -0.73047,-0.2441 -0.21242,-0.01 -0.41548,0.063 -0.62891,0.2695 -0.57758,0.5776 -0.13779,1.1625 0.58984,1.1485 -0.25874,-0.3362 -0.0387,-0.541 0.23438,-0.5235 0.26724,0.017 0.50337,0.5925 0.54687,1.0781 -0.12543,0.029 -0.21875,0.1393 -0.21875,0.2735 l 0,0.022 c 0,0.1405 0.10203,0.254 0.23633,0.2754 0.041,0.088 0.22013,0.5155 -0.12695,0.707 -0.29065,0.1604 -0.28765,-0.1255 -0.13672,-0.3496 -0.42442,-0.01 -0.68258,0.3805 -0.3457,0.7656 0.12448,0.13722 0.24328,0.18542 0.36718,0.17972 0.0221,0 0.0438,2e-4 0.0664,-0.01 l -0.0547,0.168 c -0.0313,0.094 0.076,0.1793 0.17578,0.1836 l 0,0.5566 0,0.3848 0,0.332 0,1.0684 c -1.47305,1.0117 -2.89338,1.9131 -4.26171,2.6387 l 0,-0.8516 0,-0.7324 0,-0.209 c 0.0998,0 0.20698,-0.088 0.17578,-0.1817 l -0.0566,-0.1699 c 0.0226,0 0.0443,0.01 0.0664,0.01 0.12391,0.01 0.24271,-0.043 0.36719,-0.1797 0.3369,-0.385 0.0788,-0.7749 -0.3457,-0.7656 0.15092,0.2243 0.15393,0.51 -0.13672,0.3496 -0.34707,-0.1914 -0.1679,-0.6171 -0.12696,-0.7051 0.13441,-0.021 0.23633,-0.1368 0.23633,-0.2773 l 0,-0.022 c 0,-0.1343 -0.0932,-0.2453 -0.21875,-0.2735 0.0435,-0.4856 0.27965,-1.0609 0.54688,-1.0781 0.27303,-0.017 0.493111,0.1873 0.23437,0.5235 0.72763,0.014 1.16937,-0.5709 0.5918,-1.14852 -0.43817,-0.4224 -0.83349,-0.2858 -1.36133,-0.025 0.0945,-0.2158 0.14612,-0.4516 0.14649,-0.6933 0,-0.69 -0.26796,-0.882 -0.65821,-1.6934 -0.39024,0.8114 -0.6582,1.0033 -0.6582,1.6934 0,0.2415 0.0501,0.4775 0.14453,0.6933 -0.271329,-0.1342 -0.50638,-0.2369 -0.730469,-0.2461 -0.21241,-0.01 -0.41548,0.065 -0.6289,0.2715 -0.57759,0.57762 -0.13585,1.16252 0.59179,1.14852 -0.25875,-0.3362 -0.0387,-0.5412 0.23438,-0.5235 0.26724,0.017 0.50337,0.5924 0.54687,1.0781 -0.12542,0.029 -0.2207,0.1394 -0.2207,0.2735 l 0,0.022 c 0,0.1403 0.10201,0.2561 0.23633,0.2773 0.041,0.088 0.22012,0.5137 -0.12695,0.7051 -0.29067,0.1603 -0.28764,-0.1236 -0.13672,-0.3477 -0.42441,-0.01 -0.68063,0.3788 -0.34375,0.7637 0.12448,0.1372 0.24329,0.1873 0.36718,0.1816 0.0221,0 0.0438,0 0.0664,-0.012 l -0.0566,0.1699 c -0.0313,0.094 0.0759,0.1793 0.17578,0.1836 l 0,0.5567 0,0.3828 0,0.332 0,1.0586 c -0.81341,0.3815 -1.60629,0.68933 -2.3808605,0.91603 l 0,-3.20703 0.9277405,0 0,-1.0762 -1.9316405,0 c 0.0111,-0.1786 0.0322,-0.3288 0.0723,-0.3984 0.1867,-0.3234 0.4683,-0.6443 0.46875,-1.043 -1.7e-4,-0.7721 -0.62624,-1.39822 -1.39844,-1.39842 -0.7722,2e-4 -1.39827,0.62632 -1.39843,1.39842 4.5e-4,0.3987 0.28205,0.7196 0.46875,1.043 0.0403,0.07 0.0612,0.2198 0.0723,0.3984 l -1.93164,0 0,1.0762 0.92969,0 0,34.21883 -0.92969,0 0,1.0761 5.5781305,0 0,-1.0761 -0.9277405,0 0,-5.0372 2.3808605,0 0,5.0372 1.07813,0 0,-5.0372 4.26171,0 0,5.0372 1.07618,0 0,-5.0372 4.26367,0 0,5.0372 1.07617,0 0,-5.0372 4.261719,0 0,5.0372 1.07812,0 0,-5.0372 4.26172,0 0,5.0372 1.07617,0 0,-5.0372 4.26368,0 0,5.0372 1.07617,0 0,-5.0372 4.26172,0 0,5.0372 1.07812,0 0,-5.0372 2.42969,0 0,0.5372 0,3.6191 0,1.957 2.42578,0 2.42773,0 0,-1.957 0,-3.6191 0,-0.5372 2.42969,0 0,5.0372 1.07813,0 0,-5.0372 4.26172,0 0,5.0372 1.07617,0 0,-5.0372 4.26367,0 0,5.0372 1.07617,0 0,-5.0372 4.26172,0 0,5.0372 1.078133,0 0,-5.0372 4.26171,0 0,5.0372 1.07618,0 0,-5.0372 4.26367,0 0,5.0372 1.07617,0 0,-5.0372 4.26172,0 0,5.0372 1.07812,0 0,-5.0372 2.38086,0 0,5.0372 -0.92773,0 0,1.0761 5.57617,0 0,-1.0761 -0.92773,0 0,-34.21883 0.92773,0 0,-1.0762 -1.92969,0 c 0.0111,-0.1786 0.0321,-0.3288 0.0723,-0.3984 0.1867,-0.3234 0.4683,-0.6443 0.46875,-1.043 -1.6e-4,-0.7721 -0.62624,-1.39822 -1.39844,-1.39842 -0.7722,2e-4 -1.39827,0.62632 -1.39844,1.39842 4.5e-4,0.3987 0.28205,0.7196 0.46875,1.043 0.0402,0.07 0.0612,0.2198 0.0723,0.3984 l -1.93164,0 0,1.0762 0.92773,0 0,3.20703 c -0.77457,-0.2267 -1.56744,-0.53453 -2.38086,-0.91603 l 0,-1.0586 0,-0.332 0,-0.3828 0,-0.5567 c 0.0998,0 0.20698,-0.09 0.17579,-0.1836 l -0.0566,-0.1699 c 0.0226,0 0.0442,0.012 0.0664,0.012 0.123891,0.01 0.242711,-0.044 0.36719,-0.1816 0.33688,-0.3849 0.0807,-0.7729 -0.34375,-0.7637 0.15092,0.2241 0.15394,0.508 -0.13672,0.3477 -0.34708,-0.1914 -0.1679,-0.617 -0.126949,-0.7051 0.134289,-0.021 0.234369,-0.137 0.234369,-0.2773 l 0,-0.022 c 0,-0.1341 -0.0933,-0.2454 -0.21875,-0.2735 0.0435,-0.4857 0.279641,-1.0607 0.546881,-1.0781 0.273039,-0.017 0.49312,0.1873 0.234369,0.5235 0.72764,0.014 1.169391,-0.5709 0.591801,-1.14852 -0.21342,-0.2057 -0.4165,-0.2802 -0.62891,-0.2715 -0.224091,0.01 -0.459141,0.1119 -0.73047,0.2461 0.0944,-0.2158 0.14453,-0.4518 0.14453,-0.6933 0,-0.6901 -0.26796,-0.882 -0.6582,-1.6934 -0.39025,0.8114 -0.6582,1.0034 -0.6582,1.6934 3.7e-4,0.2417 0.05,0.4775 0.14453,0.6933 -0.52784,-0.2607 -0.92121,-0.3973 -1.35938,0.025 -0.57757,0.57762 -0.13584,1.16262 0.5918,1.14852 -0.25875,-0.3362 -0.0387,-0.541 0.23438,-0.5235 0.26724,0.017 0.50338,0.5925 0.54687,1.0781 -0.12558,0.029 -0.21875,0.1392 -0.21875,0.2735 l 0,0.022 c 0,0.1405 0.10194,0.256 0.23633,0.2773 0.041,0.088 0.21815,0.5137 -0.12891,0.7051 -0.29066,0.1604 -0.28568,-0.1253 -0.13476,-0.3496 -0.42442,-0.01 -0.68261,0.3806 -0.34571,0.7656 0.12448,0.1374 0.24328,0.1855 0.36719,0.1797 0.0221,0 0.0438,2e-4 0.0664,-0.01 l -0.0566,0.1699 c -0.0313,0.094 0.076,0.1768 0.17578,0.1817 l 0,0.209 0,0.7324 0,0.8516 c -1.36833,-0.7256 -2.78867,-1.627 -4.26172,-2.6387 l 0,-1.0684 0,-0.332 0,-0.3848 0,-0.5566 c 0.0998,0 0.20699,-0.09 0.17578,-0.1836 l -0.0547,-0.168 c 0.0225,0 0.0442,0.01 0.0664,0.01 0.12389,0.01 0.24271,-0.043 0.36719,-0.17972 0.33688,-0.3851 0.0787,-0.7748 -0.34571,-0.7656 0.15092,0.2241 0.15395,0.51 -0.13671,0.3496 -0.34708,-0.1915 -0.16792,-0.6191 -0.12696,-0.707 0.13429,-0.022 0.23633,-0.1349 0.23633,-0.2754 l 0,-0.022 c 0,-0.1342 -0.0933,-0.2453 -0.21875,-0.2735 0.0435,-0.4856 0.27964,-1.0606 0.54688,-1.0781 0.27305,-0.017 0.49312,0.1873 0.23437,0.5235 0.72764,0.014 1.16743,-0.5709 0.58984,-1.1485 -0.21343,-0.2058 -0.41649,-0.2782 -0.6289,-0.2695 -0.22408,0.01 -0.45915,0.1099 -0.73047,0.2441 0.0944,-0.2157 0.14648,-0.4519 0.14648,-0.6933 0,-0.6901 -0.2699,-0.8799 -0.66015,-1.6914 -0.39024,0.8115 -0.65821,1.0013 -0.65821,1.6914 3.9e-4,0.2416 0.052,0.4775 0.14649,0.6933 -0.52783,-0.2608 -0.9212,-0.3954 -1.35938,0.027 -0.57757,0.5775 -0.13779,1.1606 0.58985,1.1465 -0.25875,-0.3362 -0.0387,-0.5409 0.23437,-0.5235 0.26723,0.017 0.50338,0.5925 0.54688,1.0781 -0.12558,0.029 -0.21875,0.1411 -0.21875,0.2754 l 0,0.02 c 0,0.1405 0.10195,0.2559 0.23633,0.2773 0.041,0.088 0.22011,0.5136 -0.12696,0.7051 -0.29066,0.1604 -0.28765,-0.1255 -0.13672,-0.3496 -0.42443,-0.01 -0.6826,0.3805 -0.3457,0.7656 0.12448,0.13742 0.24328,0.18562 0.36719,0.17972 0.0221,0 0.0438,2e-4 0.0664,-0.01 l -0.0566,0.168 c -0.0313,0.094 0.0779,0.1787 0.17774,0.1836 l 0,0.209 0,0.7324 0,0.6406 c -1.36679,-0.9686 -2.81043,-2.0336 -4.26367,-3.11522 l 0,-1.0918 0,-0.332 0,-0.3848 0,-0.5566 c 0.0998,0 0.20894,-0.09 0.17773,-0.1836 l -0.0566,-0.17 c 0.0225,0 0.0442,0.012 0.0664,0.012 0.12391,0.01 0.2427,-0.045 0.36718,-0.1817 0.33689,-0.385 0.0807,-0.7749 -0.34375,-0.7656 0.15093,0.2241 0.15395,0.51 -0.13672,0.3496 -0.34707,-0.1914 -0.16987,-0.617 -0.1289,-0.7051 0.13428,-0.021 0.23633,-0.1369 0.23633,-0.2773 l 0,-0.022 c 0,-0.1342 -0.0934,-0.2453 -0.21875,-0.2734 0.0435,-0.4858 0.27964,-1.0607 0.54687,-1.0782 0.27305,-0.017 0.49312,0.1873 0.23438,0.5235 0.72763,0.014 1.16743,-0.5709 0.58984,-1.1485 -0.21342,-0.2058 -0.41648,-0.2782 -0.62891,-0.2695 -0.22407,0.01 -0.45913,0.1098 -0.73046,0.2441 0.0944,-0.2158 0.14648,-0.4518 0.14648,-0.6933 0,-0.6901 -0.26796,-0.8799 -0.6582,-1.6914 -0.39025,0.8115 -0.66016,1.0014 -0.66016,1.6914 3.8e-4,0.2417 0.052,0.4775 0.14648,0.6933 -0.52782,-0.2608 -0.92119,-0.3973 -1.35937,0.025 -0.57757,0.5777 -0.13779,1.1625 0.58984,1.1485 -0.25874,-0.3362 -0.0387,-0.541 0.23438,-0.5235 0.26723,0.017 0.50338,0.5944 0.54687,1.0801 -0.12558,0.029 -0.21875,0.1372 -0.21875,0.2715 l 0,0.022 c 0,0.1405 0.10389,0.256 0.23829,0.2773 0.041,0.088 0.21816,0.5137 -0.12891,0.7051 -0.29066,0.1604 -0.28764,-0.1255 -0.13672,-0.3496 -0.42442,-0.01 -0.68259,0.3806 -0.3457,0.7656 0.12447,0.1373 0.24328,0.1875 0.36718,0.1817 0.0221,0 0.0438,2e-4 0.0664,-0.01 l -0.0547,0.168 c -0.0313,0.094 0.0759,0.1786 0.17578,0.1836 l 0,0.2089 0,0.7325 0,0.6269 c -0.39017,-0.2897 -0.75224,-0.56 -1.14843,-0.8516 -1.01505,-0.7475 -2.05406,-1.4951 -3.11328,-2.2304 l 0,-1.0957 0,-0.3321 0,-0.3847 0,-0.5567 c 0.0998,0 0.20699,-0.09 0.17578,-0.1836 l -0.0566,-0.1679 c 0.0225,0 0.0442,0.01 0.0664,0.01 0.1239,0.01 0.24271,-0.045 0.36719,-0.1816 0.33688,-0.385 0.0807,-0.7748 -0.34375,-0.7656 0.15093,0.2242 0.15394,0.51 -0.13672,0.3496 -0.34708,-0.1915 -0.16989,-0.6171 -0.1289,-0.7051 0.13427,-0.021 0.23632,-0.1369 0.23632,-0.2773 l 0,-0.022 c 0,-0.1342 -0.0934,-0.2453 -0.21875,-0.2735 0.0435,-0.4857 0.27964,-1.0606 0.54688,-1.0781 0.27303,-0.017 0.49313,0.1874 0.23437,0.5235 0.72765,0.014 1.16743,-0.5709 0.58985,-1.1485 -0.21342,-0.2057 -0.41454,-0.2782 -0.62696,-0.2695 -0.22408,0.01 -0.46109,0.1099 -0.73242,0.2441 0.0944,-0.2157 0.14649,-0.4518 0.14649,-0.6933 0,-0.6901 -0.26797,-0.88 -0.65821,-1.6914 -0.39025,0.8114 -0.658203,1.0013 -0.658203,1.6914 3.8e-4,0.2417 0.05,0.4775 0.14453,0.6933 -0.52784,-0.2607 -0.9212,-0.3972 -1.35937,0.025 -0.57757,0.5776 -0.13586,1.1626 0.59179,1.1485 -0.25875,-0.3362 -0.0406,-0.541 0.23242,-0.5235 0.26725,0.017 0.50534,0.5944 0.54883,1.0801 -0.12559,0.029 -0.2207,0.1372 -0.2207,0.2715 l 0,0.022 c 0,0.1405 0.1039,0.256 0.23828,0.2773 0.041,0.088 0.218183,0.5137 -0.12891,0.7051 -0.29064,0.1604 -0.28764,-0.1254 -0.13671,-0.3496 -0.42442,-0.01 -0.68064,0.3806 -0.34375,0.7656 0.12448,0.1373 0.24329,0.1874 0.36718,0.1816 0.0221,0 0.0438,3e-4 0.0664,-0.01 l -0.0566,0.1679 c -0.0313,0.094 0.076,0.1787 0.17578,0.1836 l 0,0.209 0,0.7324 0,0.6915 c -1.38124,-0.9303 -2.80133,-1.8253 -4.26172,-2.6543 l 0,-1.1133 0,-0.334 0,-0.3828 0,-0.5586 c 0.0998,0 0.20699,-0.088 0.17578,-0.1817 l -0.0566,-0.1699 c 0.0225,0 0.0442,0.01 0.0664,0.01 0.1239,0.01 0.24271,-0.043 0.36719,-0.1797 0.33687,-0.385 0.0807,-0.7748 -0.34375,-0.7656 0.15093,0.2243 0.15394,0.51 -0.13672,0.3496 -0.34708,-0.1914 -0.16792,-0.6191 -0.12696,-0.7071 0.13429,-0.021 0.23633,-0.1349 0.23633,-0.2753 l 0,-0.022 c 0,-0.1342 -0.0953,-0.2453 -0.2207,-0.2735 0.0435,-0.4857 0.27962,-1.0606 0.54687,-1.0781 0.27304,-0.017 0.49314,0.1872 0.23438,0.5234 0.72765,0.014 1.16938,-0.5708 0.5918,-1.1484 -0.21342,-0.2058 -0.41649,-0.2782 -0.62891,-0.2695 -0.22407,0.01 -0.45914,0.1098 -0.73047,0.2441 0.0945,-0.2158 0.14453,-0.4518 0.14453,-0.6933 0,-0.69 -0.26794,-0.88 -0.6582,-1.6914 -0.39024,0.8114 -0.6582,1.0014 -0.6582,1.6914 3.8e-4,0.2417 0.05,0.4775 0.14453,0.6933 -0.52782,-0.2608 -0.9212,-0.3964 -1.35938,0.025 -0.57757,0.5776 -0.13585,1.1606 0.5918,1.1465 -0.25876,-0.3362 -0.0387,-0.5409 0.23437,-0.5234 0.26724,0.017 0.50339,0.5942 0.54688,1.08 -0.12558,0.028 -0.21875,0.1393 -0.21875,0.2735 l 0,0.022 c 0,0.1405 0.10196,0.256 0.23633,0.2773 0.041,0.088 0.22011,0.5137 -0.12696,0.7051 -0.29066,0.1604 -0.28764,-0.1254 -0.13671,-0.3496 -0.42441,-0.01 -0.6826,0.3806 -0.34571,0.7656 0.12448,0.1374 0.24328,0.1856 0.36719,0.1797 0.0221,0 0.0438,2e-4 0.0664,-0.01 l -0.0566,0.1699 c -0.0312,0.094 0.076,0.1768 0.17578,0.1817 l 0,0.209 0,0.7324 0,0.8535 c -1.38382,-0.7416 -2.80305,-1.4155 -4.26172,-1.9941 l 0,-1.0899 0,-0.332 0,-0.3848 0,-0.5566 c 0.0998,0 0.20699,-0.09 0.17578,-0.1836 l -0.0547,-0.168 c 0.0225,0 0.0442,0.01 0.0664,0.01 0.1239,0.01 0.24271,-0.045 0.36719,-0.1817 0.33688,-0.3851 0.0787,-0.7729 -0.34571,-0.7636 0.15093,0.2241 0.15393,0.508 -0.13672,0.3476 -0.34708,-0.1915 -0.16791,-0.617 -0.12695,-0.705 0.13429,-0.022 0.23633,-0.137 0.23633,-0.2774 l 0,-0.019 c 0,-0.1342 -0.0933,-0.2454 -0.21875,-0.2735 0.0435,-0.4857 0.27964,-1.0624 0.54687,-1.08 0.27305,-0.017 0.49313,0.1873 0.23438,0.5234 0.72765,0.014 1.16743,-0.5689 0.58984,-1.1465 -0.21341,-0.2058 -0.41648,-0.2802 -0.6289,-0.2715 -0.22407,0.01 -0.45914,0.1099 -0.73047,0.2442 0.0944,-0.2158 0.14648,-0.4499 0.14648,-0.6914 0,-0.6901 -0.26991,-0.882 -0.66015,-1.6934 -0.39025,0.8114 -0.65821,1.0033 -0.65821,1.6934 3.9e-4,0.2417 0.052,0.4756 0.14649,0.6914 -0.52782,-0.2608 -0.92119,-0.3955 -1.35938,0.027 -0.57756,0.5777 -0.13779,1.1626 0.58985,1.1485 -0.25875,-0.3363 -0.0387,-0.5429 0.23437,-0.5254 0.26723,0.017 0.50339,0.5943 0.54688,1.08 -0.12558,0.029 -0.21875,0.1393 -0.21875,0.2735 l 0,0.022 c 0,0.1404 0.10195,0.2559 0.23632,0.2773 0.041,0.088 0.22012,0.5137 -0.12695,0.7051 -0.29066,0.1603 -0.28765,-0.1254 -0.13672,-0.3496 -0.42443,-0.01 -0.68258,0.3806 -0.3457,0.7656 0.12448,0.1373 0.24328,0.1874 0.36719,0.1816 0.0221,0 0.0438,3e-4 0.0664,-0.01 l -0.0566,0.1679 c -0.0312,0.094 0.0779,0.1788 0.17774,0.1836 l 0,0.2071 0,0.7343 0,1.0079 c -1.38509,-0.4965 -2.80814,-0.8959 -4.26368,-1.1875 l 0,-1.0235 0,-0.334 0,-0.3828 0,-0.5566 c 0.0998,0 0.20895,-0.09 0.17774,-0.1836 l -0.0566,-0.1699 c 0.0225,0 0.0442,0.01 0.0664,0.01 0.1239,0.01 0.24272,-0.043 0.36719,-0.1797 0.33689,-0.385 0.0807,-0.7749 -0.34375,-0.7656 0.15092,0.2241 0.15393,0.51 -0.13672,0.3496 -0.34708,-0.1914 -0.16986,-0.617 -0.1289,-0.7051 0.13429,-0.021 0.23632,-0.1369 0.23632,-0.2773 l 0,-0.022 c 0,-0.1342 -0.0933,-0.2452 -0.21874,-0.2734 0.0435,-0.4856 0.27963,-1.0606 0.54687,-1.0781 0.27304,-0.017 0.49313,0.1873 0.23437,0.5234 0.72763,0.014 1.16744,-0.5708 0.58985,-1.1484 -0.21342,-0.2058 -0.4165,-0.2784 -0.62891,-0.2696 -0.22408,0.01 -0.45914,0.11 -0.73047,0.2442 0.0944,-0.2157 0.14649,-0.4499 0.14649,-0.6914 0,-0.6901 -0.26796,-0.882 -0.6582,-1.6934 -0.39001,0.8107 -0.66016,1.0015 -0.66016,1.6914 3.8e-4,0.2416 0.052,0.4776 0.14648,0.6934 -0.52784,-0.2609 -0.92119,-0.3974 -1.35937,0.025 -0.57756,0.5776 -0.1378,1.1625 0.58984,1.1484 -0.25875,-0.3362 -0.0387,-0.5428 0.23438,-0.5254 0.26724,0.017 0.50338,0.5945 0.54687,1.0801 -0.12558,0.028 -0.21875,0.1391 -0.21875,0.2734 l 0,0.019 c 0,0.1406 0.1039,0.256 0.23828,0.2774 0.041,0.088 0.21817,0.5136 -0.1289,0.7051 -0.29065,0.1604 -0.28765,-0.1236 -0.13672,-0.3477 -0.42443,-0.01 -0.68259,0.3786 -0.34571,0.7637 0.12447,0.1374 0.24329,0.1874 0.36719,0.1816 0.0221,0 0.0438,0 0.0664,-0.012 l -0.0547,0.1699 c -0.0313,0.094 0.076,0.1787 0.17578,0.1836 l 0,0.209 0,0.7324 0,1.166 c -0.80018,-0.1272 -1.60763,-0.2286 -2.42969,-0.2812 l -2.42773,0 -2.42578,0 c -0.82204,0.053 -1.62952,0.154 -2.42969,0.2812 l 0,-1.166 0,-0.7324 0,-0.209 c 0.0998,0 0.20698,-0.09 0.17578,-0.1836 l -0.0566,-0.1699 c 0.0226,0 0.0443,0.012 0.0664,0.012 0.1239,0.01 0.24272,-0.044 0.36719,-0.1816 0.33689,-0.3851 0.0788,-0.7731 -0.34571,-0.7637 0.15093,0.2241 0.15393,0.5081 -0.13672,0.3477 -0.34707,-0.1915 -0.16792,-0.6172 -0.12695,-0.7051 0.13437,-0.022 0.23633,-0.1369 0.23633,-0.2774 l 0,-0.019 c 0,-0.1343 -0.0932,-0.2453 -0.21875,-0.2734 0.0435,-0.4856 0.27963,-1.0628 0.54687,-1.0801 0.27302,-0.017 0.49314,0.1892 0.23438,0.5254 0.72765,0.014 1.16937,-0.5708 0.5918,-1.1484 -0.43817,-0.4225 -0.8335,-0.286 -1.36133,-0.025 0.0946,-0.2158 0.1461,-0.4518 0.14648,-0.6934 0,-0.6899 -0.26819,-0.8807 -0.6582,-1.6914 z m 2.96875,9.6152 0,2.3028 c -0.82181,0.053 -1.62927,0.1578 -2.42969,0.2871 l 0,-2.2891 c 0.801,-0.1357 1.60905,-0.2446 2.42969,-0.3008 z m 4.85351,0 c 0.82066,0.056 1.62868,0.1651 2.42969,0.3008 l 0,2.2891 c -0.80042,-0.1293 -1.60788,-0.2337 -2.42969,-0.2871 l 0,-2.3028 z m -8.36132,0.5059 0,2.2773 c -1.45503,0.2959 -2.8753,0.7016 -4.26172,1.2051 l 0,-2.2226 c 1.38985,-0.5247 2.80967,-0.9504 4.26172,-1.2598 z m 11.86914,0 c 1.45205,0.3094 2.87187,0.7351 4.26172,1.2598 l 0,2.2226 c -1.38641,-0.5035 -2.80667,-0.9092 -4.26172,-1.2051 l 0,-2.2773 z m -17.20703,1.6816 0,2.2168 c -1.45735,0.5851 -2.87873,1.2662 -4.26368,2.0157 l 0,-2.1465 c 1.38925,-0.7731 2.81019,-1.4808 4.26368,-2.086 z m 22.54492,0 c 1.45349,0.6052 2.87442,1.3129 4.26367,2.086 l 0,2.1465 c -1.38494,-0.7495 -2.80632,-1.4306 -4.26367,-2.0157 l 0,-2.2168 z m -13.69922,0.8457 0,2.3028 c -0.82204,0.053 -1.62952,0.156 -2.42969,0.2832 l 0,-1.9063 0,-0.3847 c 0.80085,-0.1335 1.60857,-0.2398 2.42969,-0.295 z m 4.85351,0 c 0.82115,0.055 1.62885,0.1615 2.42969,0.295 l 0,0.3847 0,1.9063 c -0.80018,-0.1272 -1.60763,-0.2306 -2.42969,-0.2832 l 0,-2.3028 z m -8.36132,0.4961 0,0.1836 0,2.0938 c -1.45558,0.2916 -2.87658,0.6929 -4.26172,1.1894 l 0,-1.748 0,-0.4766 c 1.3885,-0.5174 2.80874,-0.9373 4.26172,-1.2422 z m 11.86914,0 c 1.45298,0.3049 2.87323,0.7248 4.26172,1.2422 l 0,0.4766 0,1.748 c -1.38514,-0.4965 -2.80613,-0.8978 -4.26172,-1.1894 l 0,-2.0938 0,-0.1836 z m -22.54688,1.3555 0,2.1348 c -1.45877,0.8353 -2.87893,1.7372 -4.26172,2.6738 l 0,-2.0742 c 1.38893,-0.9562 2.80704,-1.8798 4.26172,-2.7344 z m 33.22461,0 c 1.45469,0.8546 2.87279,1.7782 4.26172,2.7344 l 0,2.0742 c -1.38278,-0.9366 -2.80295,-1.8385 -4.26172,-2.6738 l 0,-2.1348 z m -5.33984,0.3027 c 1.45478,0.5984 2.876,1.2955 4.26367,2.0606 l 0,0.5644 0,1.5899 c -1.38382,-0.7418 -2.805,-1.4138 -4.26367,-1.9922 l 0,-2.1621 0,-0.061 z m -22.54492,0 0,0.059 0,2.1621 c -1.45866,0.5784 -2.87985,1.2504 -4.26368,1.9922 l 0,-1.5899 0,-0.5644 c 1.38767,-0.7651 2.8089,-1.4602 4.26368,-2.0586 z m 8.8457,1.6055 0,36.54295 -2.42969,0 0,-36.24225 c 0.801,-0.1357 1.60905,-0.2445 2.42969,-0.3007 z m 4.85351,0 c 0.82066,0.056 1.62868,0.165 2.42969,0.3007 l 0,36.24225 -2.42969,0 0,-36.54295 z m -8.36132,0.5058 0,36.03715 -4.26172,0 0,-34.77735 c 1.38985,-0.5247 2.80967,-0.9505 4.26172,-1.2598 z m 11.86914,0 c 1.45205,0.3093 2.87187,0.7351 4.26172,1.2598 l 0,34.77735 -4.26172,0 0,-36.03715 z m -22.54688,0.5606 0,2.1367 c -1.46039,0.8291 -2.88048,1.72202 -4.26172,2.65232 l 0,-1.42972 0,-0.6464 c 1.3866,-0.9495 2.80585,-1.8648 4.26172,-2.7129 z m 33.22461,0 c 1.45588,0.8481 2.87512,1.7634 4.26172,2.7129 l 0,0.6464 0,1.42972 c -1.38123,-0.9303 -2.80133,-1.82322 -4.26172,-2.65232 l 0,-2.1367 z m -38.56445,0.5117 0,2.0605 c -0.98332,0.6858 -1.94953,1.38292 -2.89649,2.08012 -0.47024,0.3463 -0.90329,0.6698 -1.36523,1.0137 l 0,-2.02542 c 0.67438,-0.5068 1.32281,-0.9972 2.01367,-1.5059 0.73985,-0.5448 1.4898,-1.0866 2.24805,-1.623 z m 43.904303,0 c 0.75826,0.5364 1.51016,1.0782 2.25,1.623 0.69086,0.5087 1.33734,0.9991 2.01171,1.5059 l 0,2.02542 c -0.46194,-0.3439 -0.89499,-0.6674 -1.36523,-1.0137 -0.94696,-0.6972 -1.91316,-1.39432 -2.89648,-2.08012 l 0,-2.0605 z m -33.224613,0.6094 0,34.35545 -4.26368,0 0,-32.26955 c 1.38925,-0.773 2.81019,-1.4806 4.26368,-2.0859 z m 22.54492,0 c 1.45349,0.6053 2.87442,1.3129 4.26367,2.0859 l 0,32.26955 -4.26367,0 0,-34.35545 z m -33.22461,2.3378 0,2.06842 c -1.05921,0.7354 -2.09821,1.4831 -3.11328,2.2305 -0.39618,0.2917 -0.75827,0.5599 -1.14844,0.8496 l 0,-1.3652 0,-0.6622 c 0.60378,-0.4523 1.17949,-0.8852 1.79688,-1.3398 0.81033,-0.5967 1.63088,-1.194 2.46484,-1.78132 z m 43.904303,0 c 0.83396,0.58732 1.65448,1.18462 2.46484,1.78132 0.61736,0.4546 1.19309,0.8875 1.79687,1.3398 l 0,0.6622 0,1.3652 c -0.39016,-0.2897 -0.75224,-0.5579 -1.14843,-0.8496 -1.01505,-0.7474 -2.05407,-1.4951 -3.11328,-2.2305 l 0,-2.06842 z m -38.564463,0.35942 0,31.65823 -4.26172,0 0,-28.92193 c 1.38893,-0.9561 2.80704,-1.8816 4.26172,-2.7363 z m 33.22461,0 c 1.45469,0.8547 2.87279,1.7801 4.26172,2.7363 l 0,28.92193 -4.26172,0 0,-31.65823 z m -43.90234,0.627 0,2.0195 c -1.45056,1.0824 -2.89406,2.1503 -4.26367,3.1191 l 0,-2.0097 c 1.38041,-0.9677 2.82183,-2.044 4.26367,-3.1289 z m 54.580083,0 c 1.44182,1.0849 2.88325,2.1612 4.26367,3.1289 l 0,2.0097 c -1.36963,-0.9688 -2.81311,-2.0367 -4.26367,-3.1191 l 0,-2.0195 z m -49.242193,2.8613 0,28.16993 -4.26172,0 0,-25.041 c 0.67438,-0.50693 1.32281,-0.99693 2.01367,-1.50593 0.73985,-0.5446 1.4898,-1.0865 2.24805,-1.623 z m 43.904303,0 c 0.75826,0.5365 1.51016,1.0783 2.25,1.623 0.69086,0.509 1.33734,0.999 2.01171,1.50593 l 0,25.041 -4.26171,0 0,-28.16993 z m -49.242193,0.078 0,2.0196 c -1.45325,1.08173 -2.89689,2.14673 -4.26367,3.11523 l 0,-1.377 0,-0.6347 c 1.37647,-0.96833 2.81874,-2.03893 4.26367,-3.12313 z m 54.580083,0 c 1.44492,1.0842 2.88719,2.1548 4.26367,3.12313 l 0,0.6347 0,1.377 c -1.3668,-0.9685 -2.81043,-2.0335 -4.26367,-3.11523 l 0,-2.0196 z m -59.919933,0.9297 0,2.02543 c -1.4654,1.0019 -2.88636,1.8947 -4.26171,2.6094 l 0,-2.1309 c 1.39959,-0.68073 2.8167,-1.53273 4.26171,-2.50393 z m 65.259773,0 c 1.445,0.9712 2.86212,1.8232 4.26172,2.50393 l 0,2.1309 c -1.37536,-0.7147 -2.79632,-1.6075 -4.26172,-2.6094 l 0,-2.02543 z m -59.919923,2.92583 0,24.2363 -4.26367,0 0,-21.1074 c 1.38041,-0.9678 2.82183,-2.0439 4.26367,-3.1289 z m 54.580083,0 c 1.44182,1.085 2.88325,2.1611 4.26367,3.1289 l 0,21.1074 -4.26367,0 0,-24.2363 z m -59.919933,0.014 0,2.0273 c -1.47305,1.0116 -2.89339,1.911 -4.26171,2.6367 l 0,-1.5879 0,-0.5351 c 1.39158,-0.6923 2.80975,-1.5588 4.26171,-2.541 z m 65.259773,0 c 1.45195,0.9822 2.87013,1.8487 4.26172,2.541 l 0,0.5351 0,1.5879 c -1.36833,-0.7257 -2.78867,-1.6251 -4.26172,-2.6367 l 0,-2.0273 z m -70.599613,0.051 0,2.1719 c -0.80973,0.3699 -1.60166,0.6624 -2.3808595,0.8809 l 0,-2.2402 c 0.7897695,-0.1951 1.5826895,-0.4769 2.3808595,-0.8126 z m 75.939453,0 c 0.79818,0.3358 1.59109,0.6176 2.38086,0.8126 l 0,2.2402 c -0.77919,-0.2185 -1.57113,-0.511 -2.38086,-0.8809 l 0,-2.1719 z m -75.939453,2.9903 0,0.035 0,2.127 c -0.8134,0.3814 -1.60629,0.6892 -2.3808595,0.916 l 0,-2.2402 c 0.7860095,-0.2024 1.5795995,-0.4914 2.3808595,-0.8379 z m 75.939453,0 c 0.80127,0.3465 1.59484,0.6354 2.38086,0.8379 l 0,2.2402 c -0.77457,-0.2267 -1.56744,-0.5345 -2.38086,-0.916 l 0,-2.127 0,-0.035 z m -70.599613,0.8144 0,20.3653 -4.26171,0 0,-17.8614 c 1.39959,-0.6808 2.8167,-1.5326 4.26171,-2.5039 z m 65.259773,0 c 1.445,0.9713 2.86212,1.8231 4.26172,2.5039 l 0,17.8614 -4.26172,0 0,-20.3653 z m -70.599613,2.9922 0,17.3731 -2.3808595,0 0,-16.5625 c 0.7897695,-0.1949 1.5826895,-0.475 2.3808595,-0.8106 z m 75.939453,0 c 0.79818,0.3356 1.59109,0.6157 2.38086,0.8106 l 0,16.5625 -2.38086,0 0,-17.3731 z"
       style="color:#000000;font-style:normal;font-variant:normal;font-weight:normal;font-stretch:normal;font-size:medium;line-height:normal;font-family:sans-serif;text-indent:0;text-align:start;text-decoration:none;text-decoration-line:none;text-decoration-style:solid;text-decoration-color:#000000;letter-spacing:normal;word-spacing:normal;text-transform:none;direction:ltr;block-progression:tb;writing-mode:lr-tb;baseline-shift:baseline;text-anchor:start;white-space:normal;clip-rule:nonzero;display:inline;overflow:visible;visibility:visible;opacity:1;isolation:auto;mix-blend-mode:normal;color-interpolation:sRGB;color-interpolation-filters:linearRGB;solid-color:#000000;solid-opacity:1;fill:#000000;fill-opacity:1;fill-rule:evenodd;stroke:none;stroke-width:3;stroke-linecap:butt;stroke-linejoin:miter;stroke-miterlimit:4;stroke-dasharray:none;stroke-dashoffset:0;stroke-opacity:1;color-rendering:auto;image-rendering:auto;shape-rendering:auto;text-rendering:auto;enable-background:accumulate" />
  </g>
</svg>
